B612MonoLigaNerdFont-Italic.ufo
<glyph name="numbersign" format="2">
  <advance width="1300"/>
  <unicode hex="0023"/>
  <outline>
    <contour>
      <point x="449" y="550" type="line"/>
      <point x="569" y="950" type="line"/>
      <point x="840" y="950" type="line"/>
      <point x="720" y="550" type="line"/>
    </contour>
    <contour>
      <point x="1260" y="1100" type="line"/>
      <point x="1083" y="1100" type="line"/>
      <point x="1208" y="1520" type="line"/>
      <point x="1004" y="1500" type="line"/>
      <point x="885" y="1100" type="line"/>
      <point x="612" y="1100" type="line"/>
      <point x="739" y="1520" type="line"/>
      <point x="510" y="1500" type="line"/>
      <point x="472" y="1285" type="line"/>
      <point x="415" y="1100" type="line"/>
      <point x="156" y="1100" type="line"/>
      <point x="110" y="950" type="line"/>
      <point x="372" y="950" type="line"/>
      <point x="250" y="550" type="line"/>
      <point x="39" y="550" type="line"/>
      <point x="39" y="400" type="line"/>
      <point x="207" y="400" type="line"/>
      <point x="82" y="-20" type="line"/>
      <point x="285" y="0" type="line"/>
      <point x="404" y="400" type="line"/>
      <point x="677" y="400" type="line"/>
      <point x="549" y="-20" type="line"/>
      <point x="753" y="0" type="line"/>
      <point x="874" y="400" type="line"/>
      <point x="1143" y="400" type="line"/>
      <point x="1189" y="550" type="line"/>
      <point x="917" y="550" type="line"/>
      <point x="1038" y="950" type="line"/>
      <point x="1260" y="950" type="line"/>
    </contour>
  </outline>
</glyph>
<glyph name="dollar" format="2">
  <advance width="1300"/>
  <unicode hex="0024"/>
  <outline>
    <contour>
      <point x="1206" y="1371" type="line"/>
      <point x="1136" y="1430"/>
      <point x="1037" y="1493"/>
      <point x="904" y="1512" type="curve"/>
      <point x="941" y="1721" type="line"/>
      <point x="791" y="1701" type="line"/>
      <point x="758" y="1513" type="line"/>
      <point x="515" y="1492"/>
      <point x="303" y="1359"/>
      <point x="303" y="1116" type="curve" smooth="yes"/>
      <point x="303" y="887"/>
      <point x="464" y="790"/>
      <point x="616" y="707" type="curve"/>
      <point x="517" y="146" type="line"/>
      <point x="508" y="146"/>
      <point x="500" y="147"/>
      <point x="492" y="148" type="curve" smooth="yes"/>
      <point x="372" y="161"/>
      <point x="282" y="225"/>
      <point x="218" y="284" type="curve"/>
      <point x="100" y="134" type="line"/>
      <point x="193" y="55"/>
      <point x="320" y="-6"/>
      <point x="477" y="-17" type="curve"/>
      <point x="488" y="-17" type="line"/>
      <point x="456" y="-199" type="line"/>
      <point x="602" y="-199" type="line"/>
      <point x="635" y="-10" type="line"/>
      <point x="877" y="25"/>
      <point x="1073" y="188"/>
      <point x="1073" y="432" type="curve" smooth="yes"/>
      <point x="1073" y="663"/>
      <point x="928" y="759"/>
      <point x="785" y="836" type="curve"/>
      <point x="875" y="1348" type="line"/>
      <point x="952" y="1341"/>
      <point x="1018" y="1309"/>
      <point x="1090" y="1252" type="curve"/>
    </contour>
    <contour>
      <point x="677" y="893" type="line"/>
      <point x="583" y="944"/>
      <point x="509" y="1001"/>
      <point x="506" y="1101" type="curve"/>
      <point x="506" y="1109" type="line" smooth="yes"/>
      <point x="506" y="1225"/>
      <point x="617" y="1315"/>
      <point x="758" y="1342" type="curve"/>
      <point x="679" y="896" type="line"/>
    </contour>
    <contour>
      <point x="869" y="433" type="curve" smooth="yes"/>
      <point x="869" y="273"/>
      <point x="756" y="187"/>
      <point x="635" y="157" type="curve"/>
      <point x="721" y="646" type="line"/>
      <point x="804" y="593"/>
      <point x="869" y="532"/>
    </contour>
  </outline>
</glyph>
<glyph name="ampersand" format="2">
  <advance width="1300"/>
  <unicode hex="0026"/>
  <outline>
    <contour>
      <point x="1023" y="700" type="line"/>
      <point x="994" y="544"/>
      <point x="966" y="443"/>
      <point x="886" y="352" type="curve"/>
      <point x="638" y="913"/>
      <point x="567" y="1053"/>
      <point x="563" y="1112" type="curve"/>
      <point x="562" y="1121"/>
      <point x="561" y="1130"/>
      <point x="561" y="1139" type="curve" smooth="yes"/>
      <point x="561" y="1143"/>
      <point x="561" y="1156"/>
      <point x="564" y="1175" type="curve" smooth="yes"/>
      <point x="575" y="1244"/>
      <point x="640" y="1359"/>
      <point x="766" y="1359" type="curve" smooth="yes"/>
      <point x="914" y="1359"/>
      <point x="977" y="1269"/>
      <point x="1006" y="1200" type="curve"/>
      <point x="1110" y="1338" type="line"/>
      <point x="1062" y="1413"/>
      <point x="977" y="1517"/>
      <point x="802" y="1517" type="curve" smooth="yes"/>
      <point x="545" y="1517"/>
      <point x="419" y="1367"/>
      <point x="385" y="1176" type="curve" smooth="yes"/>
      <point x="382" y="1159"/>
      <point x="381" y="1142"/>
      <point x="381" y="1123" type="curve" smooth="yes"/>
      <point x="381" y="1108"/>
      <point x="381" y="1073"/>
      <point x="393" y="1021" type="curve" smooth="yes"/>
      <point x="405" y="969"/>
      <point x="423" y="918"/>
      <point x="442" y="881" type="curve"/>
      <point x="317" y="836"/>
      <point x="141" y="701"/>
      <point x="96" y="447" type="curve" smooth="yes"/>
      <point x="91" y="417"/>
      <point x="88" y="388"/>
      <point x="88" y="359" type="curve" smooth="yes"/>
      <point x="88" y="298"/>
      <point x="98" y="207"/>
      <point x="161" y="122" type="curve" smooth="yes"/>
      <point x="224" y="37"/>
      <point x="327" y="-17"/>
      <point x="464" y="-17" type="curve" smooth="yes"/>
      <point x="592" y="-17"/>
      <point x="715" y="10"/>
      <point x="828" y="77" type="curve"/>
      <point x="887" y="-20" type="line" name=".hr01"/>
      <point x="1109" y="-20" type="line"/>
      <point x="1017" y="141" type="line"/>
      <point x="925" y="141" type="line"/>
      <point x="1112" y="291"/>
      <point x="1184" y="510"/>
      <point x="1221" y="721" type="curve"/>
    </contour>
    <contour>
      <point x="484" y="800" type="line"/>
      <point x="746" y="234" type="line"/>
      <point x="696" y="197"/>
      <point x="634" y="170" name=".hr02"/>
      <point x="520" y="170" type="curve" smooth="yes"/>
      <point x="453" y="170"/>
      <point x="388" y="193"/>
      <point x="342" y="241" type="curve" smooth="yes"/>
      <point x="296" y="289"/>
      <point x="281" y="349"/>
      <point x="281" y="397" type="curve" smooth="yes"/>
      <point x="281" y="416"/>
      <point x="283" y="436"/>
      <point x="287" y="457" type="curve" smooth="yes"/>
      <point x="310" y="585"/>
      <point x="375" y="661"/>
      <point x="466" y="700" type="curve"/>
    </contour>
  </outline>
</glyph>
<glyph name="quotesingle" format="2">
  <advance width="1300"/>
  <unicode hex="0027"/>
  <outline>
    <contour>
      <point x="396" y="1400" type="line" smooth="yes"/>
      <point x="391" y="1368"/>
      <point x="374" y="1284"/>
      <point x="358" y="1209" type="curve" smooth="yes"/>
      <point x="348" y="1165"/>
      <point x="338" y="1118"/>
      <point x="328" y="1067" type="curve"/>
      <point x="372" y="1067" type="line"/>
      <point x="485" y="1184"/>
      <point x="554" y="1301"/>
      <point x="571" y="1400" type="curve" smooth="yes"/>
      <point x="589" y="1500" type="line"/>
      <point x="414" y="1500" type="line"/>
    </contour>
  </outline>
</glyph>
<glyph name="plus" format="2">
  <advance width="1300"/>
  <unicode hex="002B"/>
  <outline>
    <contour>
      <point x="196" y="545" type="line"/>
      <point x="569" y="545" type="line"/>
      <point x="494" y="122" type="line"/>
      <point x="649" y="122" type="line"/>
      <point x="724" y="545" type="line"/>
      <point x="1096" y="545" type="line"/>
      <point x="1123" y="700" type="line"/>
      <point x="751" y="700" type="line"/>
      <point x="826" y="1123" type="line"/>
      <point x="671" y="1123" type="line"/>
      <point x="596" y="700" type="line"/>
      <point x="223" y="700" type="line"/>
    </contour>
  </outline>
</glyph>
<glyph name="comma" format="2">
  <advance width="1300"/>
  <unicode hex="002C"/>
  <outline>
    <contour>
      <point x="127" y="127" type="curve" smooth="yes"/>
      <point x="125" y="116"/>
      <point x="124" y="106"/>
      <point x="124" y="96" type="curve" smooth="yes"/>
      <point x="124" y="75"/>
      <point x="129" y="45"/>
      <point x="150" y="22" type="curve"/>
      <point x="170" y="-2"/>
      <point x="202" y="-16"/>
      <point x="235" y="-17" type="curve"/>
      <point x="224" y="-76"/>
      <point x="193" y="-141"/>
      <point x="164" y="-193" type="curve" smooth="yes"/>
      <point x="146" y="-224"/>
      <point x="127" y="-255"/>
      <point x="107" y="-284" type="curve"/>
      <point x="155" y="-307" type="line"/>
      <point x="347" y="-155"/>
      <point x="397" y="-28"/>
      <point x="420" y="110" type="curve"/>
      <point x="423" y="123"/>
      <point x="424" y="136"/>
      <point x="424" y="147" type="curve" smooth="yes"/>
      <point x="424" y="170"/>
      <point x="419" y="203"/>
      <point x="396" y="230" type="curve" smooth="yes"/>
      <point x="373" y="257"/>
      <point x="339" y="271"/>
      <point x="300" y="271" type="curve" smooth="yes"/>
      <point x="220" y="271"/>
      <point x="140" y="205"/>
    </contour>
  </outline>
</glyph>
<glyph name="hyphen" format="2">
  <advance width="1300"/>
  <unicode hex="002D"/>
  <outline>
    <contour>
      <point x="273" y="445" type="line"/>
      <point x="773" y="445" type="line"/>
      <point x="800" y="600" type="line"/>
      <point x="300" y="600" type="line"/>
    </contour>
  </outline>
</glyph>
<glyph name="period" format="2">
  <advance width="1300"/>
  <unicode hex="002E"/>
  <outline>
    <contour>
      <point x="107" y="150" type="curve" smooth="yes"/>
      <point x="105" y="140"/>
      <point x="104" y="130"/>
      <point x="104" y="120" type="curve" smooth="yes"/>
      <point x="104" y="96"/>
      <point x="110" y="63"/>
      <point x="135" y="33" type="curve" smooth="yes"/>
      <point x="159" y="3"/>
      <point x="198" y="-17"/>
      <point x="243" y="-17" type="curve" smooth="yes"/>
      <point x="333" y="-17"/>
      <point x="420" y="59"/>
      <point x="436" y="150" type="curve" smooth="yes"/>
      <point x="438" y="160"/>
      <point x="439" y="169"/>
      <point x="439" y="178" type="curve" smooth="yes"/>
      <point x="439" y="203"/>
      <point x="432" y="237"/>
      <point x="408" y="267" type="curve" smooth="yes"/>
      <point x="383" y="297"/>
      <point x="345" y="315"/>
      <point x="300" y="315" type="curve" smooth="yes"/>
      <point x="209" y="315"/>
      <point x="123" y="241"/>
    </contour>
  </outline>
</glyph>
<glyph name="zero" format="2">
  <advance width="1300"/>
  <unicode hex="0030"/>
  <outline>
    <contour>
      <point x="509" y="-17" type="curve" smooth="yes"/>
      <point x="526" y="-19"/>
      <point x="542" y="-20" name=".hr01"/>
      <point x="559" y="-20" type="curve" smooth="yes"/>
      <point x="600" y="-20"/>
      <point x="642" y="-12"/>
      <point x="687" y="3" type="curve" smooth="yes"/>
      <point x="776" y="34"/>
      <point x="870" y="110"/>
      <point x="944" y="213" type="curve" smooth="yes"/>
      <point x="1054" y="366"/>
      <point x="1124" y="566"/>
      <point x="1146" y="750" type="curve"/>
      <point x="1186" y="1101"/>
      <point x="1110" y="1481"/>
      <point x="779" y="1517" type="curve"/>
      <point x="764" y="1518"/>
      <point x="749" y="1519"/>
      <point x="734" y="1519" type="curve" smooth="yes"/>
      <point x="689" y="1519"/>
      <point x="644" y="1511"/>
      <point x="597" y="1495" type="curve" smooth="yes"/>
      <point x="503" y="1463"/>
      <point x="408" y="1387"/>
      <point x="335" y="1284" type="curve" smooth="yes"/>
      <point x="226" y="1132"/>
      <point x="158" y="933"/>
      <point x="142" y="750" type="curve" smooth="yes"/>
      <point x="137" y="695"/>
      <point x="134" y="639"/>
      <point x="134" y="584" type="curve" smooth="yes"/>
      <point x="134" y="581"/>
      <point x="134" y="563"/>
      <point x="135" y="532" type="curve"/>
      <point x="135" y="501"/>
      <point x="139" y="458"/>
      <point x="148" y="404" type="curve" smooth="yes"/>
      <point x="156" y="349"/>
      <point x="169" y="298"/>
      <point x="187" y="250" type="curve" smooth="yes"/>
      <point x="239" y="108"/>
      <point x="341" y="3"/>
    </contour>
    <contour>
      <point x="348" y="793" type="curve" smooth="yes" name=".hr02"/>
      <point x="366" y="919"/>
      <point x="403" y="1061"/>
      <point x="466" y="1171" type="curve" smooth="yes"/>
      <point x="532" y="1286"/>
      <point x="622" y="1342"/>
      <point x="713" y="1342" type="curve" smooth="yes"/>
      <point x="722" y="1342"/>
      <point x="731" y="1342"/>
      <point x="740" y="1341" type="curve" smooth="yes"/>
      <point x="1006" y="1313"/>
      <point x="955" y="942"/>
      <point x="939" y="707" type="curve"/>
      <point x="929" y="581"/>
      <point x="890" y="440"/>
      <point x="824" y="330" type="curve" smooth="yes"/>
      <point x="754" y="215"/>
      <point x="661" y="157"/>
      <point x="572" y="157" type="curve" smooth="yes" name=".hr03"/>
      <point x="564" y="157"/>
      <point x="556" y="157"/>
      <point x="547" y="158" type="curve" smooth="yes"/>
      <point x="366" y="177"/>
      <point x="325" y="353"/>
      <point x="325" y="524" type="curve" smooth="yes"/>
      <point x="325" y="527"/>
      <point x="325" y="540"/>
      <point x="326" y="564" type="curve"/>
      <point x="326" y="588"/>
      <point x="328" y="623"/>
      <point x="333" y="668" type="curve" smooth="yes"/>
      <point x="338" y="713"/>
      <point x="343" y="754"/>
    </contour>
    <contour>
      <point x="509" y="545" type="line"/>
      <point x="730" y="545" type="line"/>
      <point x="782" y="885" type="line"/>
      <point x="561" y="885" type="line"/>
    </contour>
  </outline>
</glyph>
<glyph name="eight" format="2">
  <advance width="1300"/>
  <unicode hex="0038"/>
  <outline>
    <contour>
      <point x="776" y="1517" type="line" smooth="yes"/>
      <point x="564" y="1517"/>
      <point x="334" y="1407"/>
      <point x="334" y="1132" type="curve" smooth="yes"/>
      <point x="334" y="1021"/>
      <point x="399" y="921"/>
      <point x="498" y="850" type="curve"/>
      <point x="289" y="762"/>
      <point x="130" y="607"/>
      <point x="130" y="368" type="curve" smooth="yes"/>
      <point x="130" y="101"/>
      <point x="332" y="-17"/>
      <point x="583" y="-17" type="curve" smooth="yes"/>
      <point x="867" y="-17"/>
      <point x="1117" y="111"/>
      <point x="1117" y="458" type="curve" smooth="yes"/>
      <point x="1117" y="600"/>
      <point x="1026" y="785"/>
      <point x="886" y="846" type="curve"/>
      <point x="1028" y="921"/>
      <point x="1150" y="1008" name=".hr01"/>
      <point x="1150" y="1199" type="curve" smooth="yes"/>
      <point x="1150" y="1397"/>
      <point x="1015" y="1509"/>
      <point x="798" y="1517" type="curve"/>
    </contour>
    <contour>
      <point x="723" y="923" type="curve"/>
      <point x="605" y="982"/>
      <point x="523" y="1042"/>
      <point x="523" y="1167" type="curve" smooth="yes"/>
      <point x="523" y="1267"/>
      <point x="648" y="1363"/>
      <point x="763" y="1363" type="curve" smooth="yes"/>
      <point x="858" y="1363"/>
      <point x="967" y="1310"/>
      <point x="967" y="1163" type="curve" smooth="yes"/>
      <point x="967" y="1049"/>
      <point x="856" y="979"/>
    </contour>
    <contour>
      <point x="654" y="760" type="curve"/>
      <point x="801" y="691"/>
      <point x="927" y="604"/>
      <point x="927" y="415" type="curve" smooth="yes" name=".hr02"/>
      <point x="927" y="253"/>
      <point x="759" y="145"/>
      <point x="602" y="145" type="curve" smooth="yes"/>
      <point x="444" y="145"/>
      <point x="318" y="230"/>
      <point x="318" y="414" type="curve" smooth="yes"/>
      <point x="318" y="595"/>
      <point x="474" y="688"/>
    </contour>
  </outline>
</glyph>
<glyph name="colon" format="2">
  <advance width="1300"/>
  <unicode hex="003A"/>
  <outline>
    <contour>
      <point x="226" y="647" type="curve"/>
      <point x="225" y="638"/>
      <point x="224" y="630"/>
      <point x="224" y="622" type="curve" smooth="yes"/>
      <point x="224" y="599"/>
      <point x="230" y="568"/>
      <point x="252" y="541" type="curve" smooth="yes"/>
      <point x="274" y="514"/>
      <point x="309" y="497"/>
      <point x="350" y="497" type="curve" smooth="yes"/>
      <point x="429" y="497"/>
      <point x="509" y="564"/>
      <point x="522" y="647" type="curve"/>
      <point x="523" y="656"/>
      <point x="524" y="664"/>
      <point x="524" y="673" type="curve" smooth="yes"/>
      <point x="524" y="696"/>
      <point x="520" y="725"/>
      <point x="498" y="752" type="curve" smooth="yes"/>
      <point x="476" y="779"/>
      <point x="441" y="795"/>
      <point x="400" y="795" type="curve" smooth="yes"/>
      <point x="320" y="795"/>
      <point x="239" y="730"/>
    </contour>
    <contour>
      <point x="135" y="133" type="curve"/>
      <point x="134" y="124"/>
      <point x="133" y="116"/>
      <point x="133" y="108" type="curve" smooth="yes"/>
      <point x="133" y="85"/>
      <point x="139" y="54"/>
      <point x="161" y="27" type="curve" smooth="yes"/>
      <point x="183" y="0"/>
      <point x="218" y="-17"/>
      <point x="259" y="-17" type="curve" smooth="yes"/>
      <point x="338" y="-17"/>
      <point x="418" y="50"/>
      <point x="431" y="133" type="curve"/>
      <point x="433" y="142"/>
      <point x="434" y="152"/>
      <point x="434" y="161" type="curve" smooth="yes"/>
      <point x="434" y="181"/>
      <point x="429" y="211"/>
      <point x="407" y="238" type="curve" smooth="yes"/>
      <point x="385" y="265"/>
      <point x="350" y="281"/>
      <point x="309" y="281" type="curve" smooth="yes"/>
      <point x="227" y="281"/>
      <point x="151" y="216"/>
    </contour>
  </outline>
</glyph>
<glyph name="semicolon" format="2">
  <advance width="1300"/>
  <unicode hex="003B"/>
  <outline>
    <contour>
      <point x="226" y="641" type="curve"/>
      <point x="225" y="632"/>
      <point x="224" y="624"/>
      <point x="224" y="616" type="curve" smooth="yes"/>
      <point x="224" y="593"/>
      <point x="230" y="562"/>
      <point x="252" y="535" type="curve" smooth="yes"/>
      <point x="274" y="508"/>
      <point x="309" y="491"/>
      <point x="350" y="491" type="curve" smooth="yes"/>
      <point x="429" y="491"/>
      <point x="509" y="558"/>
      <point x="522" y="641" type="curve"/>
      <point x="523" y="650"/>
      <point x="524" y="658"/>
      <point x="524" y="667" type="curve" smooth="yes"/>
      <point x="524" y="690"/>
      <point x="520" y="719"/>
      <point x="498" y="746" type="curve" smooth="yes"/>
      <point x="476" y="773"/>
      <point x="441" y="789"/>
      <point x="400" y="789" type="curve" smooth="yes"/>
      <point x="320" y="789"/>
      <point x="239" y="724"/>
    </contour>
    <contour>
      <point x="135" y="127" type="curve" smooth="yes"/>
      <point x="133" y="116"/>
      <point x="132" y="106"/>
      <point x="132" y="96" type="curve" smooth="yes"/>
      <point x="132" y="75"/>
      <point x="137" y="45"/>
      <point x="158" y="22" type="curve" smooth="yes"/>
      <point x="179" y="-2"/>
      <point x="210" y="-16"/>
      <point x="243" y="-17" type="curve"/>
      <point x="232" y="-76"/>
      <point x="201" y="-141"/>
      <point x="172" y="-193" type="curve" smooth="yes"/>
      <point x="155" y="-224"/>
      <point x="136" y="-255"/>
      <point x="115" y="-284" type="curve"/>
      <point x="163" y="-307" type="line"/>
      <point x="357" y="-154"/>
      <point x="404" y="-29"/>
      <point x="428" y="110" type="curve"/>
      <point x="431" y="123"/>
      <point x="432" y="136"/>
      <point x="432" y="147" type="curve" smooth="yes"/>
      <point x="432" y="170"/>
      <point x="427" y="203"/>
      <point x="404" y="230" type="curve" smooth="yes"/>
      <point x="381" y="257"/>
      <point x="348" y="271"/>
      <point x="309" y="271" type="curve" smooth="yes"/>
      <point x="227" y="271"/>
      <point x="151" y="204"/>
    </contour>
  </outline>
</glyph>
<glyph name="greater" format="2">
  <advance width="1300"/>
  <unicode hex="003E"/>
  <outline>
    <contour>
      <point x="309" y="1187" type="line"/>
      <point x="278" y="1012" type="line"/>
      <point x="900" y="646" type="line"/>
      <point x="975" y="626" type="line"/>
      <point x="894" y="606" type="line"/>
      <point x="142" y="242" type="line"/>
      <point x="111" y="67" type="line"/>
      <point x="1090" y="524" type="line"/>
      <point x="1127" y="733" type="line"/>
    </contour>
  </outline>
</glyph>
<glyph name="D" format="2">
  <advance width="1300"/>
  <unicode hex="0044"/>
  <outline>
    <contour>
      <point x="286" y="1290" type="line"/>
      <point x="59" y="0" type="line"/>
      <point x="335" y="0" type="line" smooth="yes"/>
      <point x="800" y="0"/>
      <point x="1227" y="290"/>
      <point x="1227" y="933" type="curve" smooth="yes"/>
      <point x="1227" y="1348"/>
      <point x="997" y="1511"/>
      <point x="610" y="1511" type="curve" smooth="yes"/>
      <point x="522" y="1511"/>
      <point x="376" y="1508"/>
      <point x="293" y="1500" type="curve"/>
    </contour>
    <contour>
      <point x="472" y="1350" type="line"/>
      <point x="473" y="1350" type="line"/>
      <point x="475" y="1350"/>
      <point x="477" y="1350"/>
      <point x="480" y="1351" type="curve"/>
      <point x="481" y="1351" type="line"/>
      <point x="483" y="1351"/>
      <point x="485" y="1351"/>
      <point x="487" y="1352" type="curve"/>
      <point x="488" y="1352" type="line"/>
      <point x="494" y="1352" type="line"/>
      <point x="495" y="1352" type="line"/>
      <point x="498" y="1353"/>
      <point x="500" y="1353"/>
      <point x="502" y="1353" type="curve" smooth="yes"/>
      <point x="504" y="1353" type="line"/>
      <point x="506" y="1354"/>
      <point x="508" y="1354"/>
      <point x="510" y="1354" type="curve"/>
      <point x="533" y="1357"/>
      <point x="558" y="1358"/>
      <point x="579" y="1358" type="curve" smooth="yes"/>
      <point x="928" y="1358"/>
      <point x="1038" y="1187"/>
      <point x="1038" y="946" type="curve" smooth="yes"/>
      <point x="1038" y="581"/>
      <point x="881" y="160"/>
      <point x="307" y="160" type="curve" smooth="yes"/>
      <point x="287" y="160" type="line"/>
      <point x="356" y="557"/>
      <point x="399" y="804"/>
      <point x="426" y="953" type="curve" smooth="yes"/>
      <point x="441" y="1040"/>
      <point x="453" y="1105"/>
      <point x="461" y="1150" type="curve"/>
    </contour>
  </outline>
</glyph>
<glyph name="E" format="2">
  <advance width="1300"/>
  <unicode hex="0045"/>
  <outline>
    <contour>
      <point x="290" y="160" type="line"/>
      <point x="332" y="340" type="line"/>
      <point x="403" y="740" type="line"/>
      <point x="1038" y="740" type="line"/>
      <point x="1063" y="885" type="line"/>
      <point x="428" y="885" type="line"/>
      <point x="475" y="1150" type="line"/>
      <point x="489" y="1340" type="line"/>
      <point x="1214" y="1340" type="line"/>
      <point x="1242" y="1500" type="line"/>
      <point x="322" y="1500" type="line"/>
      <point x="315" y="1290" type="line"/>
      <point x="123" y="200" type="line"/>
      <point x="72" y="0" type="line"/>
      <point x="992" y="0" type="line"/>
      <point x="1040" y="160" type="line"/>
    </contour>
  </outline>
</glyph>
<glyph name="G" format="2">
  <advance width="1300"/>
  <unicode hex="0047"/>
  <outline>
    <contour>
      <point x="1192" y="762" type="line"/>
      <point x="702" y="762" type="line"/>
      <point x="679" y="632" type="line"/>
      <point x="989" y="612" type="line"/>
      <point x="928" y="263" type="line"/>
      <point x="872" y="212"/>
      <point x="737" y="153"/>
      <point x="618" y="153" type="curve" smooth="yes"/>
      <point x="515" y="153"/>
      <point x="446" y="192"/>
      <point x="399" y="253" type="curve" smooth="yes"/>
      <point x="376" y="284"/>
      <point x="358" y="319"/>
      <point x="347" y="360" type="curve"/>
      <point x="323" y="441"/>
      <point x="321" y="512"/>
      <point x="321" y="557" type="curve" smooth="yes"/>
      <point x="321" y="606"/>
      <point x="326" y="681"/>
      <point x="342" y="773" type="curve" smooth="yes"/>
      <point x="398" y="1085"/>
      <point x="517" y="1348"/>
      <point x="842" y="1348" type="curve" smooth="yes"/>
      <point x="967" y="1348"/>
      <point x="1057" y="1311"/>
      <point x="1114" y="1268" type="curve"/>
      <point x="1223" y="1375" type="line"/>
      <point x="1143" y="1467"/>
      <point x="1009" y="1517"/>
      <point x="856" y="1517" type="curve" smooth="yes"/>
      <point x="416" y="1517"/>
      <point x="203" y="1173"/>
      <point x="131" y="770" type="curve" smooth="yes"/>
      <point x="116" y="690"/>
      <point x="109" y="613"/>
      <point x="109" y="540" type="curve" smooth="yes"/>
      <point x="109" y="515"/>
      <point x="111" y="472"/>
      <point x="116" y="412" type="curve" smooth="yes"/>
      <point x="120" y="352"/>
      <point x="139" y="286"/>
      <point x="174" y="215" type="curve"/>
      <point x="242" y="72"/>
      <point x="370" y="-17"/>
      <point x="562" y="-17" type="curve" smooth="yes"/>
      <point x="784" y="-17"/>
      <point x="960" y="76"/>
      <point x="1092" y="197" type="curve"/>
    </contour>
  </outline>
</glyph>
<glyph name="I" format="2">
  <advance width="1300"/>
  <unicode hex="0049"/>
  <outline>
    <contour>
      <point x="284" y="1340" type="line"/>
      <point x="660" y="1340" type="line"/>
      <point x="451" y="160" type="line"/>
      <point x="95" y="160" type="line"/>
      <point x="67" y="0" type="line"/>
      <point x="967" y="0" type="line"/>
      <point x="1015" y="160" type="line"/>
      <point x="637" y="160" type="line"/>
      <point x="846" y="1340" type="line"/>
      <point x="1204" y="1340" type="line"/>
      <point x="1232" y="1500" type="line"/>
      <point x="332" y="1500" type="line"/>
    </contour>
  </outline>
</glyph>
<glyph name="O" format="2">
  <advance width="1300"/>
  <unicode hex="004F"/>
  <outline>
    <contour>
      <point x="514" y="-17" type="curve" smooth="yes"/>
      <point x="885" y="-17"/>
      <point x="1124" y="330"/>
      <point x="1200" y="750" type="curve"/>
      <point x="1224" y="890"/>
      <point x="1220" y="958"/>
      <point x="1220" y="969" type="curve" smooth="yes"/>
      <point x="1220" y="1086"/>
      <point x="1200" y="1198"/>
      <point x="1155" y="1291" type="curve" smooth="yes"/>
      <point x="1087" y="1430"/>
      <point x="965" y="1517"/>
      <point x="785" y="1517" type="curve" smooth="yes"/>
      <point x="416" y="1517"/>
      <point x="172" y="1170"/>
      <point x="100" y="750" type="curve"/>
      <point x="75" y="610"/>
      <point x="79" y="542"/>
      <point x="79" y="531" type="curve" smooth="yes"/>
      <point x="79" y="414"/>
      <point x="99" y="302"/>
      <point x="144" y="209" type="curve" smooth="yes"/>
      <point x="212" y="70"/>
      <point x="334" y="-17"/>
    </contour>
    <contour>
      <point x="986" y="719" type="curve"/>
      <point x="942" y="476"/>
      <point x="837" y="158"/>
      <point x="551" y="158" type="curve" smooth="yes"/>
      <point x="450" y="158"/>
      <point x="384" y="197"/>
      <point x="344" y="258" type="curve" smooth="yes"/>
      <point x="323" y="289"/>
      <point x="309" y="325"/>
      <point x="300" y="366" type="curve" smooth="yes"/>
      <point x="283" y="448"/>
      <point x="286" y="501"/>
      <point x="286" y="512" type="curve" smooth="yes"/>
      <point x="286" y="595"/>
      <point x="297" y="690"/>
      <point x="314" y="785" type="curve" smooth="yes"/>
      <point x="358" y="1030"/>
      <point x="459" y="1342"/>
      <point x="748" y="1342" type="curve" smooth="yes"/>
      <point x="849" y="1342"/>
      <point x="915" y="1303"/>
      <point x="956" y="1243" type="curve"/>
      <point x="976" y="1212"/>
      <point x="991" y="1177"/>
      <point x="1000" y="1136" type="curve" smooth="yes"/>
      <point x="1018" y="1054"/>
      <point x="1014" y="999"/>
      <point x="1014" y="990" type="curve" smooth="yes"/>
      <point x="1014" y="906"/>
      <point x="1002" y="812"/>
    </contour>
  </outline>
</glyph>
<glyph name="R" format="2">
  <advance width="1300"/>
  <unicode hex="0052"/>
  <outline>
    <contour>
      <point x="528" y="619" type="line" smooth="yes"/>
      <point x="539" y="619"/>
      <point x="560" y="619"/>
      <point x="571" y="600" type="curve" smooth="yes"/>
      <point x="910" y="0" type="line"/>
      <point x="1133" y="0" type="line"/>
      <point x="794" y="593" type="line"/>
      <point x="668" y="629" type="line"/>
      <point x="918" y="640"/>
      <point x="1180" y="796"/>
      <point x="1180" y="1139" type="curve" smooth="yes"/>
      <point x="1180" y="1360"/>
      <point x="1029" y="1517"/>
      <point x="693" y="1517" type="curve" smooth="yes"/>
      <point x="568" y="1517"/>
      <point x="418" y="1501"/>
      <point x="327" y="1490" type="curve"/>
      <point x="327" y="1290" type="line"/>
      <point x="100" y="0" type="line"/>
      <point x="300" y="0" type="line"/>
      <point x="408" y="619" type="line"/>
    </contour>
    <contour>
      <point x="520" y="1364" type="line"/>
      <point x="567" y="1373"/>
      <point x="638" y="1375"/>
      <point x="694" y="1375" type="curve" smooth="yes"/>
      <point x="845" y="1375"/>
      <point x="998" y="1275"/>
      <point x="998" y="1119" type="curve" smooth="yes"/>
      <point x="998" y="890"/>
      <point x="826" y="763"/>
      <point x="582" y="763" type="curve" smooth="yes"/>
      <point x="434" y="763" type="line"/>
      <point x="502" y="1147" type="line"/>
    </contour>
  </outline>
</glyph>
<glyph name="U" format="2">
  <advance width="1300"/>
  <unicode hex="0055"/>
  <outline>
    <contour>
      <point x="1036" y="1500" type="line"/>
      <point x="861" y="504" type="line" smooth="yes"/>
      <point x="820" y="269"/>
      <point x="715" y="153"/>
      <point x="519" y="153" type="curve" smooth="yes"/>
      <point x="435" y="153"/>
      <point x="375" y="190"/>
      <point x="340" y="259" type="curve" smooth="yes"/>
      <point x="323" y="293"/>
      <point x="313" y="326"/>
      <point x="311" y="357" type="curve"/>
      <point x="308" y="388"/>
      <point x="307" y="409"/>
      <point x="307" y="422" type="curve" smooth="yes"/>
      <point x="307" y="462"/>
      <point x="311" y="506"/>
      <point x="320" y="554" type="curve" smooth="yes"/>
      <point x="490" y="1520" type="line"/>
      <point x="266" y="1500" type="line"/>
      <point x="259" y="1290" type="line"/>
      <point x="133" y="573" type="line" smooth="yes"/>
      <point x="120" y="502"/>
      <point x="114" y="436"/>
      <point x="114" y="375" type="curve" smooth="yes"/>
      <point x="114" y="360"/>
      <point x="115" y="331"/>
      <point x="118" y="288" type="curve" smooth="yes"/>
      <point x="120" y="245"/>
      <point x="135" y="197"/>
      <point x="162" y="146" type="curve" smooth="yes"/>
      <point x="216" y="42"/>
      <point x="316" y="-17"/>
      <point x="479" y="-17" type="curve" smooth="yes"/>
      <point x="783" y="-17"/>
      <point x="990" y="160"/>
      <point x="1054" y="523" type="curve" smooth="yes"/>
      <point x="1226" y="1500" type="line"/>
    </contour>
  </outline>
</glyph>
<glyph name="W" format="2">
  <advance width="1300"/>
  <unicode hex="0057"/>
  <outline>
    <contour>
      <point x="187" y="200" type="line"/>
      <point x="183" y="200" type="line"/>
      <point x="233" y="660" type="line"/>
      <point x="234" y="1520" type="line"/>
      <point x="70" y="1500" type="line"/>
      <point x="68" y="0" type="line"/>
      <point x="228" y="0" type="line"/>
      <point x="406" y="450" type="line"/>
      <point x="552" y="950" type="line"/>
      <point x="556" y="950" type="line"/>
      <point x="527" y="450" type="line"/>
      <point x="543" y="0" type="line"/>
      <point x="724" y="0" type="line"/>
      <point x="1261" y="1500" type="line"/>
      <point x="1084" y="1500" type="line"/>
      <point x="783" y="660" type="line"/>
      <point x="670" y="200" type="line"/>
      <point x="666" y="200" type="line"/>
      <point x="666" y="700" type="line"/>
      <point x="650" y="1100" type="line"/>
      <point x="510" y="1100" type="line"/>
      <point x="344" y="700" type="line"/>
    </contour>
  </outline>
</glyph>
<glyph name="Y" format="2">
  <advance width="1300"/>
  <unicode hex="0059"/>
  <outline>
    <contour>
      <point x="549" y="705" type="line"/>
      <point x="514" y="954" type="line"/>
      <point x="336" y="1520" type="line"/>
      <point x="128" y="1500" type="line"/>
      <point x="413" y="645" type="line"/>
      <point x="300" y="0" type="line"/>
      <point x="500" y="0" type="line"/>
      <point x="613" y="646" type="line"/>
      <point x="1199" y="1500" type="line"/>
      <point x="1007" y="1500" type="line"/>
      <point x="619" y="935" type="line"/>
    </contour>
  </outline>
</glyph>
<glyph name="asciicircum" format="2">
  <advance width="1300"/>
  <unicode hex="005E"/>
  <outline>
    <contour>
      <point x="813" y="1517" type="line"/>
      <point x="681" y="1500" type="line"/>
      <point x="23" y="914" type="line"/>
      <point x="239" y="914" type="line"/>
      <point x="663" y="1241" type="line"/>
      <point x="727" y="1350" type="line"/>
      <point x="752" y="1239" type="line"/>
      <point x="1072" y="912" type="line"/>
      <point x="1273" y="912" type="line"/>
    </contour>
  </outline>
</glyph>
<glyph name="c" format="2">
  <advance width="1300"/>
  <unicode hex="0063"/>
  <outline>
    <contour>
      <point x="1163" y="1000" type="line"/>
      <point x="1079" y="1080"/>
      <point x="968" y="1117"/>
      <point x="805" y="1117" type="curve" smooth="yes"/>
      <point x="461" y="1117"/>
      <point x="202" y="854"/>
      <point x="154" y="577" type="curve" smooth="yes"/>
      <point x="147" y="538"/>
      <point x="144" y="501"/>
      <point x="144" y="464" type="curve" smooth="yes"/>
      <point x="144" y="203"/>
      <point x="309" y="-17"/>
      <point x="601" y="-17" type="curve" smooth="yes"/>
      <point x="760" y="-17"/>
      <point x="921" y="57"/>
      <point x="1000" y="115" type="curve"/>
      <point x="947" y="258" type="line"/>
      <point x="902" y="232"/>
      <point x="756" y="152"/>
      <point x="644" y="152" type="curve" smooth="yes"/>
      <point x="435" y="152"/>
      <point x="338" y="292"/>
      <point x="338" y="469" type="curve" smooth="yes"/>
      <point x="338" y="500"/>
      <point x="341" y="532"/>
      <point x="347" y="564" type="curve" smooth="yes"/>
      <point x="384" y="776"/>
      <point x="551" y="957"/>
      <point x="775" y="957" type="curve" smooth="yes"/>
      <point x="915" y="957"/>
      <point x="995" y="928"/>
      <point x="1044" y="885" type="curve"/>
    </contour>
  </outline>
</glyph>
<glyph name="g" format="2">
  <advance width="1300"/>
  <unicode hex="0067"/>
  <outline>
    <contour>
      <point x="784" y="-31" type="line" smooth="yes"/>
      <point x="749" y="-226"/>
      <point x="634" y="-357"/>
      <point x="468" y="-357" type="curve" smooth="yes"/>
      <point x="340" y="-357"/>
      <point x="236" y="-292"/>
      <point x="217" y="-276" type="curve"/>
      <point x="100" y="-386" type="line"/>
      <point x="132" y="-418"/>
      <point x="247" y="-517"/>
      <point x="453" y="-517" type="curve" smooth="yes"/>
      <point x="726" y="-517"/>
      <point x="912" y="-326"/>
      <point x="963" y="-46" type="curve"/>
      <point x="1165" y="1100" type="line"/>
      <point x="988" y="1121" type="line"/>
      <point x="958" y="958" type="line"/>
      <point x="903" y="1070" type="line"/>
      <point x="858" y="1102"/>
      <point x="781" y="1117"/>
      <point x="724" y="1117" type="curve" smooth="yes"/>
      <point x="372" y="1117"/>
      <point x="180" y="798"/>
      <point x="180" y="458" type="curve" smooth="yes"/>
      <point x="180" y="175"/>
      <point x="313" y="-17"/>
      <point x="540" y="-17" type="curve" smooth="yes"/>
      <point x="629" y="-17"/>
      <point x="683" y="12"/>
      <point x="707" y="25" type="curve"/>
      <point x="813" y="135" type="line"/>
    </contour>
    <contour>
      <point x="838" y="275" type="line"/>
      <point x="779" y="206"/>
      <point x="704" y="142"/>
      <point x="592" y="142" type="curve" smooth="yes"/>
      <point x="579" y="142"/>
      <point x="565" y="143"/>
      <point x="551" y="145" type="curve" smooth="yes"/>
      <point x="418" y="162"/>
      <point x="359" y="267"/>
      <point x="359" y="448" type="curve" smooth="yes"/>
      <point x="359" y="662"/>
      <point x="445" y="958"/>
      <point x="697" y="958" type="curve" smooth="yes"/>
      <point x="821" y="958"/>
      <point x="897" y="890"/>
      <point x="937" y="834" type="curve"/>
    </contour>
  </outline>
</glyph>
<glyph name="h" format="2">
  <advance width="1300"/>
  <unicode hex="0068"/>
  <outline>
    <contour>
      <point x="445" y="833" type="line"/>
      <point x="499" y="884"/>
      <point x="650" y="957"/>
      <point x="809" y="957" type="curve" smooth="yes"/>
      <point x="893" y="957"/>
      <point x="941" y="914"/>
      <point x="941" y="803" type="curve" smooth="yes"/>
      <point x="941" y="775"/>
      <point x="938" y="744"/>
      <point x="932" y="709" type="curve" smooth="yes"/>
      <point x="807" y="0" type="line"/>
      <point x="997" y="0" type="line"/>
      <point x="1125" y="730" type="line" smooth="yes"/>
      <point x="1133" y="773"/>
      <point x="1136" y="813"/>
      <point x="1136" y="849" type="curve" smooth="yes"/>
      <point x="1136" y="1024"/>
      <point x="1051" y="1117"/>
      <point x="884" y="1117" type="curve" smooth="yes"/>
      <point x="731" y="1117"/>
      <point x="633" y="1094"/>
      <point x="574" y="1065" type="curve"/>
      <point x="465" y="950" type="line"/>
      <point x="583" y="1620" type="line"/>
      <point x="370" y="1600" type="line"/>
      <point x="355" y="1400" type="line"/>
      <point x="108" y="0" type="line"/>
      <point x="298" y="0" type="line"/>
    </contour>
  </outline>
</glyph>
<glyph name="p" format="2">
  <advance width="1300"/>
  <unicode hex="0070"/>
  <outline>
    <contour>
      <point x="362" y="0" type="line"/>
      <point x="508" y="0" type="line" smooth="yes"/>
      <point x="969" y="0"/>
      <point x="1173" y="317"/>
      <point x="1173" y="695" type="curve" smooth="yes"/>
      <point x="1173" y="964"/>
      <point x="1030" y="1117"/>
      <point x="834" y="1117" type="curve" smooth="yes"/>
      <point x="730" y="1117"/>
      <point x="677" y="1082"/>
      <point x="623" y="1047" type="curve"/>
      <point x="528" y="944" type="line"/>
      <point x="559" y="1121" type="line"/>
      <point x="373" y="1100" type="line"/>
      <point x="91" y="-500" type="line"/>
      <point x="273" y="-500" type="line"/>
    </contour>
    <contour>
      <point x="390" y="160" type="line"/>
      <point x="507" y="827" type="line"/>
      <point x="587" y="904"/>
      <point x="668" y="960"/>
      <point x="768" y="960" type="curve" smooth="yes"/>
      <point x="907" y="960"/>
      <point x="991" y="861"/>
      <point x="991" y="677" type="curve" smooth="yes"/>
      <point x="991" y="402"/>
      <point x="875" y="160"/>
      <point x="572" y="160" type="curve" smooth="yes"/>
    </contour>
  </outline>
</glyph>
<glyph name="q" format="2">
  <advance width="1300"/>
  <unicode hex="0071"/>
  <outline>
    <contour>
      <point x="680" y="-500" type="line"/>
      <point x="862" y="-500" type="line"/>
      <point x="1138" y="1065" type="line"/>
      <point x="990" y="1092"/>
      <point x="904" y="1117"/>
      <point x="727" y="1117" type="curve" smooth="yes"/>
      <point x="390" y="1117"/>
      <point x="155" y="818"/>
      <point x="155" y="432" type="curve" smooth="yes"/>
      <point x="155" y="149"/>
      <point x="275" y="-17"/>
      <point x="470" y="-17" type="curve" smooth="yes"/>
      <point x="553" y="-17"/>
      <point x="594" y="-3"/>
      <point x="669" y="29" type="curve"/>
      <point x="792" y="136" type="line"/>
    </contour>
    <contour>
      <point x="816" y="270" type="line"/>
      <point x="735" y="195"/>
      <point x="638" y="140"/>
      <point x="545" y="140" type="curve" smooth="yes"/>
      <point x="416" y="140"/>
      <point x="340" y="228"/>
      <point x="340" y="425" type="curve" smooth="yes"/>
      <point x="340" y="636"/>
      <point x="414" y="957"/>
      <point x="713" y="957" type="curve" smooth="yes"/>
      <point x="788" y="957"/>
      <point x="881" y="945"/>
      <point x="933" y="935" type="curve"/>
    </contour>
  </outline>
</glyph>
<glyph name="braceright" format="2">
  <advance width="1300"/>
  <unicode hex="007D"/>
  <outline>
    <contour>
      <point x="1074" y="631" type="line"/>
      <point x="952" y="631" type="line" smooth="yes"/>
      <point x="845" y="631"/>
      <point x="830" y="686"/>
      <point x="830" y="745" type="curve" smooth="yes"/>
      <point x="830" y="764"/>
      <point x="832" y="801"/>
      <point x="847" y="886" type="curve" smooth="yes"/>
      <point x="889" y="1126" type="line" smooth="yes"/>
      <point x="896" y="1164"/>
      <point x="899" y="1202" name=".hr01"/>
      <point x="899" y="1239" type="curve" smooth="yes"/>
      <point x="899" y="1258"/>
      <point x="904" y="1318"/>
      <point x="868" y="1394" type="curve" smooth="yes"/>
      <point x="832" y="1469"/>
      <point x="761" y="1522"/>
      <point x="640" y="1526" type="curve"/>
      <point x="629" y="1527"/>
      <point x="618" y="1527"/>
      <point x="608" y="1527" type="curve" smooth="yes"/>
      <point x="573" y="1527"/>
      <point x="536" y="1523"/>
      <point x="501" y="1515" type="curve" smooth="yes"/>
      <point x="465" y="1506"/>
      <point x="438" y="1492"/>
      <point x="407" y="1479" type="curve"/>
      <point x="449" y="1356" type="line"/>
      <point x="475" y="1372"/>
      <point x="530" y="1383"/>
      <point x="562" y="1383" type="curve"/>
      <point x="563" y="1383" type="line"/>
      <point x="564" y="1383" type="line"/>
      <point x="566" y="1383" type="line"/>
      <point x="567" y="1383" type="line"/>
      <point x="568" y="1383" type="line"/>
      <point x="570" y="1383" type="line"/>
      <point x="570" y="1383" type="line"/>
      <point x="578" y="1383" type="line" smooth="yes"/>
      <point x="583" y="1383"/>
      <point x="589" y="1382"/>
      <point x="594" y="1381" type="curve"/>
      <point x="705" y="1381"/>
      <point x="718" y="1323"/>
      <point x="718" y="1269" type="curve" smooth="yes"/>
      <point x="718" y="1249"/>
      <point x="714" y="1209"/>
      <point x="699" y="1126" type="curve" smooth="yes"/>
      <point x="657" y="886" type="line"/>
      <point x="636" y="774"/>
      <point x="658" y="612"/>
      <point x="706" y="556" type="curve"/>
      <point x="597" y="484"/>
      <point x="572" y="414"/>
      <point x="540" y="226" type="curve" smooth="yes"/>
      <point x="498" y="-13" type="line"/>
      <point x="469" y="-185"/>
      <point x="441" y="-263"/>
      <point x="303" y="-268" type="curve"/>
      <point x="293" y="-268" type="line" smooth="yes"/>
      <point x="257" y="-268"/>
      <point x="206" y="-263"/>
      <point x="167" y="-243" type="curve"/>
      <point x="82" y="-366" type="line"/>
      <point x="141" y="-393"/>
      <point x="178" y="-408"/>
      <point x="298" y="-413" type="curve"/>
      <point x="309" y="-414"/>
      <point x="320" y="-414"/>
      <point x="331" y="-414" type="curve" smooth="yes"/>
      <point x="424" y="-414"/>
      <point x="505" y="-392"/>
      <point x="566" y="-326" type="curve" smooth="yes"/>
      <point x="626" y="-260"/>
      <point x="663" y="-157"/>
      <point x="688" y="-13" type="curve" smooth="yes"/>
      <point x="730" y="226" type="line" smooth="yes"/>
      <point x="759" y="391"/>
      <point x="770" y="465"/>
      <point x="925" y="481" type="curve"/>
      <point x="1047" y="481" type="line"/>
    </contour>
  </outline>
</glyph>
<glyph name="yen" format="2">
  <advance width="1300"/>
  <unicode hex="00A5"/>
  <outline>
    <contour>
      <point x="30" y="400" type="line"/>
      <point x="425" y="400" type="line"/>
      <point x="355" y="0" type="line"/>
      <point x="565" y="0" type="line"/>
      <point x="635" y="400" type="line"/>
      <point x="1030" y="400" type="line"/>
      <point x="1056" y="550" type="line"/>
      <point x="661" y="550" type="line"/>
      <point x="678" y="646" type="line"/>
      <point x="715" y="700" type="line"/>
      <point x="1083" y="700" type="line"/>
      <point x="1109" y="850" type="line"/>
      <point x="818" y="850" type="line"/>
      <point x="1264" y="1500" type="line"/>
      <point x="1072" y="1500" type="line"/>
      <point x="684" y="935" type="line"/>
      <point x="614" y="705" type="line"/>
      <point x="579" y="954" type="line"/>
      <point x="391" y="1520" type="line"/>
      <point x="183" y="1500" type="line"/>
      <point x="399" y="850" type="line"/>
      <point x="109" y="850" type="line"/>
      <point x="83" y="700" type="line"/>
      <point x="450" y="700" type="line"/>
      <point x="468" y="645" type="line"/>
      <point x="451" y="550" type="line"/>
      <point x="56" y="550" type="line"/>
    </contour>
  </outline>
</glyph>
<glyph name="dieresis" format="2">
  <advance width="1300"/>
  <unicode hex="00A8"/>
  <outline>
    <contour>
      <point x="529" y="1300" type="line"/>
      <point x="729" y="1300" type="line"/>
      <point x="764" y="1500" type="line"/>
      <point x="564" y="1500" type="line"/>
    </contour>
    <contour>
      <point x="929" y="1300" type="line"/>
      <point x="1129" y="1300" type="line"/>
      <point x="1164" y="1500" type="line"/>
      <point x="964" y="1500" type="line"/>
    </contour>
  </outline>
</glyph>
<glyph name="copyright" format="2">
  <advance width="1300"/>
  <unicode hex="00A9"/>
  <outline>
    <contour>
      <point x="717" y="1517" type="curve" smooth="yes"/>
      <point x="705" y="1518"/>
      <point x="692" y="1518"/>
      <point x="680" y="1518" type="curve" smooth="yes"/>
      <point x="413" y="1518"/>
      <point x="183" y="1303"/>
      <point x="164" y="1047" type="curve" smooth="yes"/>
      <point x="144" y="784"/>
      <point x="298" y="583"/>
      <point x="557" y="577" type="curve"/>
      <point x="571" y="577" type="line" smooth="yes"/>
      <point x="851" y="577"/>
      <point x="1071" y="784"/>
      <point x="1104" y="1047" type="curve" smooth="yes"/>
      <point x="1139" y="1325"/>
      <point x="978" y="1498"/>
    </contour>
    <contour>
      <point x="571" y="663" type="curve" smooth="yes"/>
      <point x="355" y="663"/>
      <point x="239" y="837"/>
      <point x="250" y="1047" type="curve" smooth="yes"/>
      <point x="262" y="1273"/>
      <point x="467" y="1439"/>
      <point x="696" y="1439" type="curve" smooth="yes"/>
      <point x="873" y="1439"/>
      <point x="1063" y="1288"/>
      <point x="1013" y="1047" type="curve" smooth="yes"/>
      <point x="957" y="776"/>
      <point x="763" y="663"/>
    </contour>
    <contour>
      <point x="831" y="1200" type="curve"/>
      <point x="890" y="1252" type="line"/>
      <point x="849" y="1288"/>
      <point x="792" y="1305"/>
      <point x="711" y="1305" type="curve" smooth="yes"/>
      <point x="539" y="1305"/>
      <point x="410" y="1186"/>
      <point x="386" y="1062" type="curve"/>
      <point x="382" y="1045"/>
      <point x="381" y="1027"/>
      <point x="381" y="1011" type="curve" smooth="yes"/>
      <point x="381" y="894"/>
      <point x="462" y="794"/>
      <point x="609" y="794" type="curve" smooth="yes"/>
      <point x="689" y="794"/>
      <point x="769" y="828"/>
      <point x="809" y="854" type="curve"/>
      <point x="782" y="918" type="line"/>
      <point x="781" y="918"/>
      <point x="781" y="918"/>
      <point x="781" y="917" type="curve"/>
      <point x="780" y="917" type="line"/>
      <point x="780" y="917" type="line"/>
      <point x="779" y="917" type="line"/>
      <point x="779" y="917" type="line"/>
      <point x="778" y="916" type="line"/>
      <point x="778" y="916" type="line"/>
      <point x="777" y="915" type="line"/>
      <point x="777" y="915" type="line"/>
      <point x="776" y="915" type="line"/>
      <point x="776" y="915" type="line"/>
      <point x="775" y="914" type="line"/>
      <point x="772" y="913"/>
      <point x="770" y="912"/>
      <point x="767" y="911" type="curve"/>
      <point x="766" y="910" type="line"/>
      <point x="763" y="909"/>
      <point x="760" y="907"/>
      <point x="757" y="906" type="curve"/>
      <point x="725" y="889"/>
      <point x="672" y="870"/>
      <point x="631" y="870" type="curve" smooth="yes"/>
      <point x="526" y="870"/>
      <point x="478" y="933"/>
      <point x="478" y="1013" type="curve" smooth="yes"/>
      <point x="478" y="1027"/>
      <point x="479" y="1041"/>
      <point x="482" y="1056" type="curve" smooth="yes"/>
      <point x="501" y="1150"/>
      <point x="584" y="1233"/>
      <point x="696" y="1233" type="curve" smooth="yes"/>
      <point x="767" y="1233"/>
      <point x="806" y="1220"/>
    </contour>
  </outline>
</glyph>
<glyph name="logicalnot" format="2">
  <advance width="1300"/>
  <unicode hex="00AC"/>
  <outline>
    <contour>
      <point x="53" y="800" type="line"/>
      <point x="24" y="640" type="line"/>
      <point x="1028" y="640" type="line"/>
      <point x="979" y="449" type="line"/>
      <point x="949" y="280" type="line"/>
      <point x="1149" y="280" type="line"/>
      <point x="1203" y="589" type="line"/>
      <point x="1258" y="800" type="line"/>
    </contour>
  </outline>
</glyph>
<glyph name="uni00B5" format="2">
  <advance width="1300"/>
  <unicode hex="00B5"/>
  <outline>
    <contour>
      <point x="1192" y="150" type="line"/>
      <point x="1161" y="139"/>
      <point x="1130" y="133"/>
      <point x="1098" y="133" type="curve" smooth="yes"/>
      <point x="1040" y="133"/>
      <point x="1014" y="145"/>
      <point x="1014" y="224" type="curve" smooth="yes"/>
      <point x="1014" y="227"/>
      <point x="1014" y="236"/>
      <point x="1015" y="252" type="curve"/>
      <point x="1015" y="268"/>
      <point x="1020" y="301"/>
      <point x="1029" y="352" type="curve" smooth="yes"/>
      <point x="1165" y="1121" type="line"/>
      <point x="982" y="1100" type="line"/>
      <point x="831" y="241" type="line"/>
      <point x="732" y="179"/>
      <point x="668" y="141"/>
      <point x="581" y="133" type="curve"/>
      <point x="573" y="132"/>
      <point x="565" y="132"/>
      <point x="558" y="132" type="curve" smooth="yes"/>
      <point x="509" y="132"/>
      <point x="467" y="147"/>
      <point x="444" y="186" type="curve" smooth="yes"/>
      <point x="420" y="225"/>
      <point x="423" y="263"/>
      <point x="423" y="275" type="curve" smooth="yes"/>
      <point x="423" y="298"/>
      <point x="425" y="322"/>
      <point x="430" y="348" type="curve" smooth="yes"/>
      <point x="567" y="1121" type="line"/>
      <point x="382" y="1100" type="line"/>
      <point x="100" y="-500" type="line"/>
      <point x="280" y="-500" type="line"/>
      <point x="339" y="-166" type="line"/>
      <point x="328" y="25" type="line"/>
      <point x="363" y="-10"/>
      <point x="453" y="-12"/>
      <point x="504" y="-17" type="curve"/>
      <point x="518" y="-18"/>
      <point x="532" y="-19"/>
      <point x="546" y="-19" type="curve" smooth="yes"/>
      <point x="578" y="-19"/>
      <point x="627" y="-15"/>
      <point x="680" y="4" type="curve" smooth="yes"/>
      <point x="732" y="23"/>
      <point x="776" y="53"/>
      <point x="804" y="86" type="curve"/>
      <point x="841" y="155" type="line"/>
      <point x="865" y="46"/>
      <point x="966" y="-17"/>
      <point x="1054" y="-17" type="curve" smooth="yes"/>
      <point x="1121" y="-17"/>
      <point x="1209" y="13"/>
      <point x="1237" y="36" type="curve"/>
    </contour>
  </outline>
</glyph>
<glyph name="periodcentered" format="2">
  <advance width="1300"/>
  <unicode hex="00B7"/>
  <outline>
    <contour>
      <point x="307" y="650" type="curve" smooth="yes"/>
      <point x="305" y="640"/>
      <point x="304" y="630"/>
      <point x="304" y="620" type="curve" smooth="yes"/>
      <point x="304" y="596"/>
      <point x="310" y="563"/>
      <point x="335" y="533" type="curve" smooth="yes"/>
      <point x="359" y="503"/>
      <point x="398" y="483"/>
      <point x="443" y="483" type="curve" smooth="yes"/>
      <point x="533" y="483"/>
      <point x="620" y="559"/>
      <point x="636" y="650" type="curve" smooth="yes"/>
      <point x="638" y="660"/>
      <point x="639" y="669"/>
      <point x="639" y="678" type="curve" smooth="yes"/>
      <point x="639" y="703"/>
      <point x="632" y="737"/>
      <point x="608" y="767" type="curve" smooth="yes"/>
      <point x="583" y="797"/>
      <point x="545" y="815"/>
      <point x="500" y="815" type="curve" smooth="yes"/>
      <point x="409" y="815"/>
      <point x="323" y="741"/>
    </contour>
  </outline>
</glyph>
<glyph name="cedilla" format="2">
  <advance width="1300"/>
  <unicode hex="00B8"/>
  <outline>
    <contour>
      <point x="348" y="0" type="line"/>
      <point x="364" y="-19"/>
      <point x="378" y="-40"/>
      <point x="390" y="-61" type="curve" smooth="yes"/>
      <point x="410" y="-97"/>
      <point x="422" y="-138"/>
      <point x="422" y="-167" type="curve" smooth="yes"/>
      <point x="422" y="-174"/>
      <point x="421" y="-182"/>
      <point x="420" y="-189" type="curve" smooth="yes"/>
      <point x="409" y="-254"/>
      <point x="366" y="-279"/>
      <point x="313" y="-279" type="curve" smooth="yes"/>
      <point x="309" y="-279" type="line" smooth="yes"/>
      <point x="270" y="-279"/>
      <point x="232" y="-263"/>
      <point x="203" y="-248" type="curve" smooth="yes"/>
      <point x="186" y="-239"/>
      <point x="169" y="-229"/>
      <point x="154" y="-218" type="curve"/>
      <point x="65" y="-318" type="line" name=".hr01"/>
      <point x="91" y="-335"/>
      <point x="118" y="-350"/>
      <point x="146" y="-363" type="curve" smooth="yes"/>
      <point x="194" y="-386"/>
      <point x="255" y="-407"/>
      <point x="311" y="-407" type="curve" smooth="yes"/>
      <point x="444" y="-407"/>
      <point x="553" y="-331"/>
      <point x="572" y="-198" type="curve"/>
      <point x="573" y="-186"/>
      <point x="574" y="-174"/>
      <point x="574" y="-162" type="curve" smooth="yes"/>
      <point x="574" y="-135"/>
      <point x="569" y="-95"/>
      <point x="554" y="-59" type="curve"/>
      <point x="546" y="-38"/>
      <point x="536" y="-18"/>
      <point x="524" y="0" type="curve"/>
    </contour>
  </outline>
</glyph>
<glyph name="ordmasculine" format="2">
  <advance width="1300"/>
  <unicode hex="00BA"/>
  <outline>
    <contour>
      <point x="426" y="950" type="curve" smooth="yes"/>
      <point x="613" y="950"/>
      <point x="731" y="1077"/>
      <point x="731" y="1274" type="curve" smooth="yes"/>
      <point x="731" y="1427"/>
      <point x="642" y="1517"/>
      <point x="506" y="1517" type="curve" smooth="yes"/>
      <point x="328" y="1517"/>
      <point x="205" y="1386"/>
      <point x="205" y="1195" type="curve" smooth="yes"/>
      <point x="205" y="1047"/>
      <point x="294" y="950"/>
    </contour>
    <contour>
      <point x="639" y="1270" type="curve" smooth="yes"/>
      <point x="639" y="1153"/>
      <point x="564" y="1028"/>
      <point x="436" y="1028" type="curve" smooth="yes"/>
      <point x="341" y="1028"/>
      <point x="296" y="1098"/>
      <point x="296" y="1199" type="curve" smooth="yes"/>
      <point x="296" y="1316"/>
      <point x="365" y="1440"/>
      <point x="496" y="1440" type="curve" smooth="yes"/>
      <point x="591" y="1440"/>
      <point x="639" y="1370"/>
    </contour>
    <contour>
      <point x="223" y="700" type="line"/>
      <point x="623" y="700" type="line"/>
      <point x="641" y="800" type="line"/>
      <point x="241" y="800" type="line"/>
    </contour>
  </outline>
</glyph>
<glyph name="Aacute" format="2">
  <advance width="1300"/>
  <unicode hex="00C1"/>
  <outline>
    <contour>
      <point x="959" y="600" type="line"/>
      <point x="522" y="600" type="line"/>
      <point x="776" y="1080" type="line"/>
      <point x="877" y="1400" type="line"/>
      <point x="866" y="1080" type="line"/>
    </contour>
    <contour>
      <point x="447" y="450" type="line"/>
      <point x="982" y="450" type="line"/>
      <point x="1050" y="0" type="line"/>
      <point x="1250" y="0" type="line"/>
      <point x="971" y="1520" type="line"/>
      <point x="789" y="1500" type="line"/>
      <point x="719" y="1300" type="line"/>
      <point x="18" y="0" type="line"/>
      <point x="201" y="0" type="line"/>
    </contour>
    <contour>
      <point x="985" y="1600" type="line"/>
      <point x="1282" y="1920" type="line"/>
      <point x="1048" y="1900" type="line"/>
      <point x="835" y="1600" type="line"/>
    </contour>
  </outline>
</glyph>
<glyph name="AE" format="2">
  <advance width="1300"/>
  <unicode hex="00C6"/>
  <outline>
    <contour>
      <point x="662" y="1099" type="line"/>
      <point x="758" y="1340" type="line"/>
      <point x="757" y="1106" type="line"/>
      <point x="669" y="600" type="line"/>
      <point x="415" y="600" type="line"/>
    </contour>
    <contour>
      <point x="831" y="340" type="line"/>
      <point x="902" y="740" type="line"/>
      <point x="1227" y="740" type="line"/>
      <point x="1252" y="885" type="line"/>
      <point x="927" y="885" type="line"/>
      <point x="974" y="1149" type="line"/>
      <point x="986" y="1340" type="line"/>
      <point x="1372" y="1340" type="line"/>
      <point x="1400" y="1500" type="line"/>
      <point x="655" y="1500" type="line"/>
      <point x="575" y="1300" type="line"/>
      <point x="-103" y="0" type="line"/>
      <point x="113" y="0" type="line"/>
      <point x="347" y="450" type="line"/>
      <point x="642" y="450" type="line"/>
      <point x="598" y="200" type="line"/>
      <point x="546" y="0" type="line"/>
      <point x="1252" y="0" type="line"/>
      <point x="1300" y="160" type="line"/>
      <point x="789" y="160" type="line"/>
    </contour>
  </outline>
</glyph>
<glyph name="Edieresis" format="2">
  <advance width="1300"/>
  <unicode hex="00CB"/>
  <outline>
    <contour>
      <point x="290" y="160" type="line"/>
      <point x="332" y="340" type="line"/>
      <point x="403" y="740" type="line"/>
      <point x="1038" y="740" type="line"/>
      <point x="1063" y="885" type="line"/>
      <point x="428" y="885" type="line"/>
      <point x="475" y="1150" type="line"/>
      <point x="489" y="1340" type="line"/>
      <point x="1214" y="1340" type="line"/>
      <point x="1242" y="1500" type="line"/>
      <point x="322" y="1500" type="line"/>
      <point x="315" y="1290" type="line"/>
      <point x="123" y="200" type="line"/>
      <point x="72" y="0" type="line"/>
      <point x="992" y="0" type="line"/>
      <point x="1040" y="160" type="line"/>
    </contour>
    <contour>
      <point x="679" y="1600" type="line"/>
      <point x="879" y="1600" type="line"/>
      <point x="914" y="1800" type="line"/>
      <point x="714" y="1800" type="line"/>
    </contour>
    <contour>
      <point x="1079" y="1600" type="line"/>
      <point x="1279" y="1600" type="line"/>
      <point x="1314" y="1800" type="line"/>
      <point x="1114" y="1800" type="line"/>
    </contour>
  </outline>
</glyph>
<glyph name="Iacute" format="2">
  <advance width="1300"/>
  <unicode hex="00CD"/>
  <outline>
    <contour>
      <point x="290" y="1340" type="line"/>
      <point x="666" y="1340" type="line"/>
      <point x="457" y="160" type="line"/>
      <point x="101" y="160" type="line"/>
      <point x="73" y="0" type="line"/>
      <point x="973" y="0" type="line"/>
      <point x="1021" y="160" type="line"/>
      <point x="643" y="160" type="line"/>
      <point x="852" y="1340" type="line"/>
      <point x="1210" y="1340" type="line"/>
      <point x="1238" y="1500" type="line"/>
      <point x="338" y="1500" type="line"/>
    </contour>
    <contour>
      <point x="681" y="1600" type="line"/>
      <point x="831" y="1600" type="line"/>
      <point x="1128" y="1920" type="line"/>
      <point x="894" y="1900" type="line"/>
    </contour>
  </outline>
</glyph>
<glyph name="Icircumflex" format="2">
  <advance width="1300"/>
  <unicode hex="00CE"/>
  <outline>
    <contour>
      <point x="290" y="1340" type="line"/>
      <point x="666" y="1340" type="line"/>
      <point x="457" y="160" type="line"/>
      <point x="101" y="160" type="line"/>
      <point x="73" y="0" type="line"/>
      <point x="973" y="0" type="line"/>
      <point x="1021" y="160" type="line"/>
      <point x="643" y="160" type="line"/>
      <point x="852" y="1340" type="line"/>
      <point x="1210" y="1340" type="line"/>
      <point x="1238" y="1500" type="line"/>
      <point x="338" y="1500" type="line"/>
    </contour>
    <contour>
      <point x="1010" y="1920" type="line"/>
      <point x="806" y="1900" type="line"/>
      <point x="581" y="1620" type="line"/>
      <point x="731" y="1620" type="line"/>
      <point x="859" y="1773" type="line"/>
      <point x="904" y="1860" type="line"/>
      <point x="918" y="1772" type="line"/>
      <point x="992" y="1620" type="line"/>
      <point x="1142" y="1620" type="line"/>
    </contour>
  </outline>
</glyph>
<glyph name="Eth" format="2">
  <advance width="1300"/>
  <unicode hex="00D0"/>
  <outline>
    <contour>
      <point x="23" y="701" type="line"/>
      <point x="183" y="701" type="line"/>
      <point x="60" y="0" type="line"/>
      <point x="336" y="0" type="line" smooth="yes"/>
      <point x="801" y="0"/>
      <point x="1228" y="290"/>
      <point x="1228" y="933" type="curve" smooth="yes"/>
      <point x="1228" y="1348"/>
      <point x="998" y="1511"/>
      <point x="611" y="1511" type="curve" smooth="yes"/>
      <point x="523" y="1511"/>
      <point x="377" y="1508"/>
      <point x="294" y="1500" type="curve"/>
      <point x="287" y="1290" type="line"/>
      <point x="211" y="856" type="line"/>
      <point x="50" y="856" type="line"/>
    </contour>
    <contour>
      <point x="473" y="1350" type="line"/>
      <point x="474" y="1350" type="line"/>
      <point x="476" y="1350"/>
      <point x="478" y="1350"/>
      <point x="481" y="1351" type="curve"/>
      <point x="482" y="1351" type="line"/>
      <point x="484" y="1351"/>
      <point x="486" y="1351"/>
      <point x="488" y="1352" type="curve"/>
      <point x="489" y="1352" type="line"/>
      <point x="494" y="1352"/>
      <point x="498" y="1352"/>
      <point x="503" y="1353" type="curve"/>
      <point x="505" y="1353" type="line"/>
      <point x="507" y="1354"/>
      <point x="509" y="1354"/>
      <point x="511" y="1354" type="curve"/>
      <point x="534" y="1357"/>
      <point x="559" y="1358"/>
      <point x="580" y="1358" type="curve" smooth="yes"/>
      <point x="929" y="1358"/>
      <point x="1039" y="1187"/>
      <point x="1039" y="946" type="curve" smooth="yes"/>
      <point x="1039" y="581"/>
      <point x="882" y="160"/>
      <point x="308" y="160" type="curve" smooth="yes"/>
      <point x="288" y="160" type="line"/>
      <point x="323" y="359"/>
      <point x="351" y="519"/>
      <point x="374" y="650" type="curve" smooth="yes"/>
      <point x="383" y="701" type="line"/>
      <point x="622" y="701" type="line"/>
      <point x="649" y="856" type="line"/>
      <point x="410" y="856" type="line"/>
      <point x="416" y="892"/>
      <point x="422" y="924"/>
      <point x="427" y="953" type="curve" smooth="yes"/>
      <point x="442" y="1040"/>
      <point x="454" y="1105"/>
      <point x="462" y="1150" type="curve"/>
    </contour>
  </outline>
</glyph>
<glyph name="Ugrave" format="2">
  <advance width="1300"/>
  <unicode hex="00D9"/>
  <outline>
    <contour>
      <point x="841" y="1920" type="line"/>
      <point x="633" y="1900" type="line"/>
      <point x="805" y="1600" type="line"/>
      <point x="955" y="1600" type="line"/>
    </contour>
    <contour>
      <point x="1036" y="1500" type="line"/>
      <point x="861" y="504" type="line" smooth="yes"/>
      <point x="820" y="269"/>
      <point x="715" y="153"/>
      <point x="519" y="153" type="curve" smooth="yes"/>
      <point x="435" y="153"/>
      <point x="375" y="190"/>
      <point x="340" y="259" type="curve" smooth="yes"/>
      <point x="323" y="293"/>
      <point x="313" y="326"/>
      <point x="311" y="357" type="curve"/>
      <point x="308" y="388"/>
      <point x="307" y="409"/>
      <point x="307" y="422" type="curve" smooth="yes"/>
      <point x="307" y="462"/>
      <point x="311" y="506"/>
      <point x="320" y="554" type="curve" smooth="yes"/>
      <point x="490" y="1520" type="line"/>
      <point x="266" y="1500" type="line"/>
      <point x="259" y="1290" type="line"/>
      <point x="133" y="573" type="line" smooth="yes"/>
      <point x="120" y="502"/>
      <point x="114" y="436"/>
      <point x="114" y="375" type="curve" smooth="yes"/>
      <point x="114" y="360"/>
      <point x="115" y="331"/>
      <point x="118" y="288" type="curve" smooth="yes"/>
      <point x="120" y="245"/>
      <point x="135" y="197"/>
      <point x="162" y="146" type="curve" smooth="yes"/>
      <point x="216" y="42"/>
      <point x="316" y="-17"/>
      <point x="479" y="-17" type="curve" smooth="yes"/>
      <point x="783" y="-17"/>
      <point x="990" y="160"/>
      <point x="1054" y="523" type="curve" smooth="yes"/>
      <point x="1226" y="1500" type="line"/>
    </contour>
  </outline>
</glyph>
<glyph name="Udieresis" format="2">
  <advance width="1300"/>
  <unicode hex="00DC"/>
  <outline>
    <contour>
      <point x="460" y="1600" type="line"/>
      <point x="660" y="1600" type="line"/>
      <point x="695" y="1800" type="line"/>
      <point x="495" y="1800" type="line"/>
    </contour>
    <contour>
      <point x="860" y="1600" type="line"/>
      <point x="1060" y="1600" type="line"/>
      <point x="1095" y="1800" type="line"/>
      <point x="895" y="1800" type="line"/>
    </contour>
    <contour>
      <point x="1036" y="1500" type="line"/>
      <point x="861" y="504" type="line" smooth="yes"/>
      <point x="820" y="269"/>
      <point x="715" y="153"/>
      <point x="519" y="153" type="curve" smooth="yes"/>
      <point x="435" y="153"/>
      <point x="375" y="190"/>
      <point x="340" y="259" type="curve" smooth="yes"/>
      <point x="323" y="293"/>
      <point x="313" y="326"/>
      <point x="311" y="357" type="curve"/>
      <point x="308" y="388"/>
      <point x="307" y="409"/>
      <point x="307" y="422" type="curve" smooth="yes"/>
      <point x="307" y="462"/>
      <point x="311" y="506"/>
      <point x="320" y="554" type="curve" smooth="yes"/>
      <point x="490" y="1520" type="line"/>
      <point x="266" y="1500" type="line"/>
      <point x="259" y="1290" type="line"/>
      <point x="133" y="573" type="line" smooth="yes"/>
      <point x="120" y="502"/>
      <point x="114" y="436"/>
      <point x="114" y="375" type="curve" smooth="yes"/>
      <point x="114" y="360"/>
      <point x="115" y="331"/>
      <point x="118" y="288" type="curve" smooth="yes"/>
      <point x="120" y="245"/>
      <point x="135" y="197"/>
      <point x="162" y="146" type="curve" smooth="yes"/>
      <point x="216" y="42"/>
      <point x="316" y="-17"/>
      <point x="479" y="-17" type="curve" smooth="yes"/>
      <point x="783" y="-17"/>
      <point x="990" y="160"/>
      <point x="1054" y="523" type="curve" smooth="yes"/>
      <point x="1226" y="1500" type="line"/>
    </contour>
  </outline>
</glyph>
<glyph name="ae" format="2">
  <advance width="1300"/>
  <unicode hex="00E6"/>
  <outline>
    <contour>
      <point x="1262" y="650" type="curve" smooth="yes"/>
      <point x="1275" y="721"/>
      <point x="1281" y="784"/>
      <point x="1281" y="839" type="curve" smooth="yes"/>
      <point x="1281" y="843"/>
      <point x="1281" y="861"/>
      <point x="1280" y="892" type="curve" smooth="yes"/>
      <point x="1279" y="923"/>
      <point x="1269" y="959"/>
      <point x="1250" y="998" type="curve" smooth="yes"/>
      <point x="1211" y="1077"/>
      <point x="1133" y="1117"/>
      <point x="1004" y="1117" type="curve" smooth="yes"/>
      <point x="858" y="1117"/>
      <point x="760" y="1044"/>
      <point x="720" y="962" type="curve"/>
      <point x="709" y="1045"/>
      <point x="663" y="1117"/>
      <point x="549" y="1117" type="curve" smooth="yes"/>
      <point x="462" y="1117"/>
      <point x="384" y="1099"/>
      <point x="324" y="1080" type="curve" smooth="yes"/>
      <point x="289" y="1069"/>
      <point x="257" y="1057"/>
      <point x="227" y="1044" type="curve"/>
      <point x="279" y="900" type="line"/>
      <point x="297" y="911"/>
      <point x="316" y="920"/>
      <point x="337" y="928" type="curve"/>
      <point x="372" y="943"/>
      <point x="417" y="957"/>
      <point x="461" y="957" type="curve" smooth="yes"/>
      <point x="558" y="957"/>
      <point x="562" y="895"/>
      <point x="562" y="856" type="curve" smooth="yes"/>
      <point x="562" y="828"/>
      <point x="555" y="784"/>
      <point x="542" y="705" type="curve" smooth="yes"/>
      <point x="536" y="670" type="line"/>
      <point x="527" y="677"/>
      <point x="515" y="684"/>
      <point x="501" y="690" type="curve" smooth="yes"/>
      <point x="477" y="701"/>
      <point x="439" y="710" name=".hr01"/>
      <point x="388" y="710" type="curve" smooth="yes"/>
      <point x="204" y="710"/>
      <point x="60" y="591"/>
      <point x="18" y="344" type="curve" smooth="yes"/>
      <point x="13" y="313"/>
      <point x="10" y="285"/>
      <point x="10" y="258" type="curve" smooth="yes"/>
      <point x="10" y="209"/>
      <point x="19" y="136"/>
      <point x="67" y="76" type="curve" smooth="yes"/>
      <point x="115" y="15"/>
      <point x="190" y="-17"/>
      <point x="281" y="-17" type="curve" smooth="yes"/>
      <point x="438" y="-17"/>
      <point x="510" y="77"/>
      <point x="574" y="189" type="curve"/>
      <point x="587" y="77"/>
      <point x="682" y="-17"/>
      <point x="823" y="-17" type="curve" smooth="yes"/>
      <point x="1002" y="-17"/>
      <point x="1081" y="49"/>
      <point x="1161" y="129" type="curve"/>
      <point x="1049" y="225" type="line"/>
      <point x="1028" y="201"/>
      <point x="955" y="143"/>
      <point x="853" y="143" type="curve" smooth="yes"/>
      <point x="734" y="143"/>
      <point x="699" y="300"/>
      <point x="736" y="500" type="curve" name=".hr02"/>
      <point x="1216" y="500" type="line"/>
      <point x="1232" y="526"/>
      <point x="1254" y="601"/>
    </contour>
    <contour>
      <point x="1084" y="650" type="line"/>
      <point x="814" y="650" type="line"/>
      <point x="687" y="623" type="line"/>
      <point x="776" y="732" type="line"/>
      <point x="795" y="844"/>
      <point x="872" y="957"/>
      <point x="1002" y="957" type="curve" smooth="yes"/>
      <point x="1093" y="957"/>
      <point x="1110" y="895"/>
      <point x="1110" y="838" type="curve" smooth="yes"/>
      <point x="1110" y="825"/>
      <point x="1109" y="791"/>
      <point x="1098" y="730" type="curve" smooth="yes"/>
    </contour>
    <contour>
      <point x="466" y="274" type="line"/>
      <point x="457" y="249"/>
      <point x="445" y="227"/>
      <point x="431" y="208" type="curve" smooth="yes"/>
      <point x="407" y="175"/>
      <point x="370" y="143"/>
      <point x="317" y="143" type="curve" smooth="yes"/>
      <point x="262" y="143"/>
      <point x="227" y="163"/>
      <point x="208" y="199" type="curve" smooth="yes"/>
      <point x="189" y="235"/>
      <point x="192" y="267"/>
      <point x="192" y="278" type="curve" smooth="yes"/>
      <point x="192" y="299"/>
      <point x="194" y="321"/>
      <point x="198" y="345" type="curve" smooth="yes"/>
      <point x="225" y="494"/>
      <point x="302" y="550"/>
      <point x="426" y="550" type="curve" smooth="yes" name=".hr03"/>
      <point x="457" y="550"/>
      <point x="478" y="545"/>
      <point x="493" y="541" type="curve"/>
      <point x="501" y="538"/>
      <point x="507" y="536"/>
      <point x="512" y="533" type="curve"/>
    </contour>
  </outline>
</glyph>
<glyph name="ccedilla" format="2">
  <advance width="1300"/>
  <unicode hex="00E7"/>
  <outline>
    <contour>
      <point x="1162" y="1000" type="line"/>
      <point x="1078" y="1080"/>
      <point x="967" y="1117"/>
      <point x="804" y="1117" type="curve" smooth="yes"/>
      <point x="460" y="1117"/>
      <point x="201" y="854"/>
      <point x="153" y="577" type="curve" smooth="yes"/>
      <point x="146" y="538"/>
      <point x="143" y="501"/>
      <point x="143" y="464" type="curve" smooth="yes"/>
      <point x="143" y="266"/>
      <point x="237" y="97"/>
      <point x="405" y="22" type="curve"/>
      <point x="432" y="9"/>
      <point x="462" y="0"/>
      <point x="494" y="-7" type="curve"/>
      <point x="507" y="-24"/>
      <point x="519" y="-42"/>
      <point x="530" y="-61" type="curve" smooth="yes"/>
      <point x="550" y="-97"/>
      <point x="562" y="-138"/>
      <point x="562" y="-167" type="curve" smooth="yes"/>
      <point x="562" y="-174"/>
      <point x="561" y="-182"/>
      <point x="560" y="-189" type="curve" smooth="yes"/>
      <point x="549" y="-254"/>
      <point x="506" y="-279"/>
      <point x="453" y="-279" type="curve" smooth="yes"/>
      <point x="449" y="-279" type="line" smooth="yes"/>
      <point x="410" y="-279"/>
      <point x="372" y="-263"/>
      <point x="343" y="-248" type="curve" smooth="yes"/>
      <point x="326" y="-239"/>
      <point x="309" y="-229"/>
      <point x="294" y="-218" type="curve"/>
      <point x="205" y="-318" type="line"/>
      <point x="231" y="-335"/>
      <point x="258" y="-350"/>
      <point x="286" y="-363" type="curve" smooth="yes"/>
      <point x="334" y="-386"/>
      <point x="395" y="-407"/>
      <point x="451" y="-407" type="curve" smooth="yes"/>
      <point x="584" y="-407"/>
      <point x="693" y="-331"/>
      <point x="712" y="-198" type="curve"/>
      <point x="713" y="-186"/>
      <point x="714" y="-174"/>
      <point x="714" y="-162" type="curve" smooth="yes"/>
      <point x="714" y="-135"/>
      <point x="709" y="-95"/>
      <point x="694" y="-59" type="curve"/>
      <point x="688" y="-42"/>
      <point x="681" y="-27"/>
      <point x="672" y="-12" type="curve"/>
      <point x="687" y="-10"/>
      <point x="703" y="-8"/>
      <point x="719" y="-5" type="curve"/>
      <point x="834" y="21"/>
      <point x="939" y="71"/>
      <point x="999" y="115" type="curve"/>
      <point x="946" y="258" type="line"/>
      <point x="901" y="232"/>
      <point x="755" y="152"/>
      <point x="643" y="152" type="curve" smooth="yes"/>
      <point x="434" y="152"/>
      <point x="337" y="292"/>
      <point x="337" y="469" type="curve" smooth="yes"/>
      <point x="337" y="500"/>
      <point x="340" y="532"/>
      <point x="346" y="564" type="curve" smooth="yes"/>
      <point x="383" y="776"/>
      <point x="550" y="957"/>
      <point x="774" y="957" type="curve" smooth="yes"/>
      <point x="914" y="957"/>
      <point x="994" y="928"/>
      <point x="1043" y="885" type="curve"/>
    </contour>
  </outline>
</glyph>
<glyph name="ecircumflex" format="2">
  <advance width="1300"/>
  <unicode hex="00EA"/>
  <outline>
    <contour>
      <point x="919" y="1520" type="line"/>
      <point x="715" y="1500" type="line"/>
      <point x="490" y="1220" type="line"/>
      <point x="640" y="1220" type="line"/>
      <point x="768" y="1373" type="line"/>
      <point x="813" y="1460" type="line"/>
      <point x="827" y="1372" type="line"/>
      <point x="901" y="1220" type="line"/>
      <point x="1051" y="1220" type="line"/>
    </contour>
    <contour>
      <point x="925" y="245" type="line"/>
      <point x="874" y="210"/>
      <point x="741" y="133"/>
      <point x="570" y="133" type="curve" smooth="yes"/>
      <point x="430" y="133"/>
      <point x="297" y="249"/>
      <point x="297" y="415" type="curve" smooth="yes"/>
      <point x="297" y="442"/>
      <point x="300" y="469"/>
      <point x="308" y="500" type="curve"/>
      <point x="1089" y="500" type="line"/>
      <point x="1095" y="513"/>
      <point x="1101" y="528"/>
      <point x="1107" y="543" type="curve" smooth="yes"/>
      <point x="1118" y="570"/>
      <point x="1128" y="605"/>
      <point x="1135" y="646" type="curve" smooth="yes"/>
      <point x="1140" y="673"/>
      <point x="1142" y="701"/>
      <point x="1142" y="729" type="curve" smooth="yes"/>
      <point x="1142" y="961"/>
      <point x="993" y="1117"/>
      <point x="726" y="1117" type="curve" smooth="yes"/>
      <point x="385" y="1117"/>
      <point x="170" y="844"/>
      <point x="134" y="550" type="curve" smooth="yes"/>
      <point x="130" y="518"/>
      <point x="128" y="486"/>
      <point x="128" y="455" type="curve" smooth="yes"/>
      <point x="128" y="204"/>
      <point x="252" y="-17"/>
      <point x="552" y="-17" type="curve" smooth="yes"/>
      <point x="772" y="-17"/>
      <point x="934" y="67"/>
      <point x="1017" y="139" type="curve"/>
    </contour>
    <contour>
      <point x="479" y="650" type="line"/>
      <point x="286" y="623" type="line"/>
      <point x="368" y="732" type="line"/>
      <point x="422" y="850"/>
      <point x="539" y="958"/>
      <point x="713" y="958" type="curve" smooth="yes"/>
      <point x="926" y="958"/>
      <point x="975" y="848"/>
      <point x="975" y="752" type="curve" smooth="yes"/>
      <point x="975" y="729"/>
      <point x="965" y="659"/>
      <point x="959" y="650" type="curve"/>
    </contour>
  </outline>
</glyph>
<glyph name="igrave" format="2">
  <advance width="1300"/>
  <unicode hex="00EC"/>
  <outline>
    <contour>
      <point x="756" y="1100" type="line"/>
      <point x="250" y="1100" type="line"/>
      <point x="250" y="955" type="line"/>
      <point x="489" y="955" type="line"/>
      <point x="544" y="977" type="line"/>
      <point x="443" y="403" type="line" smooth="yes"/>
      <point x="401" y="165"/>
      <point x="418" y="-17"/>
      <point x="679" y="-17" type="curve" smooth="yes"/>
      <point x="855" y="-17"/>
      <point x="995" y="48"/>
      <point x="1012" y="56" type="curve"/>
      <point x="1000" y="210" type="line"/>
      <point x="984" y="205"/>
      <point x="851" y="153"/>
      <point x="719" y="153" type="curve" smooth="yes"/>
      <point x="620" y="153"/>
      <point x="607" y="254"/>
      <point x="631" y="393" type="curve" smooth="yes"/>
    </contour>
    <contour>
      <point x="658" y="1520" type="line"/>
      <point x="450" y="1500" type="line"/>
      <point x="622" y="1200" type="line"/>
      <point x="772" y="1200" type="line"/>
    </contour>
  </outline>
</glyph>
<glyph name="eth" format="2">
  <advance width="1300"/>
  <unicode hex="00F0"/>
  <outline>
    <contour>
      <point x="622" y="1053" type="line"/>
      <point x="814" y="1194" type="line"/>
      <point x="921" y="1100"/>
      <point x="964" y="921"/>
      <point x="964" y="746" type="curve" smooth="yes"/>
      <point x="964" y="730" type="line"/>
      <point x="902" y="847" type="line"/>
      <point x="819" y="898"/>
      <point x="739" y="916"/>
      <point x="650" y="927" type="curve" smooth="yes"/>
      <point x="633" y="929"/>
      <point x="616" y="930"/>
      <point x="599" y="930" type="curve" smooth="yes"/>
      <point x="574" y="930"/>
      <point x="545" y="927"/>
      <point x="512" y="922" type="curve" smooth="yes"/>
      <point x="445" y="911"/>
      <point x="364" y="876"/>
      <point x="297" y="822" type="curve" smooth="yes"/>
      <point x="198" y="742"/>
      <point x="128" y="619"/>
      <point x="128" y="469" type="curve" smooth="yes"/>
      <point x="128" y="457" type="line" smooth="yes"/>
      <point x="128" y="169"/>
      <point x="216" y="12"/>
      <point x="506" y="-20" type="curve" smooth="yes"/>
      <point x="523" y="-22"/>
      <point x="539" y="-23"/>
      <point x="555" y="-23" type="curve" smooth="yes"/>
      <point x="598" y="-23"/>
      <point x="643" y="-15"/>
      <point x="690" y="1" type="curve" smooth="yes"/>
      <point x="782" y="32"/>
      <point x="876" y="106"/>
      <point x="946" y="199" type="curve" smooth="yes"/>
      <point x="1050" y="338"/>
      <point x="1111" y="504"/>
      <point x="1119" y="620" type="curve" smooth="yes"/>
      <point x="1122" y="661"/>
      <point x="1123" y="700"/>
      <point x="1123" y="739" type="curve" smooth="yes"/>
      <point x="1123" y="817"/>
      <point x="1116" y="901"/>
      <point x="1103" y="990" type="curve" smooth="yes"/>
      <point x="1090" y="1079"/>
      <point x="1059" y="1168"/>
      <point x="1010" y="1255" type="curve"/>
      <point x="892" y="1252" type="line"/>
      <point x="1104" y="1407" type="line"/>
      <point x="1027" y="1522" type="line"/>
      <point x="868" y="1405" type="line"/>
      <point x="769" y="1478"/>
      <point x="648" y="1520"/>
      <point x="501" y="1520" type="curve"/>
      <point x="500" y="1520" type="line"/>
      <point x="495" y="1520" type="line"/>
      <point x="493" y="1520" type="line"/>
      <point x="490" y="1520" type="line"/>
      <point x="487" y="1520" type="line"/>
      <point x="486" y="1520" type="line"/>
      <point x="485" y="1520" type="line"/>
      <point x="484" y="1520" type="line"/>
      <point x="471" y="1520" type="line" smooth="yes"/>
      <point x="461" y="1520"/>
      <point x="450" y="1519"/>
      <point x="439" y="1518" type="curve"/>
      <point x="439" y="1375" type="line"/>
      <point x="443" y="1376"/>
      <point x="457" y="1378"/>
      <point x="474" y="1378" type="curve" smooth="yes"/>
      <point x="546" y="1378"/>
      <point x="606" y="1361"/>
      <point x="666" y="1326" type="curve"/>
      <point x="789" y="1347" type="line"/>
      <point x="545" y="1168" type="line"/>
    </contour>
    <contour>
      <point x="921" y="607" type="curve"/>
      <point x="909" y="542"/>
      <point x="895" y="487"/>
      <point x="871" y="412" type="curve"/>
      <point x="844" y="332"/>
      <point x="801" y="257"/>
      <point x="743" y="206" type="curve" smooth="yes"/>
      <point x="685" y="154"/>
      <point x="625" y="136"/>
      <point x="574" y="136" type="curve" smooth="yes"/>
      <point x="561" y="136"/>
      <point x="547" y="137"/>
      <point x="533" y="140" type="curve"/>
      <point x="380" y="167"/>
      <point x="305" y="267"/>
      <point x="305" y="430" type="curve" smooth="yes"/>
      <point x="305" y="451" type="line"/>
      <point x="309" y="542"/>
      <point x="344" y="627"/>
      <point x="402" y="687" type="curve" smooth="yes"/>
      <point x="460" y="746"/>
      <point x="531" y="770"/>
      <point x="594" y="770" type="curve" smooth="yes"/>
      <point x="608" y="770"/>
      <point x="622" y="769"/>
      <point x="637" y="767" type="curve" smooth="yes"/>
      <point x="759" y="751"/>
      <point x="871" y="668"/>
    </contour>
  </outline>
</glyph>
<glyph name="odieresis" format="2">
  <advance width="1300"/>
  <unicode hex="00F6"/>
  <outline>
    <contour>
      <point x="479" y="1300" type="line"/>
      <point x="679" y="1300" type="line"/>
      <point x="714" y="1500" type="line"/>
      <point x="514" y="1500" type="line"/>
    </contour>
    <contour>
      <point x="879" y="1300" type="line"/>
      <point x="1079" y="1300" type="line"/>
      <point x="1114" y="1500" type="line"/>
      <point x="914" y="1500" type="line"/>
    </contour>
    <contour>
      <point x="567" y="-17" type="curve" smooth="yes"/>
      <point x="942" y="-17"/>
      <point x="1176" y="234"/>
      <point x="1176" y="631" type="curve" smooth="yes"/>
      <point x="1176" y="936"/>
      <point x="998" y="1117"/>
      <point x="726" y="1117" type="curve" smooth="yes"/>
      <point x="372" y="1117"/>
      <point x="124" y="854"/>
      <point x="124" y="473" type="curve" smooth="yes"/>
      <point x="124" y="177"/>
      <point x="303" y="-17"/>
    </contour>
    <contour>
      <point x="993" y="622" type="curve" smooth="yes"/>
      <point x="993" y="389"/>
      <point x="841" y="138"/>
      <point x="586" y="138" type="curve" smooth="yes"/>
      <point x="397" y="138"/>
      <point x="307" y="279"/>
      <point x="307" y="480" type="curve" smooth="yes"/>
      <point x="307" y="715"/>
      <point x="446" y="963"/>
      <point x="706" y="963" type="curve" smooth="yes"/>
      <point x="897" y="963"/>
      <point x="993" y="822"/>
    </contour>
  </outline>
</glyph>
<glyph name="udieresis" format="2">
  <advance width="1300"/>
  <unicode hex="00FC"/>
  <outline>
    <contour>
      <point x="483" y="1300" type="line"/>
      <point x="683" y="1300" type="line"/>
      <point x="718" y="1500" type="line"/>
      <point x="518" y="1500" type="line"/>
    </contour>
    <contour>
      <point x="883" y="1300" type="line"/>
      <point x="1083" y="1300" type="line"/>
      <point x="1118" y="1500" type="line"/>
      <point x="918" y="1500" type="line"/>
    </contour>
    <contour>
      <point x="819" y="258" type="line"/>
      <point x="747" y="202"/>
      <point x="675" y="143"/>
      <point x="498" y="143" type="curve" smooth="yes"/>
      <point x="364" y="143"/>
      <point x="312" y="219"/>
      <point x="312" y="326" type="curve" smooth="yes"/>
      <point x="312" y="350"/>
      <point x="314" y="374"/>
      <point x="319" y="401" type="curve" smooth="yes"/>
      <point x="451" y="1121" type="line"/>
      <point x="257" y="1100" type="line"/>
      <point x="129" y="401" type="line" smooth="yes"/>
      <point x="124" y="373"/>
      <point x="122" y="345"/>
      <point x="122" y="318" type="curve" smooth="yes"/>
      <point x="122" y="131"/>
      <point x="241" y="-17"/>
      <point x="425" y="-17" type="curve" smooth="yes"/>
      <point x="614" y="-17"/>
      <point x="658" y="19"/>
      <point x="722" y="56" type="curve"/>
      <point x="802" y="163" type="line"/>
      <point x="773" y="0" type="line" name=".hr01"/>
      <point x="963" y="0" type="line"/>
      <point x="1161" y="1121" type="line"/>
      <point x="967" y="1100" type="line"/>
    </contour>
  </outline>
</glyph>
<glyph name="thorn" format="2">
  <advance width="1300"/>
  <unicode hex="00FE"/>
  <outline>
    <contour>
      <point x="657" y="-17" type="curve" smooth="yes"/>
      <point x="1032" y="-17"/>
      <point x="1266" y="234"/>
      <point x="1266" y="631" type="curve" smooth="yes"/>
      <point x="1266" y="936"/>
      <point x="1088" y="1117"/>
      <point x="816" y="1117" type="curve" smooth="yes"/>
      <point x="727" y="1117"/>
      <point x="646" y="1101"/>
      <point x="573" y="1070" type="curve" smooth="yes"/>
      <point x="540" y="1056"/>
      <point x="509" y="1039"/>
      <point x="480" y="1020" type="curve"/>
      <point x="568" y="1520" type="line"/>
      <point x="370" y="1500" type="line"/>
      <point x="35" y="-400" type="line"/>
      <point x="229" y="-400" type="line"/>
      <point x="323" y="133" type="line"/>
      <point x="328" y="128"/>
      <point x="332" y="122"/>
      <point x="337" y="117" type="curve"/>
      <point x="414" y="32"/>
      <point x="525" y="-17"/>
    </contour>
    <contour>
      <point x="1083" y="622" type="curve" smooth="yes"/>
      <point x="1083" y="389"/>
      <point x="931" y="138"/>
      <point x="676" y="138" type="curve" smooth="yes"/>
      <point x="487" y="138"/>
      <point x="397" y="279"/>
      <point x="397" y="480" type="curve" smooth="yes"/>
      <point x="397" y="715"/>
      <point x="536" y="963"/>
      <point x="796" y="963" type="curve" smooth="yes"/>
      <point x="987" y="963"/>
      <point x="1083" y="822"/>
    </contour>
  </outline>
</glyph>
<glyph name="ydieresis" format="2">
  <advance width="1300"/>
  <unicode hex="00FF"/>
  <outline>
    <contour>
      <point x="500" y="1300" type="line"/>
      <point x="700" y="1300" type="line"/>
      <point x="735" y="1500" type="line"/>
      <point x="535" y="1500" type="line"/>
    </contour>
    <contour>
      <point x="900" y="1300" type="line"/>
      <point x="1100" y="1300" type="line"/>
      <point x="1135" y="1500" type="line"/>
      <point x="935" y="1500" type="line"/>
    </contour>
    <contour>
      <point x="573" y="132" type="line"/>
      <point x="562" y="364" type="line"/>
      <point x="535" y="505"/>
      <point x="512" y="631"/>
      <point x="491" y="742" type="curve" smooth="yes"/>
      <point x="472" y="837"/>
      <point x="455" y="930"/>
      <point x="442" y="1002" type="curve" smooth="yes"/>
      <point x="435" y="1043"/>
      <point x="427" y="1083"/>
      <point x="420" y="1121" type="curve"/>
      <point x="247" y="1100" type="line"/>
      <point x="462" y="-47" type="line"/>
      <point x="334" y="-260"/>
      <point x="292" y="-328"/>
      <point x="196" y="-328" type="curve" smooth="yes"/>
      <point x="192" y="-328" type="line"/>
      <point x="160" y="-327"/>
      <point x="119" y="-312"/>
      <point x="100" y="-296" type="curve"/>
      <point x="8" y="-403" type="line"/>
      <point x="55" y="-451"/>
      <point x="113" y="-480"/>
      <point x="200" y="-480" type="curve" smooth="yes"/>
      <point x="204" y="-480" type="line" smooth="yes"/>
      <point x="390" y="-480"/>
      <point x="474" y="-333"/>
      <point x="644" y="-17" type="curve" smooth="yes"/>
      <point x="1257" y="1121" type="line"/>
      <point x="1064" y="1100" type="line"/>
      <point x="666" y="364" type="line"/>
    </contour>
  </outline>
</glyph>
<glyph name="OE" format="2">
  <advance width="1300"/>
  <unicode hex="0152"/>
  <outline>
    <contour>
      <point x="565" y="70" type="line"/>
      <point x="542" y="0" type="line"/>
      <point x="1182" y="0" type="line"/>
      <point x="1230" y="160" type="line"/>
      <point x="790" y="160" type="line"/>
      <point x="832" y="340" type="line"/>
      <point x="903" y="740" type="line"/>
      <point x="1228" y="740" type="line"/>
      <point x="1253" y="885" type="line"/>
      <point x="928" y="885" type="line"/>
      <point x="975" y="1150" type="line"/>
      <point x="989" y="1340" type="line"/>
      <point x="1404" y="1340" type="line"/>
      <point x="1432" y="1500" type="line"/>
      <point x="807" y="1500" type="line"/>
      <point x="804" y="1430" type="line"/>
      <point x="690" y="1517" type="line" name=".hr01"/>
      <point x="385" y="1517"/>
      <point x="125" y="1299"/>
      <point x="29" y="750" type="curve" smooth="yes"/>
      <point x="12" y="650"/>
      <point x="3" y="561"/>
      <point x="3" y="482" type="curve" smooth="yes"/>
      <point x="3" y="453"/>
      <point x="6" y="407"/>
      <point x="12" y="345" type="curve" smooth="yes"/>
      <point x="17" y="283"/>
      <point x="38" y="221"/>
      <point x="74" y="160" type="curve" smooth="yes"/>
      <point x="145" y="37"/>
      <point x="267" y="-17" name=".hr02"/>
      <point x="419" y="-17" type="curve"/>
    </contour>
    <contour>
      <point x="596" y="190" type="line"/>
      <point x="543" y="158"/>
      <point x="508" y="153"/>
      <point x="455" y="153" type="curve" smooth="yes"/>
      <point x="244" y="153"/>
      <point x="166" y="350"/>
      <point x="243" y="785" type="curve" smooth="yes"/>
      <point x="307" y="1152"/>
      <point x="454" y="1347"/>
      <point x="654" y="1347" type="curve" smooth="yes"/>
      <point x="710" y="1347"/>
      <point x="761" y="1332"/>
      <point x="792" y="1305" type="curve"/>
    </contour>
  </outline>
</glyph>
<glyph name="caron" format="2">
  <advance width="1300"/>
  <unicode hex="02C7"/>
  <outline>
    <contour>
      <point x="1118" y="1520" type="line"/>
      <point x="968" y="1520" type="line"/>
      <point x="834" y="1388" type="line"/>
      <point x="800" y="1310" type="line"/>
      <point x="794" y="1387" type="line"/>
      <point x="707" y="1520" type="line"/>
      <point x="557" y="1520" type="line"/>
      <point x="683" y="1240" type="line"/>
      <point x="880" y="1220" type="line"/>
    </contour>
  </outline>
</glyph>
<glyph name="ogonek" format="2">
  <advance width="1300"/>
  <unicode hex="02DB"/>
  <outline>
    <contour>
      <point x="376" y="0" type="line"/>
      <point x="364" y="-18"/>
      <point x="354" y="-38"/>
      <point x="346" y="-59" type="curve"/>
      <point x="331" y="-95"/>
      <point x="326" y="-135"/>
      <point x="326" y="-162" type="curve" smooth="yes"/>
      <point x="326" y="-174"/>
      <point x="327" y="-186"/>
      <point x="328" y="-198" type="curve"/>
      <point x="347" y="-331"/>
      <point x="456" y="-407"/>
      <point x="589" y="-407" type="curve" smooth="yes"/>
      <point x="645" y="-407"/>
      <point x="706" y="-386"/>
      <point x="754" y="-363" type="curve" smooth="yes"/>
      <point x="782" y="-350"/>
      <point x="809" y="-335"/>
      <point x="835" y="-318" type="curve"/>
      <point x="746" y="-218" type="line"/>
      <point x="731" y="-229"/>
      <point x="714" y="-239"/>
      <point x="697" y="-248" type="curve" smooth="yes"/>
      <point x="668" y="-263"/>
      <point x="630" y="-279"/>
      <point x="591" y="-279" type="curve" smooth="yes"/>
      <point x="587" y="-279" type="line" smooth="yes"/>
      <point x="534" y="-279"/>
      <point x="491" y="-254"/>
      <point x="480" y="-189" type="curve" smooth="yes"/>
      <point x="479" y="-182"/>
      <point x="478" y="-174"/>
      <point x="478" y="-167" type="curve" smooth="yes"/>
      <point x="478" y="-138"/>
      <point x="490" y="-97"/>
      <point x="510" y="-61" type="curve" smooth="yes"/>
      <point x="522" y="-40"/>
      <point x="536" y="-19"/>
      <point x="552" y="0" type="curve"/>
    </contour>
  </outline>
</glyph>
<glyph name="Gamma" format="2">
  <advance width="1300"/>
  <unicode hex="0393"/>
  <outline>
    <contour>
      <point x="523" y="1350" type="line"/>
      <point x="1158" y="1350" type="line"/>
      <point x="1184" y="1500" type="line"/>
      <point x="347" y="1500" type="line"/>
      <point x="329" y="1300" type="line"/>
      <point x="100" y="0" type="line"/>
      <point x="300" y="0" type="line"/>
      <point x="502" y="1150" type="line"/>
    </contour>
  </outline>
</glyph>
<glyph name="Xi" format="2">
  <advance width="1300"/>
  <unicode hex="039E"/>
  <outline>
    <contour>
      <point x="325" y="711" type="line"/>
      <point x="975" y="711" type="line"/>
      <point x="1006" y="885" type="line"/>
      <point x="356" y="885" type="line"/>
    </contour>
    <contour>
      <point x="100" y="0" type="line"/>
      <point x="950" y="0" type="line"/>
      <point x="980" y="174" type="line"/>
      <point x="130" y="174" type="line"/>
    </contour>
    <contour>
      <point x="333" y="1326" type="line"/>
      <point x="1183" y="1326" type="line"/>
      <point x="1214" y="1500" type="line"/>
      <point x="364" y="1500" type="line"/>
    </contour>
  </outline>
</glyph>
<glyph name="Phi" format="2">
  <advance width="1300"/>
  <unicode hex="03A6"/>
  <outline>
    <contour>
      <point x="413" y="-14" type="line"/>
      <point x="612" y="-14" type="line"/>
      <point x="650" y="204" type="line"/>
      <point x="796" y="233" type="line"/>
      <point x="1073" y="300"/>
      <point x="1244" y="474"/>
      <point x="1279" y="750" type="curve"/>
      <point x="1282" y="779"/>
      <point x="1284" y="806"/>
      <point x="1284" y="832" type="curve" smooth="yes"/>
      <point x="1284" y="915"/>
      <point x="1263" y="1013"/>
      <point x="1204" y="1098" type="curve" smooth="yes"/>
      <point x="1144" y="1182"/>
      <point x="1060" y="1237"/>
      <point x="977" y="1266" type="curve" smooth="yes"/>
      <point x="934" y="1281"/>
      <point x="890" y="1290"/>
      <point x="843" y="1295" type="curve"/>
      <point x="883" y="1520" type="line"/>
      <point x="680" y="1500" type="line"/>
      <point x="644" y="1295" type="line"/>
      <point x="597" y="1290"/>
      <point x="550" y="1281"/>
      <point x="501" y="1266" type="curve"/>
      <point x="264" y="1199"/>
      <point x="54" y="1062"/>
      <point x="19" y="750" type="curve" smooth="yes"/>
      <point x="16" y="723"/>
      <point x="15" y="697"/>
      <point x="15" y="672" type="curve" smooth="yes"/>
      <point x="15" y="585"/>
      <point x="35" y="487"/>
      <point x="92" y="403" type="curve" smooth="yes"/>
      <point x="149" y="319"/>
      <point x="232" y="264"/>
      <point x="319" y="233" type="curve"/>
      <point x="362" y="220"/>
      <point x="406" y="210"/>
      <point x="451" y="204" type="curve"/>
    </contour>
    <contour>
      <point x="815" y="1139" type="line"/>
      <point x="931" y="1107"/>
      <point x="1005" y="1058"/>
      <point x="1049" y="994" type="curve" smooth="yes"/>
      <point x="1093" y="930"/>
      <point x="1101" y="857"/>
      <point x="1101" y="789" type="curve" smooth="yes"/>
      <point x="1101" y="776"/>
      <point x="1101" y="763"/>
      <point x="1100" y="750" type="curve" smooth="yes"/>
      <point x="1087" y="521"/>
      <point x="883" y="372"/>
      <point x="678" y="361" type="curve"/>
    </contour>
    <contour>
      <point x="417" y="376" type="curve" smooth="yes"/>
      <point x="358" y="388"/>
      <point x="301" y="430"/>
      <point x="259" y="495" type="curve" smooth="yes"/>
      <point x="217" y="559"/>
      <point x="196" y="639"/>
      <point x="196" y="716" type="curve" smooth="yes"/>
      <point x="196" y="727"/>
      <point x="196" y="739"/>
      <point x="197" y="750" type="curve" smooth="yes"/>
      <point x="213" y="995"/>
      <point x="421" y="1134"/>
      <point x="616" y="1139" type="curve"/>
      <point x="479" y="361" type="line"/>
      <point x="458" y="365"/>
      <point x="437" y="372"/>
    </contour>
  </outline>
</glyph>
<glyph name="uni03A9" format="2">
  <advance width="1300"/>
  <unicode hex="03A9"/>
  <outline>
    <contour>
      <point x="28" y="0" type="line"/>
      <point x="475" y="0" type="line"/>
      <point x="510" y="200" type="line"/>
      <point x="469" y="235"/>
      <point x="437" y="273"/>
      <point x="416" y="313" type="curve" smooth="yes"/>
      <point x="372" y="393"/>
      <point x="368" y="470"/>
      <point x="368" y="530" type="curve" smooth="yes"/>
      <point x="368" y="579"/>
      <point x="373" y="661"/>
      <point x="400" y="810" type="curve" smooth="yes"/>
      <point x="450" y="1094"/>
      <point x="558" y="1347"/>
      <point x="806" y="1347" type="curve" smooth="yes"/>
      <point x="872" y="1347"/>
      <point x="923" y="1331"/>
      <point x="960" y="1298" type="curve" smooth="yes"/>
      <point x="1032" y="1232"/>
      <point x="1052" y="1126"/>
      <point x="1052" y="1017" type="curve" smooth="yes"/>
      <point x="1052" y="989"/>
      <point x="1052" y="904"/>
      <point x="1024" y="744" type="curve" smooth="yes"/>
      <point x="979" y="487"/>
      <point x="919" y="330"/>
      <point x="709" y="200" type="curve"/>
      <point x="674" y="0" type="line"/>
      <point x="1122" y="0" type="line"/>
      <point x="1150" y="160" type="line"/>
      <point x="1002" y="160" type="line"/>
      <point x="841" y="100" type="line"/>
      <point x="1016" y="242" type="line"/>
      <point x="1101" y="316"/>
      <point x="1194" y="533"/>
      <point x="1237" y="775" type="curve" smooth="yes"/>
      <point x="1256" y="885"/>
      <point x="1266" y="963"/>
      <point x="1267" y="1010" type="curve"/>
      <point x="1267" y="1083" type="line" smooth="yes"/>
      <point x="1267" y="1345"/>
      <point x="1155" y="1517"/>
      <point x="842" y="1517" type="curve" smooth="yes"/>
      <point x="413" y="1517"/>
      <point x="262" y="1215"/>
      <point x="185" y="775" type="curve" smooth="yes"/>
      <point x="164" y="652"/>
      <point x="161" y="568"/>
      <point x="161" y="515" type="curve" smooth="yes"/>
      <point x="161" y="490"/>
      <point x="162" y="461"/>
      <point x="165" y="426" type="curve"/>
      <point x="169" y="357"/>
      <point x="191" y="278"/>
      <point x="224" y="239" type="curve" smooth="yes"/>
      <point x="343" y="100" type="line"/>
      <point x="203" y="160" type="line"/>
      <point x="56" y="160" type="line"/>
    </contour>
  </outline>
</glyph>
<glyph name="delta" format="2">
  <advance width="1300"/>
  <unicode hex="03B4"/>
  <outline>
    <contour>
      <point x="525" y="1015" type="line"/>
      <point x="282" y="935"/>
      <point x="157" y="764"/>
      <point x="154" y="539" type="curve"/>
      <point x="154" y="528" type="line" smooth="yes"/>
      <point x="154" y="266"/>
      <point x="239" y="18"/>
      <point x="551" y="-17" type="curve" smooth="yes"/>
      <point x="567" y="-19"/>
      <point x="583" y="-20" name=".hr01"/>
      <point x="598" y="-20" type="curve" smooth="yes"/>
      <point x="631" y="-20"/>
      <point x="668" y="-15"/>
      <point x="709" y="-6" type="curve"/>
      <point x="789" y="14"/>
      <point x="882" y="64"/>
      <point x="956" y="135" type="curve" smooth="yes"/>
      <point x="1065" y="239"/>
      <point x="1140" y="382"/>
      <point x="1142" y="526" type="curve"/>
      <point x="1142" y="547" type="line" smooth="yes"/>
      <point x="1142" y="672"/>
      <point x="1119" y="777"/>
      <point x="1071" y="866" type="curve" smooth="yes"/>
      <point x="1023" y="955"/>
      <point x="952" y="1024"/>
      <point x="865" y="1091" type="curve" smooth="yes"/>
      <point x="831" y="1117"/>
      <point x="759" y="1148"/>
      <point x="694" y="1181" type="curve" smooth="yes"/>
      <point x="626" y="1216"/>
      <point x="582" y="1249"/>
      <point x="582" y="1278" type="curve" smooth="yes"/>
      <point x="582" y="1284" type="line"/>
      <point x="590" y="1332"/>
      <point x="659" y="1342"/>
      <point x="751" y="1342" type="curve" smooth="yes"/>
      <point x="1103" y="1342" type="line"/>
      <point x="1174" y="1500" type="line"/>
      <point x="794" y="1500" type="line"/>
      <point x="791" y="1500" type="line"/>
      <point x="785" y="1500" type="line"/>
      <point x="783" y="1500" type="line"/>
      <point x="781" y="1500" type="line"/>
      <point x="778" y="1500" type="line"/>
      <point x="776" y="1500" type="line"/>
      <point x="774" y="1500" type="line"/>
      <point x="766" y="1500" type="line"/>
      <point x="760" y="1500" type="line"/>
      <point x="730" y="1500" type="line"/>
      <point x="727" y="1500" type="line"/>
      <point x="717" y="1500" type="line" smooth="yes"/>
      <point x="575" y="1500"/>
      <point x="404" y="1478"/>
      <point x="404" y="1289" type="curve" smooth="yes"/>
      <point x="404" y="1170"/>
      <point x="471" y="1115"/>
      <point x="635" y="1059" type="curve"/>
      <point x="728" y="1015" type="line"/>
    </contour>
    <contour>
      <point x="572" y="127" type="curve"/>
      <point x="385" y="156"/>
      <point x="354" y="327"/>
      <point x="354" y="509" type="curve" smooth="yes"/>
      <point x="354" y="526" type="line"/>
      <point x="355" y="653"/>
      <point x="399" y="761"/>
      <point x="466" y="833" type="curve" smooth="yes"/>
      <point x="533" y="904"/>
      <point x="608" y="926"/>
      <point x="665" y="926" type="curve" smooth="yes"/>
      <point x="682" y="926"/>
      <point x="698" y="924"/>
      <point x="715" y="921" type="curve" smooth="yes"/>
      <point x="810" y="902"/>
      <point x="864" y="847"/>
      <point x="895" y="775" type="curve" smooth="yes"/>
      <point x="926" y="703"/>
      <point x="929" y="624"/>
      <point x="929" y="559" type="curve" smooth="yes"/>
      <point x="929" y="548"/>
      <point x="929" y="537"/>
      <point x="928" y="526" type="curve"/>
      <point x="924" y="415"/>
      <point x="877" y="310"/>
      <point x="810" y="235" type="curve" smooth="yes"/>
      <point x="742" y="159"/>
      <point x="666" y="125"/>
      <point x="603" y="125" type="curve" smooth="yes"/>
      <point x="593" y="125"/>
      <point x="583" y="126"/>
    </contour>
  </outline>
</glyph>
<glyph name="zeta" format="2">
  <advance width="1300"/>
  <unicode hex="03B6"/>
  <outline>
    <contour>
      <point x="464" y="1500" type="line"/>
      <point x="416" y="1342" type="line"/>
      <point x="776" y="1342" type="line"/>
      <point x="949" y="1369" type="line"/>
      <point x="660" y="1224" type="line"/>
      <point x="501" y="1085"/>
      <point x="245" y="833"/>
      <point x="201" y="492" type="curve" smooth="yes"/>
      <point x="194" y="442"/>
      <point x="190" y="395"/>
      <point x="190" y="351" type="curve" smooth="yes"/>
      <point x="190" y="347"/>
      <point x="184" y="295"/>
      <point x="212" y="217" type="curve" smooth="yes"/>
      <point x="240" y="139"/>
      <point x="297" y="74"/>
      <point x="405" y="30" type="curve" smooth="yes"/>
      <point x="509" y="-13"/>
      <point x="575" y="-51"/>
      <point x="614" y="-91" type="curve" smooth="yes"/>
      <point x="653" y="-131"/>
      <point x="661" y="-169"/>
      <point x="661" y="-205" type="curve" smooth="yes"/>
      <point x="661" y="-210"/>
      <point x="661" y="-216"/>
      <point x="660" y="-222" type="curve"/>
      <point x="655" y="-278"/>
      <point x="619" y="-346"/>
      <point x="475" y="-386" type="curve"/>
      <point x="542" y="-517" type="line"/>
      <point x="625" y="-496"/>
      <point x="707" y="-452"/>
      <point x="767" y="-396" type="curve" smooth="yes"/>
      <point x="827" y="-340"/>
      <point x="860" y="-275"/>
      <point x="860" y="-214" type="curve" smooth="yes"/>
      <point x="860" y="-203" type="line"/>
      <point x="847" y="7"/>
      <point x="723" y="71"/>
      <point x="545" y="164" type="curve"/>
      <point x="420" y="231"/>
      <point x="394" y="291"/>
      <point x="394" y="381" type="curve" smooth="yes"/>
      <point x="394" y="389"/>
      <point x="394" y="422"/>
      <point x="403" y="517" type="curve" smooth="yes"/>
      <point x="435" y="844"/>
      <point x="861" y="1143"/>
      <point x="1136" y="1342" type="curve"/>
      <point x="1184" y="1500" type="line" name=".hr01"/>
    </contour>
  </outline>
</glyph>
<glyph name="eta" format="2">
  <advance width="1300"/>
  <unicode hex="03B7"/>
  <outline>
    <contour>
      <point x="503" y="844" type="line"/>
      <point x="583" y="912"/>
      <point x="670" y="953"/>
      <point x="783" y="957" type="curve"/>
      <point x="788" y="957" type="line" smooth="yes"/>
      <point x="828" y="957"/>
      <point x="864" y="940"/>
      <point x="887" y="905" type="curve" smooth="yes"/>
      <point x="910" y="869"/>
      <point x="912" y="829"/>
      <point x="912" y="806" type="curve" smooth="yes"/>
      <point x="912" y="789"/>
      <point x="910" y="770"/>
      <point x="907" y="750" type="curve" smooth="yes"/>
      <point x="686" y="-500" type="line"/>
      <point x="870" y="-500" type="line"/>
      <point x="1091" y="750" type="line" smooth="yes"/>
      <point x="1097" y="782"/>
      <point x="1100" y="815"/>
      <point x="1100" y="848" type="curve" smooth="yes"/>
      <point x="1100" y="867"/>
      <point x="1104" y="923"/>
      <point x="1073" y="995" type="curve" smooth="yes"/>
      <point x="1041" y="1066"/>
      <point x="980" y="1117"/>
      <point x="876" y="1117" type="curve" smooth="yes"/>
      <point x="755" y="1117"/>
      <point x="686" y="1100"/>
      <point x="600" y="1044" type="curve"/>
      <point x="520" y="937" type="line"/>
      <point x="552" y="1121" type="line"/>
      <point x="364" y="1100" type="line"/>
      <point x="171" y="0" type="line"/>
      <point x="355" y="0" type="line"/>
    </contour>
  </outline>
</glyph>
<glyph name="uni03BC" format="2">
  <advance width="1300"/>
  <unicode hex="03BC"/>
  <outline>
    <contour>
      <point x="111" y="-500" type="line"/>
      <point x="301" y="-500" type="line"/>
      <point x="363" y="-150" type="line"/>
      <point x="371" y="11" type="line"/>
      <point x="407" y="-6"/>
      <point x="458" y="-15"/>
      <point x="507" y="-15" type="curve"/>
      <point x="600" y="-12"/>
      <point x="719" y="-2"/>
      <point x="832" y="129" type="curve"/>
      <point x="810" y="0" type="line"/>
      <point x="1000" y="0" type="line"/>
      <point x="1197" y="1121" type="line"/>
      <point x="1003" y="1100" type="line"/>
      <point x="849" y="222" type="line"/>
      <point x="797" y="178"/>
      <point x="762" y="153"/>
      <point x="730" y="140" type="curve" smooth="yes"/>
      <point x="697" y="127"/>
      <point x="671" y="126" name=".hr01"/>
      <point x="647" y="126" type="curve" smooth="yes"/>
      <point x="638" y="126"/>
      <point x="629" y="126"/>
      <point x="618" y="127" type="curve"/>
      <point x="475" y="135"/>
      <point x="451" y="220"/>
      <point x="451" y="292" type="curve" smooth="yes"/>
      <point x="451" y="304"/>
      <point x="453" y="342"/>
      <point x="461" y="406" type="curve"/>
      <point x="587" y="1121" type="line"/>
      <point x="393" y="1100" type="line"/>
    </contour>
  </outline>
</glyph>
<glyph name="upsilon" format="2">
  <advance width="1300"/>
  <unicode hex="03C5"/>
  <outline>
    <contour>
      <point x="548" y="845" type="line" smooth="yes"/>
      <point x="550" y="858"/>
      <point x="551" y="871"/>
      <point x="551" y="884" type="curve" smooth="yes"/>
      <point x="551" y="927"/>
      <point x="540" y="984"/>
      <point x="501" y="1034" type="curve" smooth="yes"/>
      <point x="461" y="1084"/>
      <point x="400" y="1117"/>
      <point x="328" y="1117" type="curve" smooth="yes"/>
      <point x="166" y="1117"/>
      <point x="78" y="1007" name=".hr01"/>
      <point x="49" y="845" type="curve"/>
      <point x="163" y="845" type="line"/>
      <point x="178" y="925"/>
      <point x="230" y="974" name=".hr02"/>
      <point x="295" y="974" type="curve" smooth="yes"/>
      <point x="326" y="974"/>
      <point x="346" y="965"/>
      <point x="354" y="947" type="curve"/>
      <point x="361" y="929"/>
      <point x="365" y="911"/>
      <point x="365" y="892" type="curve" smooth="yes"/>
      <point x="365" y="878"/>
      <point x="363" y="862"/>
      <point x="360" y="845" type="curve" smooth="yes"/>
      <point x="299" y="495" type="line"/>
      <point x="288" y="439"/>
      <point x="285" y="385" name=".hr03"/>
      <point x="285" y="356" type="curve" smooth="yes"/>
      <point x="285" y="315"/>
      <point x="287" y="256"/>
      <point x="314" y="186" type="curve" smooth="yes"/>
      <point x="353" y="82"/>
      <point x="453" y="-5"/>
      <point x="647" y="-17" type="curve" smooth="yes"/>
      <point x="663" y="-18"/>
      <point x="679" y="-19"/>
      <point x="694" y="-19" type="curve" smooth="yes"/>
      <point x="746" y="-19"/>
      <point x="795" y="-12"/>
      <point x="842" y="3" type="curve" smooth="yes"/>
      <point x="935" y="31"/>
      <point x="1013" y="93"/>
      <point x="1062" y="170" type="curve" smooth="yes"/>
      <point x="1136" y="284"/>
      <point x="1163" y="413"/>
      <point x="1177" y="495" type="curve" smooth="yes"/>
      <point x="1223" y="759" type="line" smooth="yes"/>
      <point x="1226" y="777"/>
      <point x="1228" y="795"/>
      <point x="1228" y="813" type="curve" smooth="yes"/>
      <point x="1228" y="872"/>
      <point x="1207" y="952"/>
      <point x="1146" y="1020" type="curve" smooth="yes"/>
      <point x="1085" y="1087"/>
      <point x="1004" y="1119"/>
      <point x="929" y="1119" type="curve" smooth="yes"/>
      <point x="918" y="1119"/>
      <point x="907" y="1118"/>
      <point x="896" y="1117" type="curve" name=".hr04"/>
      <point x="877" y="1007" type="line" name=".hr05"/>
      <point x="908" y="1007"/>
      <point x="957" y="998"/>
      <point x="993" y="959" type="curve" smooth="yes"/>
      <point x="1028" y="920"/>
      <point x="1038" y="863"/>
      <point x="1038" y="820" type="curve" smooth="yes"/>
      <point x="1038" y="795"/>
      <point x="1035" y="765"/>
      <point x="1029" y="732" type="curve" smooth="yes"/>
      <point x="987" y="497" type="line" smooth="yes"/>
      <point x="970" y="401"/>
      <point x="948" y="305"/>
      <point x="902" y="234" type="curve" smooth="yes"/>
      <point x="856" y="163"/>
      <point x="790" y="128"/>
      <point x="703" y="128" type="curve" smooth="yes"/>
      <point x="693" y="128"/>
      <point x="683" y="128"/>
      <point x="672" y="129" type="curve" smooth="yes"/>
      <point x="525" y="141"/>
      <point x="473" y="232"/>
      <point x="473" y="355" type="curve" smooth="yes"/>
      <point x="473" y="358"/>
      <point x="470" y="398"/>
      <point x="487" y="497" type="curve" smooth="yes"/>
    </contour>
  </outline>
</glyph>
<glyph name="chi" format="2">
  <advance width="1300"/>
  <unicode hex="03C7"/>
  <outline>
    <contour>
      <point x="822" y="-340" type="line" smooth="yes"/>
      <point x="899" y="-534"/>
      <point x="993" y="-530"/>
      <point x="1077" y="-517" type="curve"/>
      <point x="1100" y="-387" type="line"/>
      <point x="1098" y="-388"/>
      <point x="1096" y="-388"/>
      <point x="1093" y="-388" type="curve" smooth="yes"/>
      <point x="1086" y="-388"/>
      <point x="1079" y="-385"/>
      <point x="1072" y="-380" type="curve"/>
      <point x="1053" y="-368"/>
      <point x="1030" y="-340"/>
      <point x="1003" y="-269" type="curve" smooth="yes"/>
      <point x="781" y="306" type="line"/>
      <point x="1366" y="1100" type="line"/>
      <point x="1166" y="1100" type="line"/>
      <point x="771" y="550" type="line"/>
      <point x="708" y="390" type="line"/>
      <point x="663" y="586" type="line"/>
      <point x="522" y="940" type="line" smooth="yes"/>
      <point x="471" y="1069"/>
      <point x="366" y="1117"/>
      <point x="266" y="1117" type="curve"/>
      <point x="244" y="987" type="line"/>
      <point x="256" y="981"/>
      <point x="268" y="972"/>
      <point x="280" y="961" type="curve" smooth="yes"/>
      <point x="300" y="942"/>
      <point x="324" y="912"/>
      <point x="341" y="869" type="curve" smooth="yes"/>
      <point x="551" y="329" type="line"/>
      <point x="-65" y="-500" type="line" name=".hr01"/>
      <point x="132" y="-500" type="line"/>
      <point x="548" y="70" type="line"/>
      <point x="624" y="230" type="line"/>
      <point x="669" y="49" type="line"/>
    </contour>
  </outline>
</glyph>
<glyph name="uni03D1" format="2">
  <advance width="1300"/>
  <unicode hex="03D1"/>
  <outline>
    <contour>
      <point x="53" y="394" type="line"/>
      <point x="72" y="200"/>
      <point x="186" y="7"/>
      <point x="433" y="-20" type="curve" smooth="yes"/>
      <point x="450" y="-22"/>
      <point x="467" y="-23"/>
      <point x="483" y="-23" type="curve" smooth="yes"/>
      <point x="521" y="-23"/>
      <point x="561" y="-17"/>
      <point x="603" y="-5" type="curve" smooth="yes"/>
      <point x="686" y="19"/>
      <point x="772" y="81"/>
      <point x="840" y="167" type="curve" smooth="yes"/>
      <point x="942" y="295"/>
      <point x="1011" y="469"/>
      <point x="1047" y="650" type="curve"/>
      <point x="1253" y="650" type="line"/>
      <point x="1300" y="800" type="line"/>
      <point x="1077" y="800" type="line"/>
      <point x="1085" y="859"/>
      <point x="1089" y="917"/>
      <point x="1089" y="972" type="curve" smooth="yes"/>
      <point x="1089" y="1008"/>
      <point x="1086" y="1056"/>
      <point x="1080" y="1117" type="curve" smooth="yes"/>
      <point x="1074" y="1177"/>
      <point x="1056" y="1240"/>
      <point x="1025" y="1305" type="curve" smooth="yes"/>
      <point x="963" y="1435"/>
      <point x="856" y="1516"/>
      <point x="705" y="1517" type="curve"/>
      <point x="699" y="1517" type="line" smooth="yes"/>
      <point x="407" y="1517"/>
      <point x="117" y="1222"/>
      <point x="109" y="980" type="curve"/>
      <point x="109" y="961" type="line" smooth="yes"/>
      <point x="109" y="842"/>
      <point x="147" y="756"/>
      <point x="216" y="709" type="curve"/>
      <point x="283" y="661"/>
      <point x="369" y="650"/>
      <point x="451" y="650" type="curve" smooth="yes"/>
      <point x="875" y="650" type="line"/>
      <point x="822" y="351"/>
      <point x="684" y="146"/>
      <point x="462" y="143" type="curve"/>
      <point x="457" y="143" type="line" smooth="yes"/>
      <point x="286" y="143"/>
      <point x="260" y="306"/>
      <point x="230" y="481" type="curve"/>
    </contour>
    <contour>
      <point x="676" y="1357" type="curve"/>
      <point x="752" y="1346"/>
      <point x="828" y="1287"/>
      <point x="876" y="1190" type="curve"/>
      <point x="899" y="1141"/>
      <point x="913" y="1096"/>
      <point x="918" y="1055" type="curve"/>
      <point x="922" y="1013"/>
      <point x="924" y="983"/>
      <point x="924" y="965" type="curve" smooth="yes"/>
      <point x="924" y="914"/>
      <point x="917" y="859"/>
      <point x="903" y="800" type="curve"/>
      <point x="578" y="800" type="line" smooth="yes"/>
      <point x="376" y="800"/>
      <point x="279" y="800"/>
      <point x="279" y="965" type="curve" smooth="yes"/>
      <point x="279" y="972" type="line"/>
      <point x="281" y="1074"/>
      <point x="330" y="1176"/>
      <point x="405" y="1251" type="curve" smooth="yes"/>
      <point x="430" y="1276"/>
      <point x="457" y="1297"/>
      <point x="486" y="1314" type="curve" smooth="yes"/>
      <point x="545" y="1349"/>
      <point x="599" y="1359"/>
      <point x="642" y="1359" type="curve" smooth="yes"/>
      <point x="653" y="1359"/>
      <point x="665" y="1358"/>
    </contour>
  </outline>
</glyph>
<glyph name="uni03D2" format="2">
  <advance width="1300"/>
  <unicode hex="03D2"/>
  <outline>
    <contour>
      <point x="1198" y="1517" type="line"/>
      <point x="1192" y="1517" type="line"/>
      <point x="1190" y="1517" type="line"/>
      <point x="1187" y="1517" type="line"/>
      <point x="1185" y="1517" type="line"/>
      <point x="1183" y="1517" type="line"/>
      <point x="1176" y="1517" type="line"/>
      <point x="1170" y="1517" type="line"/>
      <point x="1168" y="1517" type="line"/>
      <point x="1166" y="1517" type="line"/>
      <point x="1164" y="1517" type="line"/>
      <point x="1138" y="1517" type="line"/>
      <point x="1136" y="1517" type="line"/>
      <point x="1131" y="1517" type="line" smooth="yes"/>
      <point x="1110" y="1517"/>
      <point x="1089" y="1512"/>
      <point x="1067" y="1502" type="curve" smooth="yes"/>
      <point x="1022" y="1482"/>
      <point x="972" y="1437"/>
      <point x="900" y="1340" type="curve" smooth="yes"/>
      <point x="650" y="1000" type="line"/>
      <point x="533" y="751" type="line"/>
      <point x="496" y="1000" type="line"/>
      <point x="366" y="1340" type="line" smooth="yes"/>
      <point x="305" y="1502"/>
      <point x="197" y="1517"/>
      <point x="130" y="1517" type="curve"/>
      <point x="107" y="1387" type="line"/>
      <point x="114" y="1387" type="line" smooth="yes"/>
      <point x="126" y="1387"/>
      <point x="138" y="1384"/>
      <point x="149" y="1379" type="curve" smooth="yes"/>
      <point x="172" y="1368"/>
      <point x="199" y="1345"/>
      <point x="218" y="1289" type="curve"/>
      <point x="417" y="658" type="line"/>
      <point x="301" y="0" type="line"/>
      <point x="493" y="0" type="line"/>
      <point x="609" y="658" type="line"/>
      <point x="1030" y="1289" type="line" smooth="yes"/>
      <point x="1067" y="1345"/>
      <point x="1104" y="1369"/>
      <point x="1131" y="1380" type="curve" smooth="yes"/>
      <point x="1144" y="1385"/>
      <point x="1157" y="1387"/>
      <point x="1168" y="1387" type="curve" smooth="yes"/>
      <point x="1175" y="1387" type="line"/>
    </contour>
  </outline>
</glyph>
<glyph name="uni03D5" format="2">
  <advance width="1300"/>
  <unicode hex="03D5"/>
  <outline>
    <contour>
      <point x="362" y="-500" type="line"/>
      <point x="554" y="-500" type="line"/>
      <point x="643" y="2" type="line"/>
      <point x="915" y="22"/>
      <point x="1219" y="168"/>
      <point x="1235" y="500" type="curve"/>
      <point x="1235" y="523" type="line" smooth="yes"/>
      <point x="1235" y="642"/>
      <point x="1196" y="758"/>
      <point x="1124" y="846" type="curve" smooth="yes"/>
      <point x="1051" y="933"/>
      <point x="949" y="986"/>
      <point x="840" y="986" type="curve" smooth="yes"/>
      <point x="736" y="986"/>
      <point x="618" y="943"/>
      <point x="591" y="799" type="curve"/>
      <point x="476" y="145" type="line"/>
      <point x="389" y="158"/>
      <point x="319" y="205"/>
      <point x="271" y="269" type="curve" smooth="yes"/>
      <point x="223" y="333"/>
      <point x="205" y="404"/>
      <point x="205" y="467" type="curve" smooth="yes"/>
      <point x="205" y="478"/>
      <point x="206" y="489"/>
      <point x="207" y="500" type="curve" smooth="yes"/>
      <point x="226" y="686"/>
      <point x="355" y="753"/>
      <point x="437" y="804" type="curve"/>
      <point x="362" y="922" type="line"/>
      <point x="239" y="885"/>
      <point x="51" y="753"/>
      <point x="38" y="500" type="curve" smooth="yes"/>
      <point x="37" y="486"/>
      <point x="37" y="472"/>
      <point x="37" y="459" type="curve" smooth="yes"/>
      <point x="37" y="343"/>
      <point x="66" y="236"/>
      <point x="137" y="153" type="curve" smooth="yes"/>
      <point x="208" y="70"/>
      <point x="315" y="21"/>
      <point x="451" y="2" type="curve"/>
    </contour>
    <contour>
      <point x="854" y="840" type="curve" smooth="yes"/>
      <point x="910" y="840"/>
      <point x="966" y="802"/>
      <point x="1007" y="742" type="curve" smooth="yes"/>
      <point x="1048" y="681"/>
      <point x="1067" y="606"/>
      <point x="1067" y="538" type="curve" smooth="yes"/>
      <point x="1067" y="525"/>
      <point x="1066" y="513"/>
      <point x="1065" y="500" type="curve" smooth="yes"/>
      <point x="1041" y="246"/>
      <point x="793" y="143"/>
      <point x="667" y="143" type="curve"/>
      <point x="779" y="780" type="line" smooth="yes"/>
      <point x="787" y="828"/>
      <point x="818" y="840"/>
    </contour>
  </outline>
</glyph>
<glyph name="quoteleft" format="2">
  <advance width="1300"/>
  <unicode hex="2018"/>
  <outline>
    <contour>
      <point x="406" y="1095" type="curve"/>
      <point x="406" y="1103" type="line" smooth="yes"/>
      <point x="406" y="1172"/>
      <point x="371" y="1213"/>
      <point x="315" y="1216" type="curve"/>
      <point x="322" y="1272"/>
      <point x="349" y="1327"/>
      <point x="374" y="1370" type="curve" smooth="yes"/>
      <point x="389" y="1395"/>
      <point x="405" y="1418"/>
      <point x="423" y="1440" type="curve"/>
      <point x="382" y="1460" type="line"/>
      <point x="203" y="1332"/>
      <point x="158" y="1189"/>
      <point x="158" y="1109" type="curve" smooth="yes"/>
      <point x="158" y="1105" type="line" smooth="yes"/>
      <point x="158" y="1024"/>
      <point x="202" y="982"/>
      <point x="261" y="974" type="curve"/>
      <point x="267" y="973"/>
      <point x="273" y="973"/>
      <point x="279" y="973" type="curve" smooth="yes"/>
      <point x="304" y="973"/>
      <point x="336" y="981"/>
      <point x="362" y="1005" type="curve" smooth="yes"/>
      <point x="388" y="1028"/>
      <point x="405" y="1060"/>
    </contour>
  </outline>
</glyph>
<glyph name="perthousand" format="2">
  <advance width="2600"/>
  <unicode hex="2030"/>
  <outline>
    <contour>
      <point x="327" y="800" type="curve" smooth="yes"/>
      <point x="519" y="800"/>
      <point x="611" y="956"/>
      <point x="649" y="1162" type="curve"/>
      <point x="656" y="1205"/>
      <point x="660" y="1245"/>
      <point x="660" y="1282" type="curve" smooth="yes"/>
      <point x="660" y="1297"/>
      <point x="665" y="1353"/>
      <point x="635" y="1416" type="curve" smooth="yes"/>
      <point x="605" y="1479"/>
      <point x="547" y="1517"/>
      <point x="454" y="1517" type="curve" smooth="yes"/>
      <point x="261" y="1517"/>
      <point x="167" y="1366"/>
      <point x="132" y="1162" type="curve" smooth="yes"/>
      <point x="124" y="1119"/>
      <point x="120" y="1078"/>
      <point x="120" y="1039" type="curve" smooth="yes"/>
      <point x="120" y="1026"/>
      <point x="116" y="968"/>
      <point x="146" y="904" type="curve" smooth="yes"/>
      <point x="176" y="839"/>
      <point x="234" y="800"/>
    </contour>
    <contour>
      <point x="1213" y="1500" type="line"/>
      <point x="1027" y="1500" type="line"/>
      <point x="86" y="0" type="line"/>
      <point x="272" y="0" type="line"/>
    </contour>
    <contour>
      <point x="490" y="1105" type="line" smooth="yes"/>
      <point x="474" y="1019"/>
      <point x="455" y="944"/>
      <point x="357" y="944" type="curve" smooth="yes"/>
      <point x="279" y="944"/>
      <point x="267" y="995"/>
      <point x="267" y="1036" type="curve" smooth="yes"/>
      <point x="267" y="1048"/>
      <point x="269" y="1075"/>
      <point x="277" y="1123" type="curve" smooth="yes"/>
      <point x="295" y="1224" type="line" smooth="yes"/>
      <point x="311" y="1312"/>
      <point x="331" y="1386"/>
      <point x="430" y="1386" type="curve" smooth="yes"/>
      <point x="508" y="1386"/>
      <point x="518" y="1336"/>
      <point x="518" y="1294" type="curve" smooth="yes"/>
      <point x="518" y="1283"/>
      <point x="517" y="1257"/>
      <point x="509" y="1210" type="curve" smooth="yes"/>
    </contour>
    <contour>
      <point x="1446" y="-17" type="curve" smooth="yes"/>
      <point x="1638" y="-17" name=".hr01"/>
      <point x="1730" y="139"/>
      <point x="1768" y="345" type="curve"/>
      <point x="1775" y="388"/>
      <point x="1779" y="428"/>
      <point x="1779" y="465" type="curve" smooth="yes"/>
      <point x="1779" y="480"/>
      <point x="1784" y="536"/>
      <point x="1754" y="599" type="curve" smooth="yes"/>
      <point x="1724" y="662"/>
      <point x="1666" y="700"/>
      <point x="1573" y="700" type="curve" smooth="yes"/>
      <point x="1380" y="700"/>
      <point x="1286" y="549"/>
      <point x="1251" y="345" type="curve" smooth="yes"/>
      <point x="1243" y="302"/>
      <point x="1239" y="261"/>
      <point x="1239" y="222" type="curve" smooth="yes"/>
      <point x="1239" y="209"/>
      <point x="1235" y="151"/>
      <point x="1265" y="87" type="curve" smooth="yes"/>
      <point x="1295" y="22"/>
      <point x="1353" y="-17"/>
    </contour>
    <contour>
      <point x="846" y="-17" type="curve" smooth="yes"/>
      <point x="1038" y="-17"/>
      <point x="1130" y="139"/>
      <point x="1168" y="345" type="curve"/>
      <point x="1175" y="388"/>
      <point x="1179" y="428"/>
      <point x="1179" y="465" type="curve" smooth="yes"/>
      <point x="1179" y="480"/>
      <point x="1184" y="536"/>
      <point x="1154" y="599" type="curve" smooth="yes"/>
      <point x="1124" y="662"/>
      <point x="1066" y="700"/>
      <point x="973" y="700" type="curve" smooth="yes"/>
      <point x="780" y="700"/>
      <point x="686" y="549"/>
      <point x="651" y="345" type="curve" smooth="yes"/>
      <point x="643" y="302"/>
      <point x="639" y="261"/>
      <point x="639" y="222" type="curve" smooth="yes"/>
      <point x="639" y="209"/>
      <point x="635" y="151"/>
      <point x="665" y="87" type="curve" smooth="yes"/>
      <point x="695" y="22"/>
      <point x="753" y="-17"/>
    </contour>
    <contour>
      <point x="1609" y="288" type="line" smooth="yes"/>
      <point x="1593" y="202"/>
      <point x="1574" y="127"/>
      <point x="1476" y="127" type="curve" smooth="yes"/>
      <point x="1398" y="127"/>
      <point x="1386" y="178"/>
      <point x="1386" y="219" type="curve" smooth="yes"/>
      <point x="1386" y="231"/>
      <point x="1388" y="258"/>
      <point x="1396" y="306" type="curve" smooth="yes"/>
      <point x="1414" y="407" type="line" smooth="yes"/>
      <point x="1430" y="495"/>
      <point x="1450" y="569"/>
      <point x="1549" y="569" type="curve" smooth="yes"/>
      <point x="1627" y="569"/>
      <point x="1637" y="519"/>
      <point x="1637" y="477" type="curve" smooth="yes"/>
      <point x="1637" y="466"/>
      <point x="1636" y="440"/>
      <point x="1628" y="393" type="curve" smooth="yes"/>
    </contour>
    <contour>
      <point x="1009" y="288" type="line" smooth="yes"/>
      <point x="993" y="202"/>
      <point x="974" y="127"/>
      <point x="876" y="127" type="curve" smooth="yes"/>
      <point x="798" y="127"/>
      <point x="786" y="178"/>
      <point x="786" y="219" type="curve" smooth="yes"/>
      <point x="786" y="231"/>
      <point x="788" y="258"/>
      <point x="796" y="306" type="curve" smooth="yes"/>
      <point x="814" y="407" type="line" smooth="yes"/>
      <point x="830" y="495"/>
      <point x="850" y="569"/>
      <point x="949" y="569" type="curve" smooth="yes"/>
      <point x="1027" y="569"/>
      <point x="1037" y="519"/>
      <point x="1037" y="477" type="curve" smooth="yes"/>
      <point x="1037" y="466"/>
      <point x="1036" y="440"/>
      <point x="1028" y="393" type="curve" smooth="yes"/>
    </contour>
  </outline>
</glyph>
<glyph name="uni2035" format="2">
  <advance width="1300"/>
  <unicode hex="2035"/>
  <outline>
    <contour>
      <point x="233" y="1245" type="line"/>
      <point x="460" y="885" type="line"/>
      <point x="545" y="885" type="line"/>
      <point x="412" y="1245" type="line"/>
      <point x="364" y="1517" type="line"/>
      <point x="189" y="1493" type="line"/>
    </contour>
  </outline>
</glyph>
<glyph name="uni2077" format="2">
  <advance width="1300"/>
  <unicode hex="2077"/>
  <outline>
    <contour>
      <point x="218" y="1390" type="line"/>
      <point x="557" y="1390" type="line"/>
      <point x="533" y="1329"/>
      <point x="317" y="1133"/>
      <point x="245" y="916" type="curve"/>
      <point x="229" y="863"/>
      <point x="205" y="760"/>
      <point x="200" y="720" type="curve"/>
      <point x="299" y="720" type="line"/>
      <point x="305" y="754"/>
      <point x="312" y="798"/>
      <point x="324" y="842" type="curve"/>
      <point x="325" y="849"/>
      <point x="327" y="855"/>
      <point x="328" y="862" type="curve"/>
      <point x="329" y="863" type="line"/>
      <point x="330" y="866"/>
      <point x="330" y="869"/>
      <point x="331" y="872" type="curve"/>
      <point x="331" y="873" type="line"/>
      <point x="332" y="877"/>
      <point x="333" y="881"/>
      <point x="334" y="884" type="curve"/>
      <point x="394" y="1107"/>
      <point x="651" y="1321"/>
      <point x="667" y="1405" type="curve"/>
      <point x="678" y="1470" type="line" name=".hr01"/>
      <point x="232" y="1470" type="line"/>
    </contour>
  </outline>
</glyph>
<glyph name="uni2078" format="2">
  <advance width="1300"/>
  <unicode hex="2078"/>
  <outline>
    <contour>
      <point x="488" y="1478" type="line" smooth="yes"/>
      <point x="381" y="1478"/>
      <point x="267" y="1423"/>
      <point x="267" y="1286" type="curve" smooth="yes"/>
      <point x="267" y="1230"/>
      <point x="300" y="1180"/>
      <point x="349" y="1145" type="curve"/>
      <point x="244" y="1099"/>
      <point x="165" y="1024"/>
      <point x="165" y="904" type="curve" smooth="yes"/>
      <point x="165" y="771"/>
      <point x="266" y="711"/>
      <point x="391" y="711" type="curve" smooth="yes"/>
      <point x="534" y="711"/>
      <point x="658" y="776"/>
      <point x="658" y="949" type="curve" smooth="yes"/>
      <point x="658" y="1020"/>
      <point x="613" y="1111"/>
      <point x="543" y="1143" type="curve"/>
      <point x="613" y="1180"/>
      <point x="675" y="1224" name=".hr01"/>
      <point x="675" y="1319" type="curve" smooth="yes"/>
      <point x="675" y="1417"/>
      <point x="607" y="1475"/>
      <point x="499" y="1478" type="curve"/>
    </contour>
    <contour>
      <point x="461" y="1181" type="curve"/>
      <point x="402" y="1210"/>
      <point x="361" y="1241"/>
      <point x="361" y="1303" type="curve" smooth="yes"/>
      <point x="361" y="1354"/>
      <point x="425" y="1401"/>
      <point x="481" y="1401" type="curve" smooth="yes"/>
      <point x="529" y="1401"/>
      <point x="583" y="1376"/>
      <point x="583" y="1301" type="curve" smooth="yes"/>
      <point x="583" y="1244"/>
      <point x="529" y="1211"/>
    </contour>
    <contour>
      <point x="427" y="1100" type="curve"/>
      <point x="500" y="1065"/>
      <point x="563" y="1022"/>
      <point x="563" y="927" type="curve" smooth="yes" name=".hr02"/>
      <point x="563" y="847"/>
      <point x="479" y="792"/>
      <point x="401" y="792" type="curve" smooth="yes"/>
      <point x="321" y="792"/>
      <point x="259" y="835"/>
      <point x="259" y="927" type="curve" smooth="yes"/>
      <point x="259" y="1018"/>
      <point x="336" y="1063"/>
    </contour>
  </outline>
</glyph>
<glyph name="uni207A" format="2">
  <advance width="1300"/>
  <unicode hex="207A"/>
  <outline>
    <contour>
      <point x="198" y="992" type="line"/>
      <point x="384" y="992" type="line"/>
      <point x="347" y="781" type="line"/>
      <point x="424" y="781" type="line"/>
      <point x="462" y="992" type="line"/>
      <point x="648" y="992" type="line"/>
      <point x="661" y="1070" type="line"/>
      <point x="475" y="1070" type="line"/>
      <point x="513" y="1281" type="line"/>
      <point x="435" y="1281" type="line"/>
      <point x="398" y="1070" type="line"/>
      <point x="211" y="1070" type="line"/>
    </contour>
  </outline>
</glyph>
<glyph name="uni2082" format="2">
  <advance width="1300"/>
  <unicode hex="2082"/>
  <outline>
    <contour>
      <point x="587" y="-500" type="line"/>
      <point x="601" y="-420" type="line"/>
      <point x="266" y="-420" type="line"/>
      <point x="315" y="-347"/>
      <point x="389" y="-283"/>
      <point x="486" y="-197" type="curve"/>
      <point x="561" y="-127"/>
      <point x="666" y="-55"/>
      <point x="671" y="52" type="curve"/>
      <point x="671" y="56"/>
      <point x="672" y="60"/>
      <point x="672" y="64" type="curve" smooth="yes"/>
      <point x="672" y="157"/>
      <point x="617" y="250"/>
      <point x="495" y="258" type="curve"/>
      <point x="494" y="258" type="line"/>
      <point x="493" y="258" type="line"/>
      <point x="493" y="258" type="line"/>
      <point x="492" y="258" type="line"/>
      <point x="492" y="258" type="line"/>
      <point x="491" y="258" type="line"/>
      <point x="491" y="258" type="line"/>
      <point x="485" y="258" type="line"/>
      <point x="485" y="258" type="line"/>
      <point x="484" y="258" type="line"/>
      <point x="484" y="258" type="line"/>
      <point x="483" y="258" type="line"/>
      <point x="483" y="258" type="line"/>
      <point x="482" y="258" type="line"/>
      <point x="482" y="258" type="line"/>
      <point x="476" y="258" type="line" smooth="yes"/>
      <point x="373" y="258"/>
      <point x="292" y="205"/>
      <point x="248" y="110" type="curve"/>
      <point x="313" y="80" type="line"/>
      <point x="339" y="127"/>
      <point x="387" y="176"/>
      <point x="449" y="176" type="curve" smooth="yes"/>
      <point x="547" y="176"/>
      <point x="581" y="133"/>
      <point x="581" y="61" type="curve" smooth="yes"/>
      <point x="581" y="-9"/>
      <point x="512" y="-67"/>
      <point x="432" y="-131" type="curve" smooth="yes"/>
      <point x="344" y="-203"/>
      <point x="241" y="-285"/>
      <point x="150" y="-416" type="curve"/>
      <point x="135" y="-500" type="line"/>
    </contour>
  </outline>
</glyph>
<glyph name="uni2086" format="2">
  <advance width="1300"/>
  <unicode hex="2086"/>
  <outline>
    <contour>
      <point x="660" y="257" type="line"/>
      <point x="657" y="258"/>
      <point x="652" y="258"/>
      <point x="646" y="258" type="curve"/>
      <point x="645" y="258" type="line"/>
      <point x="645" y="258" type="line"/>
      <point x="643" y="258" type="line"/>
      <point x="643" y="258" type="line"/>
      <point x="642" y="258" type="line"/>
      <point x="642" y="258" type="line"/>
      <point x="641" y="258" type="line"/>
      <point x="641" y="258" type="line"/>
      <point x="639" y="258" type="line"/>
      <point x="639" y="258" type="line"/>
      <point x="630" y="258" type="line" smooth="yes"/>
      <point x="363" y="258"/>
      <point x="167" y="21"/>
      <point x="167" y="-235" type="curve" smooth="yes"/>
      <point x="167" y="-348"/>
      <point x="205" y="-497"/>
      <point x="361" y="-509" type="curve"/>
      <point x="369" y="-509"/>
      <point x="375" y="-510"/>
      <point x="382" y="-510" type="curve" smooth="yes"/>
      <point x="532" y="-510"/>
      <point x="655" y="-378"/>
      <point x="655" y="-230" type="curve" smooth="yes"/>
      <point x="655" y="-92"/>
      <point x="575" y="-36"/>
      <point x="461" y="-36" type="curve" smooth="yes"/>
      <point x="417" y="-36"/>
      <point x="360" y="-56"/>
      <point x="326" y="-77" type="curve"/>
      <point x="274" y="-135" type="line"/>
      <point x="319" y="31"/>
      <point x="436" y="173"/>
      <point x="610" y="173" type="curve"/>
      <point x="611" y="173" type="line"/>
      <point x="612" y="173" type="line"/>
      <point x="613" y="173" type="line"/>
      <point x="614" y="173" type="line"/>
      <point x="616" y="173" type="line"/>
      <point x="616" y="173" type="line"/>
      <point x="621" y="173" type="line"/>
      <point x="621" y="173" type="line"/>
      <point x="623" y="173" type="line" smooth="yes"/>
      <point x="627" y="173"/>
      <point x="630" y="173"/>
      <point x="632" y="172" type="curve"/>
    </contour>
    <contour>
      <point x="264" y="-202" type="curve"/>
      <point x="304" y="-147"/>
      <point x="360" y="-121"/>
      <point x="425" y="-121" type="curve" smooth="yes"/>
      <point x="494" y="-121"/>
      <point x="555" y="-155"/>
      <point x="555" y="-235" type="curve" smooth="yes"/>
      <point x="555" y="-345"/>
      <point x="482" y="-425"/>
      <point x="398" y="-425" type="curve" smooth="yes"/>
      <point x="391" y="-425"/>
      <point x="384" y="-425"/>
      <point x="377" y="-424" type="curve" smooth="yes"/>
      <point x="300" y="-413"/>
      <point x="259" y="-349"/>
      <point x="259" y="-266" type="curve" smooth="yes"/>
      <point x="259" y="-246"/>
      <point x="259" y="-227"/>
    </contour>
  </outline>
</glyph>
<glyph name="uni2103" format="2">
  <advance width="2600"/>
  <unicode hex="2103"/>
  <outline>
    <contour>
      <point x="468" y="1520" type="curve"/>
      <point x="458" y="1521"/>
      <point x="448" y="1522"/>
      <point x="438" y="1522" type="curve" smooth="yes"/>
      <point x="395" y="1522"/>
      <point x="320" y="1504"/>
      <point x="256" y="1449" type="curve" smooth="yes"/>
      <point x="195" y="1397"/>
      <point x="153" y="1326"/>
      <point x="151" y="1250" type="curve"/>
      <point x="151" y="1242" type="line" smooth="yes"/>
      <point x="151" y="1099"/>
      <point x="225" y="997"/>
      <point x="372" y="980" type="curve" smooth="yes"/>
      <point x="381" y="979"/>
      <point x="389" y="979"/>
      <point x="397" y="979" type="curve" smooth="yes"/>
      <point x="454" y="979"/>
      <point x="523" y="1001"/>
      <point x="583" y="1053" type="curve" smooth="yes"/>
      <point x="642" y="1104"/>
      <point x="685" y="1175"/>
      <point x="689" y="1250" type="curve"/>
      <point x="690" y="1258"/>
      <point x="690" y="1266"/>
      <point x="690" y="1274" type="curve" smooth="yes"/>
      <point x="690" y="1405"/>
      <point x="616" y="1500"/>
    </contour>
    <contour>
      <point x="1546" y="247" type="line"/>
      <point x="1436" y="186"/>
      <point x="1342" y="153"/>
      <point x="1222" y="153" type="curve" smooth="yes"/>
      <point x="949" y="153"/>
      <point x="897" y="373"/>
      <point x="897" y="605" type="curve" smooth="yes"/>
      <point x="897" y="969"/>
      <point x="1043" y="1341"/>
      <point x="1419" y="1341" type="curve" smooth="yes" name=".hr01"/>
      <point x="1536" y="1341"/>
      <point x="1619" y="1320"/>
      <point x="1702" y="1263" type="curve"/>
      <point x="1800" y="1385" type="line"/>
      <point x="1712" y="1473"/>
      <point x="1587" y="1517"/>
      <point x="1425" y="1517" type="curve" smooth="yes"/>
      <point x="957" y="1517"/>
      <point x="696" y="1105"/>
      <point x="696" y="616" type="curve" smooth="yes"/>
      <point x="696" y="251"/>
      <point x="850" y="-17"/>
      <point x="1167" y="-17" type="curve" smooth="yes"/>
      <point x="1398" y="-17"/>
      <point x="1535" y="58"/>
      <point x="1588" y="95" type="curve"/>
    </contour>
    <contour>
      <point x="392" y="1091" type="curve"/>
      <point x="311" y="1100"/>
      <point x="262" y="1162"/>
      <point x="261" y="1250" type="curve"/>
      <point x="261" y="1303"/>
      <point x="285" y="1348"/>
      <point x="321" y="1376" type="curve" smooth="yes"/>
      <point x="356" y="1404"/>
      <point x="394" y="1411"/>
      <point x="421" y="1411" type="curve" smooth="yes" name=".hr02"/>
      <point x="430" y="1411"/>
      <point x="439" y="1410"/>
      <point x="448" y="1409" type="curve"/>
      <point x="536" y="1393"/>
      <point x="579" y="1340"/>
      <point x="579" y="1261" type="curve" smooth="yes"/>
      <point x="579" y="1250" type="line"/>
      <point x="573" y="1139"/>
      <point x="471" y="1090"/>
      <point x="407" y="1090" type="curve" smooth="yes"/>
      <point x="402" y="1090"/>
      <point x="397" y="1090"/>
    </contour>
  </outline>
</glyph>
<glyph name="uni2109" format="2">
  <advance width="2600"/>
  <unicode hex="2109"/>
  <outline>
    <contour>
      <point x="568" y="1520" type="curve"/>
      <point x="558" y="1521"/>
      <point x="548" y="1522"/>
      <point x="538" y="1522" type="curve" smooth="yes"/>
      <point x="495" y="1522"/>
      <point x="420" y="1504"/>
      <point x="356" y="1449" type="curve" smooth="yes"/>
      <point x="295" y="1397"/>
      <point x="253" y="1326"/>
      <point x="251" y="1250" type="curve"/>
      <point x="251" y="1242" type="line" smooth="yes"/>
      <point x="251" y="1099"/>
      <point x="325" y="997"/>
      <point x="472" y="980" type="curve" smooth="yes"/>
      <point x="481" y="979"/>
      <point x="489" y="979"/>
      <point x="497" y="979" type="curve" smooth="yes"/>
      <point x="554" y="979"/>
      <point x="623" y="1001"/>
      <point x="683" y="1053" type="curve" smooth="yes"/>
      <point x="742" y="1104"/>
      <point x="785" y="1175"/>
      <point x="789" y="1250" type="curve"/>
      <point x="790" y="1258"/>
      <point x="790" y="1266"/>
      <point x="790" y="1274" type="curve" smooth="yes"/>
      <point x="790" y="1405"/>
      <point x="716" y="1500" name=".hr01"/>
    </contour>
    <contour>
      <point x="1130" y="740" type="line" name=".hr02"/>
      <point x="1670" y="740" type="line"/>
      <point x="1696" y="885" type="line"/>
      <point x="1156" y="885" type="line"/>
      <point x="1202" y="1150" type="line"/>
      <point x="1216" y="1340" type="line"/>
      <point x="1861" y="1340" type="line" name=".hr03"/>
      <point x="1909" y="1500" type="line"/>
      <point x="1034" y="1500" type="line"/>
      <point x="1027" y="1290" type="line"/>
      <point x="800" y="0" type="line"/>
      <point x="1000" y="0" type="line"/>
    </contour>
    <contour>
      <point x="492" y="1091" type="curve"/>
      <point x="411" y="1100"/>
      <point x="362" y="1162"/>
      <point x="361" y="1250" type="curve"/>
      <point x="361" y="1303"/>
      <point x="385" y="1348"/>
      <point x="421" y="1376" type="curve" smooth="yes"/>
      <point x="456" y="1404"/>
      <point x="494" y="1411"/>
      <point x="521" y="1411" type="curve" smooth="yes" name=".hr04"/>
      <point x="530" y="1411"/>
      <point x="539" y="1410"/>
      <point x="548" y="1409" type="curve"/>
      <point x="636" y="1393"/>
      <point x="679" y="1340"/>
      <point x="679" y="1261" type="curve" smooth="yes" name=".hr05"/>
      <point x="679" y="1250" type="line"/>
      <point x="673" y="1139"/>
      <point x="571" y="1090"/>
      <point x="507" y="1090" type="curve" smooth="yes"/>
      <point x="502" y="1090"/>
      <point x="497" y="1090"/>
    </contour>
  </outline>
</glyph>
<glyph name="uni2156" format="2">
  <advance width="1300"/>
  <unicode hex="2156"/>
  <outline>
    <contour>
      <point x="1120" y="1500" type="line"/>
      <point x="994" y="1500" type="line"/>
      <point x="219" y="0" type="line"/>
      <point x="354" y="0" type="line"/>
    </contour>
    <contour>
      <point x="487" y="720" type="line"/>
      <point x="501" y="800" type="line"/>
      <point x="166" y="800" type="line"/>
      <point x="215" y="873"/>
      <point x="289" y="937"/>
      <point x="386" y="1023" type="curve"/>
      <point x="461" y="1093"/>
      <point x="566" y="1165"/>
      <point x="571" y="1272" type="curve"/>
      <point x="571" y="1276"/>
      <point x="572" y="1280"/>
      <point x="572" y="1284" type="curve" smooth="yes"/>
      <point x="572" y="1377"/>
      <point x="517" y="1470"/>
      <point x="395" y="1478" type="curve"/>
      <point x="394" y="1478" type="line"/>
      <point x="393" y="1478" type="line"/>
      <point x="392" y="1478" type="line"/>
      <point x="392" y="1478" type="line"/>
      <point x="391" y="1478" type="line"/>
      <point x="391" y="1478" type="line"/>
      <point x="390" y="1478" type="line"/>
      <point x="389" y="1478" type="line"/>
      <point x="389" y="1478" type="line"/>
      <point x="386" y="1478" type="line"/>
      <point x="385" y="1478" type="line"/>
      <point x="385" y="1478" type="line"/>
      <point x="384" y="1478" type="line"/>
      <point x="383" y="1478" type="line"/>
      <point x="383" y="1478" type="line"/>
      <point x="382" y="1478" type="line"/>
      <point x="382" y="1478" type="line"/>
      <point x="381" y="1478" type="line"/>
      <point x="380" y="1478" type="line"/>
      <point x="380" y="1478" type="line"/>
      <point x="376" y="1478" type="line"/>
      <point x="376" y="1478" type="line"/>
      <point x="273" y="1478"/>
      <point x="192" y="1425"/>
      <point x="148" y="1330" type="curve"/>
      <point x="213" y="1300" type="line"/>
      <point x="239" y="1347"/>
      <point x="287" y="1396"/>
      <point x="349" y="1396" type="curve" smooth="yes"/>
      <point x="447" y="1396"/>
      <point x="481" y="1353"/>
      <point x="481" y="1281" type="curve" smooth="yes"/>
      <point x="481" y="1211"/>
      <point x="412" y="1153"/>
      <point x="332" y="1089" type="curve" smooth="yes"/>
      <point x="244" y="1017"/>
      <point x="141" y="935"/>
      <point x="50" y="804" type="curve"/>
      <point x="35" y="720" type="line"/>
    </contour>
    <contour>
      <point x="947" y="670" type="line" name=".hr01"/>
      <point x="1220" y="670" type="line"/>
      <point x="1234" y="750" type="line"/>
      <point x="862" y="750" type="line"/>
      <point x="801" y="400" type="line"/>
      <point x="858" y="400" type="line"/>
      <point x="889" y="421"/>
      <point x="924" y="433"/>
      <point x="979" y="433" type="curve" smooth="yes"/>
      <point x="1052" y="433"/>
      <point x="1100" y="374"/>
      <point x="1100" y="309" type="curve" smooth="yes"/>
      <point x="1100" y="172"/>
      <point x="936" y="80"/>
      <point x="744" y="80" type="curve"/>
      <point x="730" y="0" type="line"/>
      <point x="962" y="0"/>
      <point x="1200" y="95"/>
      <point x="1200" y="327" type="curve" smooth="yes"/>
      <point x="1200" y="435"/>
      <point x="1140" y="517"/>
      <point x="1003" y="517" type="curve" smooth="yes"/>
      <point x="975" y="517"/>
      <point x="947" y="506"/>
      <point x="929" y="498" type="curve"/>
      <point x="923" y="495" type="line"/>
      <point x="922" y="494" type="line"/>
      <point x="921" y="494"/>
      <point x="921" y="494"/>
      <point x="920" y="493" type="curve"/>
      <point x="919" y="493" type="line"/>
      <point x="918" y="492"/>
      <point x="917" y="492"/>
      <point x="916" y="491" type="curve"/>
    </contour>
  </outline>
</glyph>
<glyph name="threeeighths" format="2">
  <advance width="1300"/>
  <unicode hex="215C"/>
  <outline>
    <contour>
      <point x="1120" y="1500" type="line"/>
      <point x="994" y="1500" type="line"/>
      <point x="219" y="0" type="line"/>
      <point x="354" y="0" type="line"/>
    </contour>
    <contour>
      <point x="393" y="1390" type="line"/>
      <point x="473" y="1410" type="line"/>
      <point x="448" y="1364"/>
      <point x="293" y="1250"/>
      <point x="200" y="1190" type="curve"/>
      <point x="186" y="1113" type="line"/>
      <point x="214" y="1114"/>
      <point x="242" y="1115"/>
      <point x="273" y="1115" type="curve" smooth="yes"/>
      <point x="366" y="1115"/>
      <point x="431" y="1076"/>
      <point x="431" y="991" type="curve" smooth="yes"/>
      <point x="431" y="871"/>
      <point x="231" y="800"/>
      <point x="74" y="800" type="curve"/>
      <point x="60" y="720" type="line"/>
      <point x="275" y="720"/>
      <point x="534" y="794"/>
      <point x="534" y="1018" type="curve" smooth="yes"/>
      <point x="534" y="1125"/>
      <point x="440" y="1194"/>
      <point x="351" y="1194" type="curve" smooth="yes"/>
      <point x="315" y="1194" type="line"/>
      <point x="388" y="1229" type="line"/>
      <point x="457" y="1282"/>
      <point x="535" y="1346"/>
      <point x="559" y="1400" type="curve"/>
      <point x="572" y="1470" type="line"/>
      <point x="207" y="1470" type="line"/>
      <point x="185" y="1390" type="line"/>
    </contour>
    <contour>
      <point x="1041" y="758" type="line" smooth="yes" name=".hr01"/>
      <point x="934" y="758"/>
      <point x="820" y="703"/>
      <point x="820" y="566" type="curve" smooth="yes"/>
      <point x="820" y="510"/>
      <point x="853" y="460"/>
      <point x="902" y="425" type="curve"/>
      <point x="797" y="379"/>
      <point x="718" y="304"/>
      <point x="718" y="184" type="curve" smooth="yes"/>
      <point x="718" y="51"/>
      <point x="819" y="-9"/>
      <point x="944" y="-9" type="curve" smooth="yes"/>
      <point x="1087" y="-9"/>
      <point x="1211" y="56"/>
      <point x="1211" y="229" type="curve" smooth="yes"/>
      <point x="1211" y="300"/>
      <point x="1166" y="391"/>
      <point x="1096" y="423" type="curve"/>
      <point x="1166" y="460"/>
      <point x="1228" y="504" name=".hr02"/>
      <point x="1228" y="599" type="curve" smooth="yes"/>
      <point x="1228" y="697"/>
      <point x="1160" y="755"/>
      <point x="1052" y="758" type="curve"/>
    </contour>
    <contour>
      <point x="1014" y="461" type="curve"/>
      <point x="955" y="490"/>
      <point x="914" y="521"/>
      <point x="914" y="583" type="curve" smooth="yes"/>
      <point x="914" y="634"/>
      <point x="978" y="681"/>
      <point x="1034" y="681" type="curve" smooth="yes"/>
      <point x="1082" y="681"/>
      <point x="1136" y="656"/>
      <point x="1136" y="581" type="curve" smooth="yes"/>
      <point x="1136" y="524"/>
      <point x="1082" y="491"/>
    </contour>
    <contour>
      <point x="980" y="380" type="curve"/>
      <point x="1053" y="345"/>
      <point x="1116" y="302"/>
      <point x="1116" y="207" type="curve" smooth="yes" name=".hr03"/>
      <point x="1116" y="127"/>
      <point x="1032" y="72"/>
      <point x="954" y="72" type="curve" smooth="yes"/>
      <point x="874" y="72"/>
      <point x="812" y="115"/>
      <point x="812" y="207" type="curve" smooth="yes"/>
      <point x="812" y="298"/>
      <point x="889" y="343"/>
    </contour>
  </outline>
</glyph>
<glyph name="uni2161" format="2">
  <advance width="2600"/>
  <unicode hex="2161"/>
  <outline>
    <contour>
      <point x="857" y="160" type="line"/>
      <point x="672" y="160" type="line"/>
      <point x="883" y="1360" type="line"/>
      <point x="1071" y="1360" type="line"/>
    </contour>
    <contour>
      <point x="1373" y="0" type="line"/>
      <point x="1421" y="160" type="line"/>
      <point x="1043" y="160" type="line"/>
      <point x="1257" y="1361" type="line"/>
      <point x="1615" y="1361" type="line"/>
      <point x="1638" y="1500" type="line"/>
      <point x="356" y="1500" type="line"/>
      <point x="356" y="1360" type="line"/>
      <point x="673" y="1360" type="line"/>
      <point x="462" y="160" type="line"/>
      <point x="116" y="160" type="line"/>
      <point x="68" y="0" type="line"/>
    </contour>
  </outline>
</glyph>
<glyph name="uni2162" format="2">
  <advance width="2600"/>
  <unicode hex="2162"/>
  <outline>
    <contour>
      <point x="1073" y="1360" type="line"/>
      <point x="862" y="160" type="line"/>
      <point x="672" y="160" type="line"/>
      <point x="883" y="1360" type="line"/>
    </contour>
    <contour>
      <point x="1470" y="1360" type="line"/>
      <point x="1257" y="160" type="line"/>
      <point x="1072" y="160" type="line"/>
      <point x="1283" y="1360" type="line"/>
    </contour>
    <contour>
      <point x="1773" y="0" type="line"/>
      <point x="1821" y="160" type="line"/>
      <point x="1443" y="160" type="line"/>
      <point x="1656" y="1360" type="line"/>
      <point x="2014" y="1360" type="line"/>
      <point x="2038" y="1500" type="line"/>
      <point x="356" y="1500" type="line"/>
      <point x="356" y="1360" type="line"/>
      <point x="673" y="1360" type="line"/>
      <point x="462" y="160" type="line"/>
      <point x="116" y="160" type="line"/>
      <point x="68" y="0" type="line"/>
    </contour>
  </outline>
</glyph>
<glyph name="uni2165" format="2">
  <advance width="2600"/>
  <unicode hex="2165"/>
  <outline>
    <contour>
      <point x="1477" y="1340" type="line"/>
      <point x="1268" y="160" type="line"/>
      <point x="912" y="160" type="line"/>
      <point x="884" y="0" type="line"/>
      <point x="1784" y="0" type="line"/>
      <point x="1832" y="160" type="line"/>
      <point x="1454" y="160" type="line"/>
      <point x="1663" y="1340" type="line"/>
      <point x="2021" y="1340" type="line"/>
      <point x="2049" y="1500" type="line"/>
      <point x="1300" y="1500" type="line"/>
      <point x="1149" y="1500" type="line"/>
      <point x="1111" y="1500" type="line"/>
      <point x="597" y="454" type="line"/>
      <point x="493" y="140" type="line"/>
      <point x="469" y="500" type="line"/>
      <point x="326" y="1520" type="line"/>
      <point x="137" y="1500" type="line"/>
      <point x="355" y="0" type="line"/>
      <point x="587" y="-20" type="line"/>
      <point x="648" y="180" type="line"/>
      <point x="1221" y="1340" type="line"/>
    </contour>
  </outline>
</glyph>
<glyph name="uni2168" format="2">
  <advance width="2600"/>
  <unicode hex="2168"/>
  <outline>
    <contour>
      <point x="643" y="160" type="line"/>
      <point x="852" y="1340" type="line"/>
      <point x="1195" y="1340" type="line"/>
      <point x="1387" y="799" type="line"/>
      <point x="931" y="160" type="line"/>
    </contour>
    <contour>
      <point x="666" y="1340" type="line"/>
      <point x="457" y="160" type="line"/>
      <point x="101" y="160" type="line"/>
      <point x="73" y="0" type="line"/>
      <point x="1015" y="0" type="line"/>
      <point x="1385" y="540" type="line"/>
      <point x="1465" y="700" type="line"/>
      <point x="1506" y="519" type="line"/>
      <point x="1664" y="0" type="line"/>
      <point x="1884" y="0" type="line"/>
      <point x="1604" y="776" type="line"/>
      <point x="2117" y="1500" type="line"/>
      <point x="1924" y="1500" type="line"/>
      <point x="1594" y="1020" type="line"/>
      <point x="1535" y="860" type="line"/>
      <point x="1500" y="1056" type="line"/>
      <point x="1360" y="1500" type="line"/>
      <point x="338" y="1500" type="line"/>
      <point x="290" y="1340" type="line"/>
    </contour>
  </outline>
</glyph>
<glyph name="uni216B" format="2">
  <advance width="2600"/>
  <unicode hex="216B"/>
  <outline>
    <contour>
      <point x="786" y="776" type="line"/>
      <point x="1200" y="1360" type="line"/>
      <point x="1483" y="1360" type="line"/>
      <point x="1272" y="160" type="line"/>
      <point x="1008" y="160" type="line"/>
    </contour>
    <contour>
      <point x="1881" y="1360" type="line"/>
      <point x="1667" y="160" type="line"/>
      <point x="1482" y="160" type="line"/>
      <point x="1693" y="1360" type="line"/>
    </contour>
    <contour>
      <point x="1106" y="1500" type="line"/>
      <point x="776" y="1020" type="line"/>
      <point x="717" y="860" type="line"/>
      <point x="682" y="1056" type="line"/>
      <point x="536" y="1520" type="line"/>
      <point x="320" y="1500" type="line"/>
      <point x="569" y="799" type="line"/>
      <point x="-1" y="0" type="line"/>
      <point x="197" y="0" type="line"/>
      <point x="567" y="540" type="line"/>
      <point x="647" y="700" type="line"/>
      <point x="688" y="519" type="line"/>
      <point x="846" y="0" type="line"/>
      <point x="2183" y="0" type="line"/>
      <point x="2231" y="160" type="line"/>
      <point x="1853" y="160" type="line"/>
      <point x="2067" y="1361" type="line"/>
      <point x="2425" y="1361" type="line"/>
      <point x="2448" y="1500" type="line"/>
    </contour>
  </outline>
</glyph>
<glyph name="uni2175" format="2">
  <advance width="2600"/>
  <unicode hex="2175"/>
  <outline>
    <contour>
      <point x="919" y="1100" type="line"/>
      <point x="499" y="381" type="line"/>
      <point x="408" y="149" type="line"/>
      <point x="396" y="381" type="line"/>
      <point x="287" y="1121" type="line"/>
      <point x="100" y="1100" type="line"/>
      <point x="264" y="0" type="line"/>
      <point x="466" y="-20" type="line"/>
      <point x="1138" y="1121" type="line"/>
    </contour>
    <contour>
      <point x="1387" y="1121" type="line"/>
      <point x="1193" y="1100" type="line"/>
      <point x="1000" y="0" type="line"/>
      <point x="1190" y="0" type="line"/>
    </contour>
  </outline>
</glyph>
<glyph name="uni2178" format="2">
  <advance width="2600"/>
  <unicode hex="2178"/>
  <outline>
    <contour>
      <point x="1476" y="0" type="line"/>
      <point x="1167" y="583" type="line"/>
      <point x="1636" y="1121" type="line"/>
      <point x="1421" y="1100" type="line"/>
      <point x="1140" y="781" type="line"/>
      <point x="1083" y="670" type="line"/>
      <point x="1063" y="781" type="line"/>
      <point x="887" y="1121" type="line"/>
      <point x="673" y="1100" type="line"/>
      <point x="941" y="588" type="line"/>
      <point x="426" y="0" type="line"/>
      <point x="625" y="0" type="line"/>
      <point x="960" y="382" type="line"/>
      <point x="1026" y="500" type="line"/>
      <point x="1050" y="382" type="line"/>
      <point x="1251" y="0" type="line"/>
    </contour>
    <contour>
      <point x="487" y="1121" type="line"/>
      <point x="293" y="1100" type="line"/>
      <point x="100" y="0" type="line"/>
      <point x="290" y="0" type="line"/>
    </contour>
  </outline>
</glyph>
<glyph name="uni2199" format="2">
  <advance width="1300"/>
  <unicode hex="2199"/>
  <outline>
    <contour>
      <point x="1090" y="849" type="line"/>
      <point x="949" y="990" type="line"/>
      <point x="346" y="387" type="line"/>
      <point x="279" y="308" type="line"/>
      <point x="268" y="401" type="line"/>
      <point x="100" y="566" type="line"/>
      <point x="100" y="162" type="line"/>
      <point x="80" y="-20" type="line"/>
      <point x="262" y="0" type="line"/>
      <point x="666" y="0" type="line"/>
      <point x="500" y="169" type="line"/>
      <point x="406" y="181" type="line" name=".hr01"/>
      <point x="487" y="246" type="line"/>
    </contour>
  </outline>
</glyph>
<glyph name="uni21A9" format="2">
  <advance width="1300"/>
  <unicode hex="21A9"/>
  <outline>
    <contour>
      <point x="900" y="400" type="line" smooth="yes"/>
      <point x="1050" y="400"/>
      <point x="1200" y="500"/>
      <point x="1200" y="700" type="curve" smooth="yes"/>
      <point x="1200" y="900"/>
      <point x="1050" y="1000"/>
      <point x="900" y="1000" type="curve"/>
      <point x="900" y="800" type="line"/>
      <point x="972" y="800"/>
      <point x="1030" y="756"/>
      <point x="1030" y="700" type="curve" smooth="yes"/>
      <point x="1030" y="644"/>
      <point x="972" y="600"/>
      <point x="900" y="600" type="curve" smooth="yes"/>
      <point x="447" y="600" type="line"/>
      <point x="343" y="590" type="line"/>
      <point x="400" y="665" type="line"/>
      <point x="400" y="900" type="line"/>
      <point x="100" y="600" type="line"/>
      <point x="-20" y="500" type="line"/>
      <point x="99" y="400" type="line"/>
      <point x="400" y="100" type="line"/>
      <point x="400" y="337" type="line"/>
      <point x="343" y="412" type="line"/>
      <point x="447" y="400" type="line"/>
    </contour>
  </outline>
</glyph>
<glyph name="arrowdbldown" format="2">
  <advance width="1300"/>
  <unicode hex="21D3"/>
  <outline>
    <contour>
      <point x="691" y="107" type="line"/>
      <point x="1057" y="473" type="line"/>
      <point x="1057" y="643" type="line"/>
      <point x="813" y="398" type="line"/>
      <point x="800" y="498" type="line"/>
      <point x="800" y="1500" type="line"/>
      <point x="684" y="1500" type="line"/>
      <point x="684" y="648" type="line"/>
      <point x="712" y="298" type="line"/>
      <point x="600" y="167" type="line"/>
      <point x="488" y="298" type="line"/>
      <point x="516" y="648" type="line"/>
      <point x="516" y="1500" type="line"/>
      <point x="400" y="1500" type="line"/>
      <point x="400" y="498" type="line"/>
      <point x="388" y="398" type="line"/>
      <point x="143" y="643" type="line"/>
      <point x="143" y="473" type="line"/>
      <point x="509" y="107" type="line"/>
      <point x="600" y="0" type="line"/>
    </contour>
  </outline>
</glyph>
<glyph name="uni2218" format="2">
  <advance width="1300"/>
  <unicode hex="2218"/>
  <outline>
    <contour>
      <point x="668" y="920" type="curve"/>
      <point x="658" y="921"/>
      <point x="648" y="922"/>
      <point x="638" y="922" type="curve" smooth="yes"/>
      <point x="595" y="922"/>
      <point x="520" y="904"/>
      <point x="456" y="849" type="curve" smooth="yes"/>
      <point x="395" y="797"/>
      <point x="353" y="726"/>
      <point x="351" y="650" type="curve"/>
      <point x="351" y="642" type="line" smooth="yes"/>
      <point x="351" y="499"/>
      <point x="425" y="397"/>
      <point x="572" y="380" type="curve" smooth="yes"/>
      <point x="581" y="379"/>
      <point x="589" y="379"/>
      <point x="597" y="379" type="curve" smooth="yes"/>
      <point x="654" y="379"/>
      <point x="723" y="401"/>
      <point x="783" y="453" type="curve" smooth="yes"/>
      <point x="842" y="504"/>
      <point x="885" y="575"/>
      <point x="889" y="650" type="curve"/>
      <point x="890" y="658"/>
      <point x="890" y="666"/>
      <point x="890" y="674" type="curve" smooth="yes"/>
      <point x="890" y="805"/>
      <point x="816" y="900"/>
    </contour>
    <contour>
      <point x="592" y="491" type="curve"/>
      <point x="511" y="500"/>
      <point x="462" y="562"/>
      <point x="461" y="650" type="curve"/>
      <point x="461" y="703"/>
      <point x="485" y="748"/>
      <point x="521" y="776" type="curve" smooth="yes"/>
      <point x="556" y="804"/>
      <point x="594" y="811"/>
      <point x="621" y="811" type="curve" smooth="yes"/>
      <point x="630" y="811"/>
      <point x="639" y="810"/>
      <point x="648" y="809" type="curve"/>
      <point x="736" y="793"/>
      <point x="779" y="740"/>
      <point x="779" y="661" type="curve" smooth="yes"/>
      <point x="779" y="650" type="line"/>
      <point x="773" y="539"/>
      <point x="671" y="490"/>
      <point x="607" y="490" type="curve" smooth="yes"/>
      <point x="602" y="490"/>
      <point x="597" y="490"/>
    </contour>
  </outline>
</glyph>
<glyph name="therefore" format="2">
  <advance width="1300"/>
  <unicode hex="2234"/>
  <outline>
    <contour>
      <point x="7" y="1040" type="curve" smooth="yes"/>
      <point x="5" y="1030"/>
      <point x="4" y="1020"/>
      <point x="4" y="1010" type="curve" smooth="yes"/>
      <point x="4" y="986"/>
      <point x="10" y="953"/>
      <point x="35" y="923" type="curve" smooth="yes"/>
      <point x="59" y="893"/>
      <point x="98" y="873"/>
      <point x="143" y="873" type="curve" smooth="yes"/>
      <point x="233" y="873"/>
      <point x="320" y="949"/>
      <point x="336" y="1040" type="curve" smooth="yes"/>
      <point x="338" y="1050"/>
      <point x="339" y="1059"/>
      <point x="339" y="1068" type="curve" smooth="yes"/>
      <point x="339" y="1093"/>
      <point x="332" y="1127"/>
      <point x="308" y="1157" type="curve" smooth="yes"/>
      <point x="283" y="1187"/>
      <point x="245" y="1205"/>
      <point x="200" y="1205" type="curve" smooth="yes"/>
      <point x="109" y="1205"/>
      <point x="23" y="1131"/>
    </contour>
    <contour>
      <point x="-393" y="150" type="curve" smooth="yes"/>
      <point x="-395" y="140"/>
      <point x="-396" y="130"/>
      <point x="-396" y="120" type="curve" smooth="yes"/>
      <point x="-396" y="96"/>
      <point x="-390" y="63"/>
      <point x="-366" y="33" type="curve" smooth="yes"/>
      <point x="-341" y="3"/>
      <point x="-302" y="-17"/>
      <point x="-257" y="-17" type="curve" smooth="yes"/>
      <point x="-167" y="-17"/>
      <point x="-80" y="59"/>
      <point x="-64" y="150" type="curve" smooth="yes"/>
      <point x="-62" y="160"/>
      <point x="-61" y="169"/>
      <point x="-61" y="178" type="curve" smooth="yes"/>
      <point x="-61" y="203"/>
      <point x="-68" y="237"/>
      <point x="-93" y="267" type="curve" smooth="yes"/>
      <point x="-117" y="297"/>
      <point x="-155" y="315"/>
      <point x="-200" y="315" type="curve" smooth="yes"/>
      <point x="-291" y="315"/>
      <point x="-377" y="241"/>
    </contour>
    <contour>
      <point x="407" y="150" type="curve" smooth="yes"/>
      <point x="405" y="140"/>
      <point x="404" y="130"/>
      <point x="404" y="120" type="curve" smooth="yes"/>
      <point x="404" y="96"/>
      <point x="410" y="63"/>
      <point x="435" y="33" type="curve" smooth="yes"/>
      <point x="459" y="3"/>
      <point x="498" y="-17"/>
      <point x="543" y="-17" type="curve" smooth="yes"/>
      <point x="633" y="-17"/>
      <point x="720" y="59"/>
      <point x="736" y="150" type="curve" smooth="yes"/>
      <point x="738" y="160"/>
      <point x="739" y="169"/>
      <point x="739" y="178" type="curve" smooth="yes"/>
      <point x="739" y="203"/>
      <point x="732" y="237"/>
      <point x="708" y="267" type="curve" smooth="yes"/>
      <point x="683" y="297"/>
      <point x="645" y="315"/>
      <point x="600" y="315" type="curve" smooth="yes"/>
      <point x="509" y="315"/>
      <point x="423" y="241"/>
    </contour>
  </outline>
</glyph>
<glyph name="uni2243" format="2">
  <advance width="1300"/>
  <unicode hex="2243"/>
  <outline>
    <contour>
      <point x="760" y="500" type="curve" smooth="yes"/>
      <point x="879" y="500"/>
      <point x="947" y="566"/>
      <point x="1000" y="640" type="curve"/>
      <point x="1000" y="740" type="line"/>
      <point x="920" y="669"/>
      <point x="856" y="630"/>
      <point x="775" y="630" type="curve" smooth="yes"/>
      <point x="671" y="630"/>
      <point x="579" y="800"/>
      <point x="440" y="800" type="curve" smooth="yes"/>
      <point x="321" y="800"/>
      <point x="253" y="734"/>
      <point x="200" y="660" type="curve"/>
      <point x="200" y="560" type="line"/>
      <point x="280" y="630"/>
      <point x="343" y="670"/>
      <point x="425" y="670" type="curve" smooth="yes"/>
      <point x="530" y="670"/>
      <point x="621" y="500"/>
    </contour>
    <contour>
      <point x="200" y="260" type="line"/>
      <point x="1000" y="260" type="line"/>
      <point x="1000" y="400" type="line"/>
      <point x="200" y="400" type="line"/>
    </contour>
  </outline>
</glyph>
<glyph name="uni2296" format="2">
  <advance width="1300"/>
  <unicode hex="2296"/>
  <outline>
    <contour>
      <point x="650" y="132" type="curve" smooth="yes"/>
      <point x="334" y="132"/>
      <point x="173" y="369"/>
      <point x="136" y="675" type="curve"/>
      <point x="1162" y="675" type="line"/>
      <point x="1125" y="369"/>
      <point x="965" y="132"/>
    </contour>
    <contour>
      <point x="650" y="1367" type="curve" smooth="yes"/>
      <point x="965" y="1367"/>
      <point x="1125" y="1130"/>
      <point x="1162" y="825" type="curve"/>
      <point x="136" y="825" type="line"/>
      <point x="173" y="1130"/>
      <point x="334" y="1367"/>
    </contour>
    <contour>
      <point x="-17" y="750" type="curve" smooth="yes"/>
      <point x="-17" y="327"/>
      <point x="227" y="-17"/>
      <point x="650" y="-17" type="curve" smooth="yes"/>
      <point x="1073" y="-17"/>
      <point x="1317" y="327"/>
      <point x="1317" y="750" type="curve" smooth="yes"/>
      <point x="1317" y="1173"/>
      <point x="1073" y="1517"/>
      <point x="650" y="1517" type="curve" smooth="yes"/>
      <point x="227" y="1517"/>
      <point x="-17" y="1173"/>
    </contour>
  </outline>
</glyph>
<glyph name="uni230B" format="2">
  <advance width="1300"/>
  <unicode hex="230B"/>
  <outline>
    <contour>
      <point x="800" y="150" type="line"/>
      <point x="400" y="150" type="line"/>
      <point x="400" y="0" type="line"/>
      <point x="1000" y="0" type="line"/>
      <point x="1000" y="1500" type="line"/>
      <point x="800" y="1500" type="line"/>
    </contour>
  </outline>
</glyph>
<glyph name="POWERONSYMBOL" format="2">
  <advance width="1300"/>
  <unicode hex="23FD"/>
  <outline>
    <contour>
      <point x="648" y="1560" type="curve"/>
      <point x="651" y="1560" type="line" smooth="yes"/>
      <point x="739" y="1560"/>
      <point x="810" y="1488"/>
      <point x="810" y="1400" type="curve" smooth="yes"/>
      <point x="810" y="1398" type="line"/>
      <point x="810" y="-145" type="line"/>
      <point x="810" y="-147" type="line" smooth="yes"/>
      <point x="810" y="-235"/>
      <point x="739" y="-306"/>
      <point x="651" y="-306" type="curve" smooth="yes"/>
      <point x="563" y="-306"/>
      <point x="491" y="-235"/>
      <point x="491" y="-147" type="curve" smooth="yes"/>
      <point x="491" y="-145" type="line"/>
      <point x="491" y="1398" type="line"/>
      <point x="491" y="1400" type="line" smooth="yes"/>
      <point x="491" y="1487"/>
      <point x="561" y="1559"/>
    </contour>
  </outline>
</glyph>
<glyph name="POWERSLEEPSYMBOL" format="2">
  <advance width="1300"/>
  <unicode hex="23FE"/>
  <outline>
    <contour>
      <point x="566" y="1528" type="curve"/>
      <point x="390" y="1218"/>
      <point x="356" y="832"/>
      <point x="509" y="479" type="curve" smooth="yes"/>
      <point x="662" y="126"/>
      <point x="967" y="-114"/>
      <point x="1314" y="-197" type="curve"/>
      <point x="838" y="-403"/>
      <point x="284" y="-184"/>
      <point x="78" y="292" type="curve" smooth="yes"/>
      <point x="-128" y="768"/>
      <point x="90" y="1322"/>
    </contour>
  </outline>
</glyph>
<glyph name="uni2610" format="2">
  <advance width="1300"/>
  <unicode hex="2610"/>
  <outline>
    <contour>
      <point x="1200" y="1100" type="line"/>
      <point x="100" y="1100" type="line"/>
      <point x="100" y="0" type="line"/>
      <point x="1200" y="0" type="line"/>
    </contour>
    <contour>
      <point x="265" y="935" type="line"/>
      <point x="1035" y="935" type="line"/>
      <point x="1035" y="165" type="line"/>
      <point x="265" y="165" type="line"/>
    </contour>
  </outline>
</glyph>
<glyph name="uni2690" format="2">
  <advance width="1300"/>
  <unicode hex="2690"/>
  <outline>
    <contour>
      <point x="900" y="600" type="line"/>
      <point x="881" y="582"/>
      <point x="842" y="564"/>
      <point x="800" y="564" type="curve" smooth="yes"/>
      <point x="747" y="564"/>
      <point x="685" y="592"/>
      <point x="600" y="668" type="curve" smooth="yes"/>
      <point x="526" y="734"/>
      <point x="429" y="800"/>
      <point x="300" y="800" type="curve"/>
      <point x="315" y="900" type="line"/>
      <point x="300" y="1200" type="line"/>
      <point x="325" y="1205"/>
      <point x="349" y="1208"/>
      <point x="372" y="1208" type="curve" smooth="yes"/>
      <point x="442" y="1208"/>
      <point x="510" y="1181"/>
      <point x="600" y="1100" type="curve" smooth="yes"/>
      <point x="677" y="1031"/>
      <point x="755" y="989"/>
      <point x="833" y="989" type="curve" smooth="yes"/>
      <point x="855" y="989"/>
      <point x="878" y="993"/>
      <point x="900" y="1000" type="curve"/>
    </contour>
    <contour>
      <point x="932" y="1121" type="line"/>
      <point x="906" y="1102"/>
      <point x="876" y="1089"/>
      <point x="841" y="1089" type="curve" smooth="yes"/>
      <point x="788" y="1089"/>
      <point x="724" y="1117"/>
      <point x="648" y="1191" type="curve" smooth="yes"/>
      <point x="552" y="1285"/>
      <point x="448" y="1310"/>
      <point x="362" y="1310" type="curve" smooth="yes"/>
      <point x="278" y="1310"/>
      <point x="212" y="1286"/>
      <point x="187" y="1277" type="curve"/>
      <point x="185" y="1276"/>
      <point x="183" y="1275"/>
      <point x="182" y="1275" type="curve"/>
      <point x="200" y="1040" type="line"/>
      <point x="200" y="-20" type="line"/>
      <point x="300" y="0" type="line"/>
      <point x="300" y="673" type="line"/>
      <point x="314" y="678"/>
      <point x="327" y="680"/>
      <point x="339" y="680" type="curve" smooth="yes"/>
      <point x="418" y="680"/>
      <point x="486" y="619"/>
      <point x="600" y="535" type="curve" smooth="yes"/>
      <point x="677" y="478"/>
      <point x="738" y="469"/>
      <point x="800" y="469" type="curve" smooth="yes"/>
      <point x="892" y="469"/>
      <point x="968" y="503"/>
      <point x="1000" y="541" type="curve"/>
      <point x="1000" y="1100" type="line"/>
    </contour>
  </outline>
</glyph>
<glyph name="uni26A0" format="2">
  <advance width="2600"/>
  <unicode hex="26A0"/>
  <outline>
    <contour>
      <point x="1251" y="1409" type="line"/>
      <point x="2003" y="123" type="line"/>
      <point x="504" y="123" type="line"/>
    </contour>
    <contour>
      <point x="1164" y="351" type="curve" smooth="yes"/>
      <point x="1164" y="304"/>
      <point x="1203" y="263"/>
      <point x="1251" y="263" type="curve" smooth="yes"/>
      <point x="1298" y="263"/>
      <point x="1337" y="304"/>
      <point x="1337" y="351" type="curve" smooth="yes"/>
      <point x="1337" y="397"/>
      <point x="1298" y="438"/>
      <point x="1250" y="438" type="curve" smooth="yes"/>
      <point x="1203" y="438"/>
      <point x="1164" y="397"/>
    </contour>
    <contour>
      <point x="1401" y="1410" type="line" smooth="yes"/>
      <point x="1360" y="1480"/>
      <point x="1303" y="1517"/>
      <point x="1251" y="1517" type="curve" smooth="yes"/>
      <point x="1195" y="1517"/>
      <point x="1142" y="1481"/>
      <point x="1101" y="1410" type="curve" smooth="yes"/>
      <point x="427" y="261" type="line" smooth="yes"/>
      <point x="403" y="220"/>
      <point x="392" y="180"/>
      <point x="392" y="145" type="curve" smooth="yes"/>
      <point x="392" y="59"/>
      <point x="460" y="0"/>
      <point x="576" y="0" type="curve" smooth="yes"/>
      <point x="1923" y="0" type="line" smooth="yes"/>
      <point x="2040" y="0"/>
      <point x="2109" y="60"/>
      <point x="2109" y="146" type="curve" smooth="yes"/>
      <point x="2109" y="181"/>
      <point x="2098" y="220"/>
      <point x="2074" y="261" type="curve" smooth="yes"/>
    </contour>
    <contour>
      <point x="1176" y="1100" type="line"/>
      <point x="1176" y="560" type="line" name=".hr01"/>
      <point x="1326" y="573" type="line"/>
      <point x="1326" y="1100" type="line"/>
    </contour>
  </outline>
</glyph>
<glyph name="zap" format="2">
  <advance width="1300"/>
  <unicode hex="26A1"/>
  <outline>
    <contour>
      <point x="1275" y="752" type="line"/>
      <point x="775" y="752" type="line"/>
      <point x="1150" y="1627" type="line"/>
      <point x="25" y="502" type="line"/>
      <point x="525" y="502" type="line"/>
      <point x="150" y="-373" type="line"/>
    </contour>
  </outline>
</glyph>
<glyph name="uni2785" format="2">
  <advance width="1300"/>
  <unicode hex="2785"/>
  <outline>
    <contour>
      <point x="10" y="750" type="curve" smooth="yes"/>
      <point x="1" y="701"/>
      <point x="-3" y="653"/>
      <point x="-3" y="605" type="curve" smooth="yes"/>
      <point x="-3" y="591"/>
      <point x="-2" y="565"/>
      <point x="0" y="528" type="curve" smooth="yes"/>
      <point x="2" y="490"/>
      <point x="11" y="444"/>
      <point x="28" y="389" type="curve" smooth="yes"/>
      <point x="44" y="334"/>
      <point x="67" y="284"/>
      <point x="97" y="238" type="curve" smooth="yes"/>
      <point x="184" y="100"/>
      <point x="329" y="10"/>
      <point x="519" y="10" type="curve" smooth="yes"/>
      <point x="900" y="10"/>
      <point x="1222" y="370"/>
      <point x="1290" y="750" type="curve" smooth="yes"/>
      <point x="1299" y="799"/>
      <point x="1303" y="847"/>
      <point x="1303" y="895" type="curve" smooth="yes"/>
      <point x="1303" y="909"/>
      <point x="1302" y="935"/>
      <point x="1300" y="973" type="curve" smooth="yes"/>
      <point x="1298" y="1010"/>
      <point x="1289" y="1056"/>
      <point x="1272" y="1111" type="curve" smooth="yes"/>
      <point x="1255" y="1166"/>
      <point x="1232" y="1216"/>
      <point x="1203" y="1263" type="curve" smooth="yes"/>
      <point x="1116" y="1400"/>
      <point x="969" y="1490"/>
      <point x="780" y="1490" type="curve" smooth="yes"/>
      <point x="399" y="1490"/>
      <point x="78" y="1130"/>
    </contour>
    <contour>
      <point x="116" y="750" type="curve" smooth="yes"/>
      <point x="172" y="1072"/>
      <point x="438" y="1383"/>
      <point x="761" y="1383" type="curve" smooth="yes"/>
      <point x="920" y="1383"/>
      <point x="1043" y="1305"/>
      <point x="1114" y="1188" type="curve" smooth="yes"/>
      <point x="1138" y="1148"/>
      <point x="1157" y="1105"/>
      <point x="1170" y="1058" type="curve" smooth="yes"/>
      <point x="1197" y="964"/>
      <point x="1194" y="898"/>
      <point x="1194" y="877" type="curve" smooth="yes"/>
      <point x="1194" y="835"/>
      <point x="1190" y="793"/>
      <point x="1183" y="750" type="curve" smooth="yes"/>
      <point x="1127" y="427"/>
      <point x="859" y="116"/>
      <point x="538" y="116" type="curve" smooth="yes"/>
      <point x="377" y="116"/>
      <point x="256" y="193"/>
      <point x="185" y="312" type="curve" smooth="yes"/>
      <point x="161" y="352"/>
      <point x="142" y="396"/>
      <point x="129" y="443" type="curve"/>
      <point x="101" y="537"/>
      <point x="104" y="600"/>
      <point x="104" y="619" type="curve" smooth="yes"/>
      <point x="104" y="662"/>
      <point x="108" y="706"/>
    </contour>
    <contour>
      <point x="884" y="1208" type="line"/>
      <point x="881" y="1209"/>
      <point x="875" y="1210"/>
      <point x="868" y="1210" type="curve"/>
      <point x="867" y="1210" type="line"/>
      <point x="866" y="1210" type="line"/>
      <point x="865" y="1210" type="line"/>
      <point x="862" y="1210" type="line"/>
      <point x="862" y="1210" type="line"/>
      <point x="861" y="1210" type="line"/>
      <point x="860" y="1210" type="line"/>
      <point x="858" y="1210" type="line"/>
      <point x="858" y="1210" type="line"/>
      <point x="848" y="1210" type="line" smooth="yes"/>
      <point x="529" y="1210"/>
      <point x="293" y="925"/>
      <point x="293" y="618" type="curve" smooth="yes"/>
      <point x="293" y="483"/>
      <point x="338" y="302"/>
      <point x="526" y="290" type="curve"/>
      <point x="530" y="289"/>
      <point x="534" y="289"/>
      <point x="538" y="289" type="curve"/>
      <point x="539" y="289" type="line"/>
      <point x="540" y="289" type="line"/>
      <point x="541" y="289" type="line"/>
      <point x="542" y="289" type="line"/>
      <point x="544" y="289" type="line"/>
      <point x="544" y="289" type="line"/>
      <point x="551" y="289" type="line" smooth="yes"/>
      <point x="731" y="289"/>
      <point x="878" y="445"/>
      <point x="878" y="625" type="curve" smooth="yes"/>
      <point x="878" y="788"/>
      <point x="784" y="857"/>
      <point x="645" y="857" type="curve" smooth="yes"/>
      <point x="592" y="857"/>
      <point x="525" y="832"/>
      <point x="483" y="808" type="curve"/>
      <point x="421" y="738" type="line"/>
      <point x="477" y="937"/>
      <point x="613" y="1108"/>
      <point x="825" y="1108" type="curve"/>
      <point x="826" y="1108" type="line"/>
      <point x="827" y="1108" type="line"/>
      <point x="827" y="1108" type="line"/>
      <point x="828" y="1108" type="line"/>
      <point x="829" y="1108" type="line"/>
      <point x="830" y="1108" type="line"/>
      <point x="831" y="1108" type="line"/>
      <point x="839" y="1108" type="line" smooth="yes"/>
      <point x="844" y="1108"/>
      <point x="848" y="1107"/>
      <point x="851" y="1106" type="curve"/>
    </contour>
    <contour>
      <point x="409" y="658" type="curve"/>
      <point x="457" y="723"/>
      <point x="524" y="755"/>
      <point x="603" y="755" type="curve" smooth="yes"/>
      <point x="684" y="755"/>
      <point x="759" y="714"/>
      <point x="759" y="618" type="curve" smooth="yes"/>
      <point x="759" y="486"/>
      <point x="670" y="390"/>
      <point x="570" y="390" type="curve" smooth="yes"/>
      <point x="562" y="390"/>
      <point x="554" y="391"/>
      <point x="545" y="392" type="curve"/>
      <point x="452" y="405"/>
      <point x="403" y="481"/>
      <point x="403" y="581" type="curve" smooth="yes"/>
      <point x="403" y="605"/>
      <point x="404" y="627"/>
    </contour>
  </outline>
</glyph>
<glyph name="uni2787" format="2">
  <advance width="1300"/>
  <unicode hex="2787"/>
  <outline>
    <contour>
      <point x="10" y="750" type="curve" smooth="yes"/>
      <point x="1" y="701"/>
      <point x="-3" y="653"/>
      <point x="-3" y="605" type="curve" smooth="yes"/>
      <point x="-3" y="591"/>
      <point x="-2" y="565"/>
      <point x="0" y="528" type="curve" smooth="yes"/>
      <point x="2" y="490"/>
      <point x="11" y="444"/>
      <point x="28" y="389" type="curve" smooth="yes"/>
      <point x="44" y="334"/>
      <point x="67" y="284"/>
      <point x="97" y="238" type="curve" smooth="yes"/>
      <point x="184" y="100"/>
      <point x="329" y="10"/>
      <point x="519" y="10" type="curve" smooth="yes"/>
      <point x="900" y="10"/>
      <point x="1222" y="370"/>
      <point x="1290" y="750" type="curve" smooth="yes"/>
      <point x="1299" y="799"/>
      <point x="1303" y="847"/>
      <point x="1303" y="895" type="curve" smooth="yes"/>
      <point x="1303" y="909"/>
      <point x="1302" y="935"/>
      <point x="1300" y="973" type="curve" smooth="yes"/>
      <point x="1298" y="1010"/>
      <point x="1289" y="1056"/>
      <point x="1272" y="1111" type="curve" smooth="yes"/>
      <point x="1255" y="1166"/>
      <point x="1232" y="1216"/>
      <point x="1203" y="1263" type="curve" smooth="yes"/>
      <point x="1116" y="1400"/>
      <point x="969" y="1490"/>
      <point x="780" y="1490" type="curve" smooth="yes"/>
      <point x="399" y="1490"/>
      <point x="78" y="1130"/>
    </contour>
    <contour>
      <point x="116" y="750" type="curve" smooth="yes"/>
      <point x="172" y="1072"/>
      <point x="438" y="1383"/>
      <point x="761" y="1383" type="curve" smooth="yes"/>
      <point x="920" y="1383"/>
      <point x="1043" y="1305"/>
      <point x="1114" y="1188" type="curve" smooth="yes"/>
      <point x="1138" y="1148"/>
      <point x="1157" y="1105"/>
      <point x="1170" y="1058" type="curve" smooth="yes"/>
      <point x="1197" y="964"/>
      <point x="1194" y="898"/>
      <point x="1194" y="877" type="curve" smooth="yes"/>
      <point x="1194" y="835"/>
      <point x="1190" y="793"/>
      <point x="1183" y="750" type="curve" smooth="yes"/>
      <point x="1127" y="427"/>
      <point x="859" y="116"/>
      <point x="538" y="116" type="curve" smooth="yes"/>
      <point x="377" y="116"/>
      <point x="256" y="193"/>
      <point x="185" y="312" type="curve" smooth="yes"/>
      <point x="161" y="352"/>
      <point x="142" y="396"/>
      <point x="129" y="443" type="curve"/>
      <point x="101" y="537"/>
      <point x="104" y="600"/>
      <point x="104" y="619" type="curve" smooth="yes"/>
      <point x="104" y="662"/>
      <point x="108" y="706"/>
    </contour>
    <contour>
      <point x="692" y="1210" type="line" smooth="yes"/>
      <point x="565" y="1210"/>
      <point x="426" y="1145"/>
      <point x="426" y="979" type="curve" smooth="yes"/>
      <point x="426" y="912"/>
      <point x="465" y="853"/>
      <point x="525" y="810" type="curve"/>
      <point x="400" y="757"/>
      <point x="304" y="665"/>
      <point x="304" y="521" type="curve" smooth="yes"/>
      <point x="304" y="361"/>
      <point x="425" y="290"/>
      <point x="576" y="290" type="curve" smooth="yes"/>
      <point x="747" y="290"/>
      <point x="896" y="366"/>
      <point x="896" y="575" type="curve" smooth="yes"/>
      <point x="896" y="660"/>
      <point x="841" y="771"/>
      <point x="758" y="808" type="curve"/>
      <point x="842" y="851"/>
      <point x="916" y="906"/>
      <point x="916" y="1019" type="curve" smooth="yes"/>
      <point x="916" y="1138" name=".hr01"/>
      <point x="835" y="1205"/>
      <point x="705" y="1210" type="curve"/>
    </contour>
    <contour>
      <point x="660" y="854" type="curve"/>
      <point x="588" y="889"/>
      <point x="540" y="925"/>
      <point x="540" y="1000" type="curve" smooth="yes"/>
      <point x="540" y="1060"/>
      <point x="614" y="1118"/>
      <point x="684" y="1118" type="curve" smooth="yes"/>
      <point x="741" y="1118"/>
      <point x="806" y="1085"/>
      <point x="806" y="998" type="curve" smooth="yes"/>
      <point x="806" y="930"/>
      <point x="740" y="886"/>
    </contour>
    <contour>
      <point x="618" y="756" type="curve"/>
      <point x="707" y="713"/>
      <point x="782" y="663"/>
      <point x="782" y="549" type="curve" smooth="yes"/>
      <point x="782" y="451"/>
      <point x="682" y="387" name=".hr02"/>
      <point x="587" y="387" type="curve" smooth="yes"/>
      <point x="492" y="387"/>
      <point x="417" y="438"/>
      <point x="417" y="548" type="curve" smooth="yes"/>
      <point x="417" y="657"/>
      <point x="510" y="713"/>
    </contour>
  </outline>
</glyph>
<glyph name="uni2791" format="2">
  <advance width="1300"/>
  <unicode hex="2791"/>
  <outline>
    <contour>
      <point x="10" y="750" type="curve" smooth="yes"/>
      <point x="1" y="701"/>
      <point x="-3" y="653"/>
      <point x="-3" y="605" type="curve" smooth="yes"/>
      <point x="-3" y="591"/>
      <point x="-2" y="565"/>
      <point x="0" y="528" type="curve" smooth="yes"/>
      <point x="2" y="490"/>
      <point x="11" y="444"/>
      <point x="28" y="389" type="curve" smooth="yes"/>
      <point x="44" y="334"/>
      <point x="67" y="284"/>
      <point x="97" y="238" type="curve" smooth="yes"/>
      <point x="184" y="100"/>
      <point x="329" y="10"/>
      <point x="519" y="10" type="curve" smooth="yes"/>
      <point x="900" y="10"/>
      <point x="1222" y="370"/>
      <point x="1290" y="750" type="curve" smooth="yes"/>
      <point x="1299" y="799"/>
      <point x="1303" y="847"/>
      <point x="1303" y="895" type="curve" smooth="yes"/>
      <point x="1303" y="909"/>
      <point x="1302" y="935"/>
      <point x="1300" y="973" type="curve" smooth="yes"/>
      <point x="1298" y="1010"/>
      <point x="1289" y="1056"/>
      <point x="1272" y="1111" type="curve" smooth="yes"/>
      <point x="1255" y="1166"/>
      <point x="1232" y="1216"/>
      <point x="1203" y="1263" type="curve" smooth="yes"/>
      <point x="1116" y="1400"/>
      <point x="969" y="1490"/>
      <point x="780" y="1490" type="curve" smooth="yes"/>
      <point x="399" y="1490"/>
      <point x="78" y="1130"/>
    </contour>
    <contour>
      <point x="702" y="1210" type="line"/>
      <point x="832" y="1205"/>
      <point x="913" y="1138"/>
      <point x="913" y="1019" type="curve" smooth="yes"/>
      <point x="913" y="906"/>
      <point x="839" y="851"/>
      <point x="755" y="808" type="curve"/>
      <point x="838" y="771"/>
      <point x="893" y="660"/>
      <point x="893" y="575" type="curve" smooth="yes"/>
      <point x="893" y="366"/>
      <point x="744" y="290"/>
      <point x="573" y="290" type="curve" smooth="yes"/>
      <point x="422" y="290"/>
      <point x="301" y="361"/>
      <point x="301" y="521" type="curve" smooth="yes"/>
      <point x="301" y="665"/>
      <point x="397" y="757"/>
      <point x="522" y="810" type="curve"/>
      <point x="462" y="853"/>
      <point x="423" y="912"/>
      <point x="423" y="979" type="curve" smooth="yes"/>
      <point x="423" y="1145"/>
      <point x="562" y="1210"/>
      <point x="689" y="1210" type="curve" smooth="yes"/>
    </contour>
    <contour>
      <point x="657" y="854" type="curve"/>
      <point x="737" y="886"/>
      <point x="803" y="930"/>
      <point x="803" y="998" type="curve" smooth="yes"/>
      <point x="803" y="1085"/>
      <point x="738" y="1118"/>
      <point x="681" y="1118" type="curve" smooth="yes"/>
      <point x="611" y="1118"/>
      <point x="537" y="1060"/>
      <point x="537" y="1000" type="curve" smooth="yes"/>
      <point x="537" y="925"/>
      <point x="585" y="889"/>
    </contour>
    <contour>
      <point x="615" y="756" type="curve"/>
      <point x="507" y="713"/>
      <point x="414" y="657"/>
      <point x="414" y="548" type="curve" smooth="yes"/>
      <point x="414" y="438" name=".hr01"/>
      <point x="489" y="387"/>
      <point x="584" y="387" type="curve" smooth="yes"/>
      <point x="679" y="387"/>
      <point x="779" y="451"/>
      <point x="779" y="549" type="curve" smooth="yes"/>
      <point x="779" y="663"/>
      <point x="704" y="713"/>
    </contour>
  </outline>
</glyph>
<glyph name="HEAVYCIRCLE" format="2">
  <advance width="1300"/>
  <unicode hex="2B58"/>
  <outline>
    <contour>
      <point x="895" y="1523" type="curve" smooth="yes"/>
      <point x="1388" y="1523"/>
      <point x="1791" y="1121"/>
      <point x="1791" y="628" type="curve" smooth="yes"/>
      <point x="1791" y="135"/>
      <point x="1388" y="-269"/>
      <point x="895" y="-269" type="curve" smooth="yes"/>
      <point x="402" y="-269"/>
      <point x="0" y="135"/>
      <point x="0" y="628" type="curve" smooth="yes"/>
      <point x="0" y="1121"/>
      <point x="402" y="1523"/>
    </contour>
    <contour>
      <point x="895" y="1217" type="curve" smooth="yes"/>
      <point x="568" y="1217"/>
      <point x="307" y="955"/>
      <point x="307" y="628" type="curve" smooth="yes"/>
      <point x="307" y="301"/>
      <point x="568" y="38"/>
      <point x="895" y="38" type="curve" smooth="yes"/>
      <point x="1222" y="38"/>
      <point x="1485" y="301"/>
      <point x="1485" y="628" type="curve" smooth="yes"/>
      <point x="1485" y="955"/>
      <point x="1222" y="1217"/>
    </contour>
  </outline>
</glyph>
<glyph name="uniE029" format="2">
  <advance width="1300"/>
  <unicode hex="E029"/>
  <outline>
    <contour>
      <point x="930" y="100" type="line"/>
      <point x="780" y="500" type="line"/>
      <point x="680" y="500" type="line"/>
      <point x="830" y="100" type="line"/>
      <point x="700" y="100" type="line"/>
      <point x="500" y="600" type="line"/>
      <point x="400" y="600" type="line"/>
      <point x="600" y="100" type="line"/>
      <point x="500" y="100" type="line"/>
      <point x="100" y="900" type="line"/>
      <point x="150" y="100" type="line"/>
      <point x="150" y="0" type="line"/>
      <point x="1200" y="0" type="line"/>
      <point x="1180" y="100" type="line"/>
    </contour>
  </outline>
</glyph>
<glyph name="uniE08B" format="2">
  <advance width="1300"/>
  <unicode hex="E08B"/>
  <outline>
    <contour>
      <point x="1000" y="750" type="line"/>
      <point x="680" y="470" type="line"/>
      <point x="680" y="704" type="line"/>
      <point x="354" y="470" type="line"/>
      <point x="376" y="750" type="line"/>
      <point x="354" y="1030" type="line"/>
      <point x="680" y="796" type="line"/>
      <point x="680" y="1030" type="line"/>
    </contour>
    <contour>
      <point x="600" y="1364" type="curve" smooth="yes"/>
      <point x="262" y="1364"/>
      <point x="-14" y="1088"/>
      <point x="-14" y="750" type="curve" smooth="yes"/>
      <point x="-14" y="412"/>
      <point x="262" y="136"/>
      <point x="600" y="136" type="curve" smooth="yes"/>
      <point x="938" y="136"/>
      <point x="1214" y="412"/>
      <point x="1214" y="750" type="curve" smooth="yes"/>
      <point x="1214" y="1088"/>
      <point x="938" y="1364"/>
    </contour>
    <contour>
      <point x="600" y="1231" type="curve" smooth="yes"/>
      <point x="862" y="1231"/>
      <point x="1081" y="1011"/>
      <point x="1081" y="748" type="curve" smooth="yes"/>
      <point x="1081" y="485"/>
      <point x="857" y="269"/>
      <point x="600" y="269" type="curve" smooth="yes"/>
      <point x="338" y="269"/>
      <point x="119" y="488"/>
      <point x="119" y="750" type="curve" smooth="yes"/>
      <point x="119" y="1012"/>
      <point x="338" y="1231"/>
    </contour>
  </outline>
</glyph>
<glyph name="uniE0A3" format="2">
  <advance width="1300"/>
  <unicode hex="E0A3"/>
  <outline>
    <contour>
      <point x="868" y="581" type="line"/>
      <point x="868" y="415" type="line"/>
      <point x="894" y="-37" type="line"/>
      <point x="590" y="581" type="line"/>
      <point x="387" y="581" type="line"/>
      <point x="387" y="-366" type="line"/>
      <point x="580" y="-366" type="line"/>
      <point x="580" y="-161" type="line"/>
      <point x="557" y="250" type="line"/>
      <point x="858" y="-366" type="line"/>
      <point x="1063" y="-366" type="line"/>
      <point x="1063" y="581" type="line"/>
    </contour>
    <contour>
      <point x="843" y="804" type="line"/>
      <point x="426" y="804" type="line" name=".hr01"/>
      <point x="423" y="1464" type="line"/>
      <point x="843" y="1464" type="line"/>
      <point x="843" y="1620" type="line"/>
      <point x="457" y="1620" type="line"/>
      <point x="238" y="1620" type="line"/>
      <point x="238" y="666" type="line"/>
      <point x="843" y="666" type="line"/>
    </contour>
  </outline>
</glyph>
